<svg width="1342" height="546" viewBox="0 0 1342 546" fill="none" xmlns="http://www.w3.org/2000/svg">
<path d="M982 2V0L978 0V2L982 2ZM978.586 56.6917C979.367 57.4727 980.633 57.4727 981.414 56.6917L994.142 43.9638C994.923 43.1827 994.923 41.9164 994.142 41.1353C993.361 40.3543 992.095 40.3543 991.314 41.1353L980 52.449L968.686 41.1353C967.905 40.3543 966.639 40.3543 965.858 41.1353C965.077 41.9164 965.077 43.1827 965.858 43.9638L978.586 56.6917ZM978 2V55.2775H982V2L978 2Z" fill="#6000FD"/>
<path d="M1057.26 2V0H1053.26V2H1057.26ZM1053.85 56.6917C1054.63 57.4727 1055.9 57.4727 1056.68 56.6917L1069.41 43.9638C1070.19 43.1827 1070.19 41.9164 1069.41 41.1353C1068.63 40.3543 1067.36 40.3543 1066.58 41.1353L1055.26 52.449L1043.95 41.1353C1043.17 40.3543 1041.9 40.3543 1041.12 41.1353C1040.34 41.9164 1040.34 43.1827 1041.12 43.9638L1053.85 56.6917ZM1053.26 2V55.2775H1057.26V2H1053.26Z" fill="#6000FD"/>
<path d="M1132.53 2V0H1128.53V2H1132.53ZM1129.12 56.6917C1129.9 57.4727 1131.16 57.4727 1131.94 56.6917L1144.67 43.9638C1145.45 43.1827 1145.45 41.9164 1144.67 41.1353C1143.89 40.3543 1142.62 40.3543 1141.84 41.1353L1130.53 52.449L1119.22 41.1353C1118.44 40.3543 1117.17 40.3543 1116.39 41.1353C1115.61 41.9164 1115.61 43.1827 1116.39 43.9638L1129.12 56.6917ZM1128.53 2V55.2775H1132.53V2H1128.53Z" fill="#6000FD"/>
<rect x="2" y="118" width="340.977" height="45" rx="22.5" fill="#6000FD"/>
<rect x="3.5" y="119.5" width="362" height="42" rx="21" stroke="black" stroke-width="3"/>
<path d="M9.38751 89.6543H11.3504V104H9.38751V89.6543ZM14.5145 89.6543H16.4578V102.291H23.7234V104H14.5145V89.6543ZM25.6473 89.6543H27.5906V102.291H34.8563V104H25.6473V89.6543ZM38.8895 89.6543V98.5215C38.8895 99.5632 39.0848 100.429 39.4754 101.119C40.0548 102.161 41.0314 102.682 42.4051 102.682C44.0522 102.682 45.172 102.118 45.7645 100.992C46.0835 100.38 46.243 99.5566 46.243 98.5215V89.6543H48.2156V97.7109C48.2156 99.4753 47.978 100.833 47.5027 101.783C46.6304 103.515 44.9832 104.381 42.5613 104.381C40.1395 104.381 38.4956 103.515 37.6297 101.783C37.1544 100.833 36.9168 99.4753 36.9168 97.7109V89.6543H38.8895ZM52.5027 99.3711C52.5483 100.185 52.7404 100.846 53.0789 101.354C53.7234 102.304 54.8595 102.779 56.4871 102.779C57.2163 102.779 57.8804 102.675 58.4793 102.467C59.6382 102.063 60.2176 101.34 60.2176 100.299C60.2176 99.5176 59.9734 98.9609 59.4852 98.6289C58.9904 98.3034 58.2156 98.0202 57.1609 97.7793L55.2176 97.3398C53.9481 97.0534 53.0496 96.7376 52.5223 96.3926C51.6108 95.7936 51.1551 94.8984 51.1551 93.707C51.1551 92.418 51.6011 91.36 52.493 90.5332C53.3849 89.7064 54.6479 89.293 56.282 89.293C57.7859 89.293 59.062 89.6576 60.1102 90.3867C61.1649 91.1094 61.6922 92.2682 61.6922 93.8633H59.866C59.7684 93.0951 59.56 92.5059 59.241 92.0957C58.6486 91.347 57.6427 90.9727 56.2234 90.9727C55.0776 90.9727 54.254 91.2135 53.7527 91.6953C53.2514 92.1771 53.0008 92.737 53.0008 93.375C53.0008 94.0781 53.2938 94.5924 53.8797 94.918C54.2638 95.1263 55.133 95.3867 56.4871 95.6992L58.4988 96.1582C59.4689 96.3796 60.2176 96.6823 60.7449 97.0664C61.6564 97.737 62.1121 98.7103 62.1121 99.9863C62.1121 101.575 61.5327 102.711 60.3738 103.395C59.2215 104.078 57.8804 104.42 56.3504 104.42C54.5665 104.42 53.1701 103.964 52.1609 103.053C51.1518 102.148 50.657 100.921 50.6766 99.3711H52.5027ZM75.0125 89.6543V91.3633H70.1785V104H68.2059V91.3633H63.3719V89.6543H75.0125ZM83.4695 96.2266C84.381 96.2266 85.1004 96.0443 85.6277 95.6797C86.1616 95.3151 86.4285 94.6576 86.4285 93.707C86.4285 92.6849 86.0574 91.9883 85.3152 91.6172C84.9181 91.4219 84.3875 91.3242 83.7234 91.3242H78.9774V96.2266H83.4695ZM77.034 89.6543H83.6746C84.7684 89.6543 85.6701 89.8138 86.3797 90.1328C87.7274 90.7448 88.4012 91.8743 88.4012 93.5215C88.4012 94.3809 88.2221 95.084 87.8641 95.6309C87.5125 96.1777 87.0177 96.6172 86.3797 96.9492C86.9396 97.1771 87.3595 97.4766 87.6395 97.8477C87.9259 98.2188 88.0854 98.821 88.118 99.6543L88.1863 101.578C88.2059 102.125 88.2514 102.532 88.3231 102.799C88.4402 103.255 88.6486 103.548 88.9481 103.678V104H86.5652C86.5001 103.876 86.4481 103.717 86.409 103.521C86.3699 103.326 86.3374 102.949 86.3113 102.389L86.1942 99.9961C86.1486 99.0586 85.8003 98.4303 85.1492 98.1113C84.7781 97.9355 84.1955 97.8477 83.4012 97.8477H78.9774V104H77.034V89.6543ZM98.616 98.1211L96.4383 91.7832L94.1238 98.1211H98.616ZM95.4227 89.6543H97.6199L102.825 104H100.696L99.241 99.7031H93.5672L92.0145 104H90.0223L95.4227 89.6543ZM113.548 89.6543V91.3633H108.714V104H106.741V91.3633H101.907V89.6543H113.548ZM121.175 89.2637C123.707 89.2637 125.582 90.0775 126.8 91.7051C127.75 92.9746 128.225 94.599 128.225 96.5781C128.225 98.7201 127.682 100.501 126.595 101.92C125.319 103.587 123.499 104.42 121.136 104.42C118.929 104.42 117.194 103.691 115.93 102.232C114.804 100.826 114.241 99.0488 114.241 96.9004C114.241 94.9603 114.723 93.3001 115.686 91.9199C116.923 90.1491 118.753 89.2637 121.175 89.2637ZM121.37 102.682C123.082 102.682 124.319 102.07 125.081 100.846C125.849 99.6152 126.233 98.2025 126.233 96.6074C126.233 94.9212 125.791 93.5638 124.905 92.5352C124.026 91.5065 122.822 90.9922 121.292 90.9922C119.807 90.9922 118.596 91.5033 117.659 92.5254C116.721 93.541 116.253 95.0417 116.253 97.0273C116.253 98.6159 116.653 99.957 117.454 101.051C118.261 102.138 119.567 102.682 121.37 102.682ZM137.22 96.2266C138.131 96.2266 138.85 96.0443 139.378 95.6797C139.912 95.3151 140.179 94.6576 140.179 93.707C140.179 92.6849 139.807 91.9883 139.065 91.6172C138.668 91.4219 138.138 91.3242 137.473 91.3242H132.727V96.2266H137.22ZM130.784 89.6543H137.425C138.518 89.6543 139.42 89.8138 140.13 90.1328C141.477 90.7448 142.151 91.8743 142.151 93.5215C142.151 94.3809 141.972 95.084 141.614 95.6309C141.263 96.1777 140.768 96.6172 140.13 96.9492C140.69 97.1771 141.11 97.4766 141.389 97.8477C141.676 98.2188 141.835 98.821 141.868 99.6543L141.936 101.578C141.956 102.125 142.001 102.532 142.073 102.799C142.19 103.255 142.399 103.548 142.698 103.678V104H140.315C140.25 103.876 140.198 103.717 140.159 103.521C140.12 103.326 140.087 102.949 140.061 102.389L139.944 99.9961C139.899 99.0586 139.55 98.4303 138.899 98.1113C138.528 97.9355 137.945 97.8477 137.151 97.8477H132.727V104H130.784V89.6543Z" fill="black"/>
<rect x="584" y="279" width="262.467" height="45" rx="22.5" fill="#6000FD"/>
<rect x="585.5" y="280.5" width="544" height="42" rx="21" stroke="black" stroke-width="3"/>
<path d="M601.016 258.121L598.839 251.783L596.524 258.121H601.016ZM597.823 249.654H600.02L605.225 264H603.096L601.641 259.703H595.967L594.415 264H592.422L597.823 249.654ZM607.178 249.654H617.13V251.412H609.122V255.768H616.163V257.477H609.122V264H607.178V249.654ZM629.659 249.654V251.363H624.825V264H622.852V251.363H618.018V249.654H629.659ZM631.631 249.654H642.09V251.412H633.526V255.768H641.446V257.428H633.526V262.291H642.237V264H631.631V249.654ZM651.456 256.227C652.367 256.227 653.087 256.044 653.614 255.68C654.148 255.315 654.415 254.658 654.415 253.707C654.415 252.685 654.044 251.988 653.301 251.617C652.904 251.422 652.374 251.324 651.71 251.324H646.964V256.227H651.456ZM645.02 249.654H651.661C652.755 249.654 653.656 249.814 654.366 250.133C655.714 250.745 656.387 251.874 656.387 253.521C656.387 254.381 656.208 255.084 655.85 255.631C655.499 256.178 655.004 256.617 654.366 256.949C654.926 257.177 655.346 257.477 655.626 257.848C655.912 258.219 656.072 258.821 656.104 259.654L656.172 261.578C656.192 262.125 656.238 262.532 656.309 262.799C656.426 263.255 656.635 263.548 656.934 263.678V264H654.551C654.486 263.876 654.434 263.717 654.395 263.521C654.356 263.326 654.324 262.949 654.297 262.389L654.18 259.996C654.135 259.059 653.786 258.43 653.135 258.111C652.764 257.936 652.182 257.848 651.387 257.848H646.964V264H645.02V249.654ZM664.991 249.654H675.45V251.412H666.885V255.768H674.805V257.428H666.885V262.291H675.596V264H664.991V249.654ZM678.331 249.654H688.282V251.412H680.274V255.768H687.315V257.477H680.274V264H678.331V249.654ZM690.557 249.654H700.508V251.412H692.501V255.768H699.542V257.477H692.501V264H690.557V249.654ZM702.784 249.654H713.243V251.412H704.678V255.768H712.598V257.428H704.678V262.291H713.389V264H702.784V249.654ZM721.983 249.264C723.799 249.264 725.209 249.742 726.212 250.699C727.214 251.656 727.771 252.743 727.881 253.961H725.987C725.772 253.036 725.342 252.304 724.698 251.764C724.06 251.223 723.161 250.953 722.003 250.953C720.59 250.953 719.447 251.451 718.575 252.447C717.709 253.437 717.276 254.957 717.276 257.008C717.276 258.688 717.667 260.051 718.448 261.1C719.236 262.141 720.408 262.662 721.964 262.662C723.396 262.662 724.486 262.112 725.235 261.012C725.632 260.432 725.928 259.671 726.124 258.727H728.018C727.849 260.237 727.289 261.503 726.339 262.525C725.199 263.756 723.663 264.371 721.729 264.371C720.062 264.371 718.663 263.867 717.53 262.857C716.039 261.523 715.294 259.462 715.294 256.676C715.294 254.56 715.853 252.825 716.973 251.471C718.184 249.999 719.854 249.264 721.983 249.264ZM740.831 249.654V251.363H735.997V264H734.024V251.363H729.19V249.654H740.831ZM743.887 259.371C743.933 260.185 744.125 260.846 744.464 261.354C745.108 262.304 746.244 262.779 747.872 262.779C748.601 262.779 749.265 262.675 749.864 262.467C751.023 262.063 751.602 261.34 751.602 260.299C751.602 259.518 751.358 258.961 750.87 258.629C750.375 258.303 749.6 258.02 748.546 257.779L746.602 257.34C745.333 257.053 744.434 256.738 743.907 256.393C742.995 255.794 742.54 254.898 742.54 253.707C742.54 252.418 742.986 251.36 743.878 250.533C744.769 249.706 746.033 249.293 747.667 249.293C749.171 249.293 750.447 249.658 751.495 250.387C752.549 251.109 753.077 252.268 753.077 253.863H751.251C751.153 253.095 750.945 252.506 750.626 252.096C750.033 251.347 749.027 250.973 747.608 250.973C746.462 250.973 745.639 251.214 745.137 251.695C744.636 252.177 744.385 252.737 744.385 253.375C744.385 254.078 744.678 254.592 745.264 254.918C745.648 255.126 746.518 255.387 747.872 255.699L749.883 256.158C750.853 256.38 751.602 256.682 752.13 257.066C753.041 257.737 753.497 258.71 753.497 259.986C753.497 261.575 752.917 262.711 751.758 263.395C750.606 264.078 749.265 264.42 747.735 264.42C745.951 264.42 744.555 263.964 743.546 263.053C742.536 262.148 742.042 260.921 742.061 259.371H743.887Z" fill="black"/>
<rect x="599" y="462" width="547.391" height="45" rx="22.5" fill="#6000FD"/>
<rect x="600.5" y="463.5" width="740" height="42" rx="21" stroke="black" stroke-width="3"/>
<path d="M610.174 435.654H620.125V437.412H612.117V441.768H619.158V443.477H612.117V450H610.174V435.654ZM622.654 435.654H624.617V450H622.654V435.654ZM633.983 435.283C635.33 435.283 636.496 435.544 637.479 436.064C638.904 436.813 639.777 438.125 640.096 440H638.172C637.938 438.952 637.453 438.19 636.717 437.715C635.981 437.233 635.054 436.992 633.934 436.992C632.606 436.992 631.486 437.49 630.574 438.486C629.669 439.482 629.217 440.967 629.217 442.939C629.217 444.645 629.591 446.035 630.34 447.109C631.089 448.177 632.309 448.711 634.002 448.711C635.298 448.711 636.369 448.337 637.215 447.588C638.068 446.833 638.504 445.615 638.524 443.936H634.031V442.324H640.33V450H639.08L638.611 448.154C637.954 448.877 637.371 449.378 636.863 449.658C636.011 450.14 634.927 450.381 633.611 450.381C631.912 450.381 630.451 449.831 629.227 448.73C627.892 447.35 627.225 445.456 627.225 443.047C627.225 440.645 627.876 438.734 629.178 437.314C630.415 435.96 632.016 435.283 633.983 435.283ZM643.299 435.654H646.082L650.203 447.783L654.295 435.654H657.049V450H655.203V441.533C655.203 441.24 655.21 440.755 655.223 440.078C655.236 439.401 655.242 438.675 655.242 437.9L651.151 450H649.227L645.106 437.9V438.34C645.106 438.691 645.112 439.229 645.125 439.951C645.145 440.667 645.154 441.195 645.154 441.533V450H643.299V435.654ZM667.371 444.121L665.193 437.783L662.879 444.121H667.371ZM664.178 435.654H666.375L671.58 450H669.451L667.996 445.703H662.322L660.77 450H658.777L664.178 435.654Z" fill="black"/>
<rect x="393" y="119" width="522.028" height="45" rx="22.5" fill="#6000FD"/>
<rect x="394.5" y="120.5" width="555" height="42" rx="21" stroke="black" stroke-width="3"/>
<path d="M400.85 89.6543H407.306C408.582 89.6543 409.61 90.0156 410.391 90.7383C411.173 91.4544 411.563 92.4635 411.563 93.7656C411.563 94.8854 411.215 95.862 410.518 96.6953C409.822 97.5221 408.751 97.9355 407.306 97.9355H402.794V104H400.85V89.6543ZM409.6 93.7754C409.6 92.7207 409.21 92.0046 408.429 91.627C407.999 91.4251 407.41 91.3242 406.661 91.3242H402.794V96.2949H406.661C407.533 96.2949 408.24 96.1094 408.78 95.7383C409.327 95.3672 409.6 94.7129 409.6 93.7754ZM414.054 89.6543H416.016V95.582H423.477V89.6543H425.44V104H423.477V97.291H416.016V104H414.054V89.6543ZM434.649 89.2637C437.182 89.2637 439.057 90.0775 440.274 91.7051C441.225 92.9746 441.7 94.599 441.7 96.5781C441.7 98.7201 441.156 100.501 440.069 101.92C438.793 103.587 436.974 104.42 434.61 104.42C432.403 104.42 430.668 103.691 429.405 102.232C428.279 100.826 427.716 99.0488 427.716 96.9004C427.716 94.9603 428.197 93.3001 429.161 91.9199C430.398 90.1491 432.227 89.2637 434.649 89.2637ZM434.845 102.682C436.557 102.682 437.794 102.07 438.556 100.846C439.324 99.6152 439.708 98.2025 439.708 96.6074C439.708 94.9212 439.265 93.5638 438.38 92.5352C437.501 91.5065 436.296 90.9922 434.766 90.9922C433.282 90.9922 432.071 91.5033 431.134 92.5254C430.196 93.541 429.727 95.0417 429.727 97.0273C429.727 98.6159 430.128 99.957 430.929 101.051C431.736 102.138 433.041 102.682 434.845 102.682ZM454.464 89.6543V91.3633H449.63V104H447.657V91.3633H442.823V89.6543H454.464ZM462.091 89.2637C464.623 89.2637 466.498 90.0775 467.716 91.7051C468.666 92.9746 469.141 94.599 469.141 96.5781C469.141 98.7201 468.598 100.501 467.511 101.92C466.235 103.587 464.415 104.42 462.052 104.42C459.845 104.42 458.11 103.691 456.847 102.232C455.72 100.826 455.157 99.0488 455.157 96.9004C455.157 94.9603 455.639 93.3001 456.602 91.9199C457.839 90.1491 459.669 89.2637 462.091 89.2637ZM462.286 102.682C463.998 102.682 465.235 102.07 465.997 100.846C466.765 99.6152 467.149 98.2025 467.149 96.6074C467.149 94.9212 466.707 93.5638 465.821 92.5352C464.942 91.5065 463.738 90.9922 462.208 90.9922C460.724 90.9922 459.513 91.5033 458.575 92.5254C457.638 93.541 457.169 95.0417 457.169 97.0273C457.169 98.6159 457.569 99.957 458.37 101.051C459.177 102.138 460.483 102.682 462.286 102.682ZM472.735 99.3711C472.781 100.185 472.973 100.846 473.311 101.354C473.956 102.304 475.092 102.779 476.72 102.779C477.449 102.779 478.113 102.675 478.712 102.467C479.871 102.063 480.45 101.34 480.45 100.299C480.45 99.5176 480.206 98.9609 479.718 98.6289C479.223 98.3034 478.448 98.0202 477.393 97.7793L475.45 97.3398C474.181 97.0534 473.282 96.7376 472.755 96.3926C471.843 95.7936 471.388 94.8984 471.388 93.707C471.388 92.418 471.834 91.36 472.725 90.5332C473.617 89.7064 474.88 89.293 476.515 89.293C478.018 89.293 479.294 89.6576 480.343 90.3867C481.397 91.1094 481.925 92.2682 481.925 93.8633H480.099C480.001 93.0951 479.793 92.5059 479.474 92.0957C478.881 91.347 477.875 90.9727 476.456 90.9727C475.31 90.9727 474.487 91.2135 473.985 91.6953C473.484 92.1771 473.233 92.737 473.233 93.375C473.233 94.0781 473.526 94.5924 474.112 94.918C474.496 95.1263 475.365 95.3867 476.72 95.6992L478.731 96.1582C479.701 96.3796 480.45 96.6823 480.977 97.0664C481.889 97.737 482.345 98.7103 482.345 99.9863C482.345 101.575 481.765 102.711 480.606 103.395C479.454 104.078 478.113 104.42 476.583 104.42C474.799 104.42 473.403 103.964 472.393 103.053C471.384 102.148 470.89 100.921 470.909 99.3711H472.735ZM484.854 89.6543H486.817V95.582H494.278V89.6543H496.241V104H494.278V97.291H486.817V104H484.854V89.6543ZM505.45 89.2637C507.983 89.2637 509.858 90.0775 511.075 91.7051C512.026 92.9746 512.501 94.599 512.501 96.5781C512.501 98.7201 511.957 100.501 510.87 101.92C509.594 103.587 507.774 104.42 505.411 104.42C503.204 104.42 501.469 103.691 500.206 102.232C499.08 100.826 498.516 99.0488 498.516 96.9004C498.516 94.9603 498.998 93.3001 499.962 91.9199C501.199 90.1491 503.028 89.2637 505.45 89.2637ZM505.645 102.682C507.358 102.682 508.595 102.07 509.356 100.846C510.125 99.6152 510.509 98.2025 510.509 96.6074C510.509 94.9212 510.066 93.5638 509.181 92.5352C508.302 91.5065 507.097 90.9922 505.567 90.9922C504.083 90.9922 502.872 91.5033 501.934 92.5254C500.997 93.541 500.528 95.0417 500.528 97.0273C500.528 98.6159 500.929 99.957 501.729 101.051C502.537 102.138 503.842 102.682 505.645 102.682ZM515.011 89.6543H521.466C522.742 89.6543 523.77 90.0156 524.552 90.7383C525.333 91.4544 525.724 92.4635 525.724 93.7656C525.724 94.8854 525.375 95.862 524.679 96.6953C523.982 97.5221 522.911 97.9355 521.466 97.9355H516.954V104H515.011V89.6543ZM523.761 93.7754C523.761 92.7207 523.37 92.0046 522.589 91.627C522.159 91.4251 521.57 91.3242 520.821 91.3242H516.954V96.2949H520.821C521.694 96.2949 522.4 96.1094 522.94 95.7383C523.487 95.3672 523.761 94.7129 523.761 93.7754Z" fill="black"/>
<rect y="277" width="520.332" height="45" rx="22.5" fill="#6000FD"/>
<rect x="1.5" y="278.5" width="554" height="42" rx="21" stroke="black" stroke-width="3"/>
<path d="M8.07416 249.654H10.037V264H8.07416V249.654ZM13.2011 249.654H15.496L22.7421 261.275V249.654H24.5878V264H22.4101L15.0566 252.389V264H13.2011V249.654ZM33.162 262.34C33.8196 262.34 34.36 262.271 34.7831 262.135C35.5384 261.881 36.1568 261.393 36.6386 260.67C37.0227 260.09 37.2994 259.348 37.4687 258.443C37.5663 257.903 37.6152 257.402 37.6152 256.939C37.6152 255.162 37.2604 253.782 36.5507 252.799C35.8476 251.816 34.7115 251.324 33.1425 251.324H29.6953V262.34H33.162ZM27.7421 249.654H33.5527C35.5253 249.654 37.0553 250.354 38.1425 251.754C39.1126 253.017 39.5976 254.635 39.5976 256.607C39.5976 258.131 39.3111 259.508 38.7382 260.738C37.7291 262.913 35.9941 264 33.5331 264H27.7421V249.654ZM42.2929 249.654H52.7519V251.412H44.1874V255.768H52.1074V257.428H44.1874V262.291H52.8984V264H42.2929V249.654ZM56.7167 259.371C56.7623 260.185 56.9544 260.846 57.2929 261.354C57.9374 262.304 59.0735 262.779 60.7011 262.779C61.4303 262.779 62.0943 262.675 62.6933 262.467C63.8522 262.063 64.4316 261.34 64.4316 260.299C64.4316 259.518 64.1874 258.961 63.6992 258.629C63.2044 258.303 62.4296 258.02 61.3749 257.779L59.4316 257.34C58.162 257.053 57.2636 256.738 56.7363 256.393C55.8248 255.794 55.3691 254.898 55.3691 253.707C55.3691 252.418 55.815 251.36 56.707 250.533C57.5989 249.706 58.8619 249.293 60.496 249.293C61.9999 249.293 63.276 249.658 64.3242 250.387C65.3788 251.109 65.9062 252.268 65.9062 253.863H64.08C63.9824 253.095 63.774 252.506 63.455 252.096C62.8626 251.347 61.8567 250.973 60.4374 250.973C59.2916 250.973 58.468 251.214 57.9667 251.695C57.4654 252.177 57.2148 252.737 57.2148 253.375C57.2148 254.078 57.5078 254.592 58.0937 254.918C58.4778 255.126 59.3469 255.387 60.7011 255.699L62.7128 256.158C63.6829 256.38 64.4316 256.682 64.9589 257.066C65.8704 257.737 66.3261 258.71 66.3261 259.986C66.3261 261.575 65.7467 262.711 64.5878 263.395C63.4355 264.078 62.0943 264.42 60.5644 264.42C58.7805 264.42 57.3841 263.964 56.3749 263.053C55.3658 262.148 54.871 260.921 54.8906 259.371H56.7167ZM69.2265 249.654H71.1894V264H69.2265V249.654ZM80.5546 249.283C81.9023 249.283 83.0676 249.544 84.0507 250.064C85.4765 250.813 86.3489 252.125 86.6679 254H84.7441C84.5097 252.952 84.0247 252.19 83.289 251.715C82.5533 251.233 81.6256 250.992 80.5058 250.992C79.1777 250.992 78.0579 251.49 77.1464 252.486C76.2415 253.482 75.789 254.967 75.789 256.939C75.789 258.645 76.1634 260.035 76.912 261.109C77.6607 262.177 78.8814 262.711 80.5742 262.711C81.8697 262.711 82.9407 262.337 83.787 261.588C84.6399 260.833 85.0761 259.615 85.0956 257.936H80.6035V256.324H86.9023V264H85.6523L85.1835 262.154C84.526 262.877 83.9433 263.378 83.4355 263.658C82.5826 264.14 81.4986 264.381 80.1835 264.381C78.4843 264.381 77.0227 263.831 75.7988 262.73C74.4641 261.35 73.7968 259.456 73.7968 257.047C73.7968 254.645 74.4479 252.734 75.7499 251.314C76.9869 249.96 78.5885 249.283 80.5546 249.283ZM89.9199 249.654H92.2148L99.4609 261.275V249.654H101.307V264H99.1288L91.7753 252.389V264H89.9199V249.654Z" fill="black"/>
<path d="M494.414 495.398C495.195 494.617 495.195 493.35 494.414 492.569L481.686 479.841C480.905 479.06 479.639 479.06 478.858 479.841C478.077 480.622 478.077 481.889 478.858 482.67L490.172 493.983L478.858 505.297C478.077 506.078 478.077 507.344 478.858 508.126C479.639 508.907 480.905 508.907 481.686 508.126L494.414 495.398ZM311 495.983L493 495.983L493 491.983L311 491.983L311 495.983Z" fill="#6000FD"/>
<path d="M313 492.983L313.061 414" stroke="#6000FD" stroke-width="4"/>
</svg>
