<svg width="1118" height="182" viewBox="0 0 1118 182" fill="none" xmlns="http://www.w3.org/2000/svg">
<rect x="1" y="136" width="262" height="45" rx="22.5" fill="#6000FD"/>
<rect x="2.41345" y="137.955" width="468.041" height="41.8207" rx="20.9104" stroke="black" stroke-width="3"/>
<path d="M9.25122 106.517H11.2141V112.445H18.675V106.517H20.6379V120.863H18.675V114.154H11.2141V120.863H9.25122V106.517ZM34.095 106.517V108.226H29.261V120.863H27.2883V108.226H22.4543V106.517H34.095ZM35.8333 106.517H38.6165L42.7375 118.646L46.8293 106.517H49.5833V120.863H47.7375V112.396C47.7375 112.103 47.7441 111.618 47.7571 110.941C47.7701 110.264 47.7766 109.538 47.7766 108.763L43.6848 120.863H41.761L37.6399 108.763V109.203C37.6399 109.554 37.6464 110.091 37.6594 110.814C37.679 111.53 37.6887 112.057 37.6887 112.396V120.863H35.8333V106.517ZM52.5422 106.517H54.4856V119.154H61.7512V120.863H52.5422V106.517ZM64.6223 117.298C64.7395 118.301 65.205 118.994 66.0188 119.378C66.4355 119.574 66.9172 119.671 67.4641 119.671C68.5058 119.671 69.2773 119.339 69.7786 118.675C70.2799 118.011 70.5305 117.276 70.5305 116.468C70.5305 115.492 70.231 114.736 69.6321 114.203C69.0396 113.669 68.3267 113.402 67.4934 113.402C66.8879 113.402 66.3671 113.519 65.9309 113.753C65.5012 113.988 65.1334 114.313 64.8274 114.73L63.304 114.642L64.3684 107.113H71.634V108.812H65.6868L65.0911 112.699C65.4166 112.451 65.7258 112.266 66.0188 112.142C66.5396 111.927 67.1418 111.82 67.8254 111.82C69.108 111.82 70.1952 112.233 71.0872 113.06C71.9791 113.887 72.425 114.935 72.425 116.205C72.425 117.526 72.0149 118.692 71.1946 119.701C70.3808 120.71 69.0787 121.214 67.2883 121.214C66.149 121.214 65.1399 120.895 64.261 120.257C63.3886 119.613 62.9003 118.626 62.7961 117.298H64.6223Z" fill="black"/>
<rect x="550.602" y="136.455" width="295.986" height="44.8207" rx="22.4104" fill="#6000FD"/>
<rect x="552.102" y="137.955" width="563.602" height="41.8207" rx="20.9104" stroke="black" stroke-width="3"/>
<path d="M564.935 106.54C566.752 106.54 568.161 107.018 569.164 107.975C570.167 108.932 570.723 110.019 570.834 111.237H568.939C568.724 110.312 568.295 109.58 567.65 109.04C567.012 108.499 566.114 108.229 564.955 108.229C563.542 108.229 562.4 108.727 561.527 109.723C560.661 110.713 560.228 112.233 560.228 114.284C560.228 115.963 560.619 117.327 561.4 118.375C562.188 119.417 563.36 119.938 564.916 119.938C566.348 119.938 567.439 119.388 568.187 118.288C568.585 117.708 568.881 116.946 569.076 116.002H570.971C570.801 117.513 570.241 118.779 569.291 119.801C568.152 121.032 566.615 121.647 564.682 121.647C563.015 121.647 561.615 121.142 560.482 120.133C558.991 118.799 558.246 116.738 558.246 113.952C558.246 111.836 558.806 110.101 559.926 108.747C561.137 107.275 562.807 106.54 564.935 106.54ZM574.613 116.647C574.659 117.461 574.851 118.122 575.189 118.629C575.834 119.58 576.97 120.055 578.598 120.055C579.327 120.055 579.991 119.951 580.59 119.743C581.749 119.339 582.328 118.616 582.328 117.575C582.328 116.793 582.084 116.237 581.596 115.905C581.101 115.579 580.326 115.296 579.271 115.055L577.328 114.616C576.058 114.329 575.16 114.014 574.633 113.668C573.721 113.069 573.266 112.174 573.266 110.983C573.266 109.694 573.711 108.636 574.603 107.809C575.495 106.982 576.758 106.569 578.392 106.569C579.896 106.569 581.172 106.933 582.221 107.663C583.275 108.385 583.803 109.544 583.803 111.139H581.976C581.879 110.371 581.67 109.782 581.351 109.372C580.759 108.623 579.753 108.249 578.334 108.249C577.188 108.249 576.364 108.489 575.863 108.971C575.362 109.453 575.111 110.013 575.111 110.651C575.111 111.354 575.404 111.868 575.99 112.194C576.374 112.402 577.243 112.663 578.598 112.975L580.609 113.434C581.579 113.655 582.328 113.958 582.855 114.342C583.767 115.013 584.223 115.986 584.223 117.262C584.223 118.851 583.643 119.987 582.484 120.67C581.332 121.354 579.991 121.696 578.461 121.696C576.677 121.696 575.28 121.24 574.271 120.329C573.262 119.424 572.767 118.196 572.787 116.647H574.613ZM587.953 116.647C587.999 117.461 588.191 118.122 588.529 118.629C589.174 119.58 590.31 120.055 591.937 120.055C592.667 120.055 593.331 119.951 593.93 119.743C595.088 119.339 595.668 118.616 595.668 117.575C595.668 116.793 595.424 116.237 594.935 115.905C594.441 115.579 593.666 115.296 592.611 115.055L590.668 114.616C589.398 114.329 588.5 114.014 587.973 113.668C587.061 113.069 586.605 112.174 586.605 110.983C586.605 109.694 587.051 108.636 587.943 107.809C588.835 106.982 590.098 106.569 591.732 106.569C593.236 106.569 594.512 106.933 595.56 107.663C596.615 108.385 597.142 109.544 597.142 111.139H595.316C595.219 110.371 595.01 109.782 594.691 109.372C594.099 108.623 593.093 108.249 591.674 108.249C590.528 108.249 589.704 108.489 589.203 108.971C588.702 109.453 588.451 110.013 588.451 110.651C588.451 111.354 588.744 111.868 589.33 112.194C589.714 112.402 590.583 112.663 591.937 112.975L593.949 113.434C594.919 113.655 595.668 113.958 596.195 114.342C597.107 115.013 597.562 115.986 597.562 117.262C597.562 118.851 596.983 119.987 595.824 120.67C594.672 121.354 593.331 121.696 591.801 121.696C590.017 121.696 588.62 121.24 587.611 120.329C586.602 119.424 586.107 118.196 586.127 116.647H587.953Z" fill="black"/>
<path d="M473.954 1.99292V-0.00708008L469.954 -0.00708008V1.99292L473.954 1.99292ZM470.54 56.6846C471.321 57.4657 472.587 57.4657 473.368 56.6846L486.096 43.9567C486.877 43.1756 486.877 41.9093 486.096 41.1283C485.315 40.3472 484.049 40.3472 483.268 41.1283L471.954 52.442L460.64 41.1283C459.859 40.3472 458.593 40.3472 457.812 41.1283C457.031 41.9093 457.031 43.1756 457.812 43.9567L470.54 56.6846ZM469.954 1.99292V55.2704H473.954V1.99292L469.954 1.99292Z" fill="#6000FD"/>
<path d="M549.219 1.99292V-0.00708008H545.219V1.99292H549.219ZM545.805 56.6846C546.586 57.4657 547.852 57.4657 548.633 56.6846L561.361 43.9567C562.142 43.1756 562.142 41.9093 561.361 41.1283C560.58 40.3472 559.314 40.3472 558.533 41.1283L547.219 52.442L535.905 41.1283C535.124 40.3472 533.858 40.3472 533.077 41.1283C532.296 41.9093 532.296 43.1756 533.077 43.9567L545.805 56.6846ZM545.219 1.99292V55.2704H549.219V1.99292H545.219Z" fill="#6000FD"/>
<path d="M624.484 1.99292V-0.00708008H620.484V1.99292H624.484ZM621.07 56.6846C621.851 57.4657 623.117 57.4657 623.898 56.6846L636.626 43.9567C637.407 43.1756 637.407 41.9093 636.626 41.1283C635.845 40.3472 634.579 40.3472 633.798 41.1283L622.484 52.442L611.17 41.1283C610.389 40.3472 609.123 40.3472 608.342 41.1283C607.561 41.9093 607.561 43.1756 608.342 43.9567L621.07 56.6846ZM620.484 1.99292V55.2704H624.484V1.99292H620.484Z" fill="#6000FD"/>
</svg>
