<svg width="1440" height="150" viewBox="0 0 1440 150" fill="none" xmlns="http://www.w3.org/2000/svg">
<line x1="-50" y1="2" x2="1465" y2="2" stroke="#6000FD" stroke-width="4"/>
<line x1="-50.0013" y1="148" x2="1486" y2="146.969" stroke="#6000FD" stroke-width="4"/>
<g clip-path="url(#clip0_76_195)">
<path d="M-2 86.2266C-1.63542 88.8568 -0.919271 90.8229 0.148438 92.125C2.10156 94.4948 5.44792 95.6797 10.1875 95.6797C13.026 95.6797 15.3307 95.3672 17.1016 94.7422C20.4609 93.5443 22.1406 91.3177 22.1406 88.0625C22.1406 86.1615 21.3073 84.6901 19.6406 83.6484C17.974 82.6328 15.3568 81.7344 11.7891 80.9531L5.69531 79.5859C-0.294271 78.2318 -4.4349 76.7604 -6.72656 75.1719C-10.6068 72.5156 -12.5469 68.362 -12.5469 62.7109C-12.5469 57.5547 -10.6719 53.2708 -6.92188 49.8594C-3.17188 46.4479 2.33594 44.7422 9.60156 44.7422C15.6693 44.7422 20.8385 46.3568 25.1094 49.5859C29.4062 52.7891 31.6589 57.4505 31.8672 63.5703H20.3047C20.0964 60.1068 18.5859 57.6458 15.7734 56.1875C13.8984 55.224 11.5677 54.7422 8.78125 54.7422C5.68229 54.7422 3.20833 55.3672 1.35938 56.6172C-0.489583 57.8672 -1.41406 59.612 -1.41406 61.8516C-1.41406 63.9089 -0.502604 65.4453 1.32031 66.4609C2.49219 67.138 4.99219 67.9323 8.82031 68.8438L18.7422 71.2266C23.0911 72.2682 26.3724 73.6615 28.5859 75.4062C32.0234 78.1146 33.7422 82.0339 33.7422 87.1641C33.7422 92.4245 31.724 96.7995 27.6875 100.289C23.6771 103.753 18 105.484 10.6562 105.484C3.15625 105.484 -2.74219 103.779 -7.03906 100.367C-11.3359 96.9297 -13.4844 92.2161 -13.4844 86.2266H-2ZM42.8438 46.4219H54.6797V70.1328L76.9062 46.4219H92.4531L68.8594 70.1328L93.6641 104H78.1953L60.4219 78.8438L54.6797 84.7422V104H42.8438V46.4219ZM111.477 104H99.5234V46.4219H111.477V104ZM122.727 46.4219H134.758V93.6484H163.273V104H122.727V46.4219ZM171.633 46.4219H183.664V93.6484H212.18V104H171.633V46.4219ZM229.25 86.2266C229.615 88.8568 230.331 90.8229 231.398 92.125C233.352 94.4948 236.698 95.6797 241.438 95.6797C244.276 95.6797 246.581 95.3672 248.352 94.7422C251.711 93.5443 253.391 91.3177 253.391 88.0625C253.391 86.1615 252.557 84.6901 250.891 83.6484C249.224 82.6328 246.607 81.7344 243.039 80.9531L236.945 79.5859C230.956 78.2318 226.815 76.7604 224.523 75.1719C220.643 72.5156 218.703 68.362 218.703 62.7109C218.703 57.5547 220.578 53.2708 224.328 49.8594C228.078 46.4479 233.586 44.7422 240.852 44.7422C246.919 44.7422 252.089 46.3568 256.359 49.5859C260.656 52.7891 262.909 57.4505 263.117 63.5703H251.555C251.346 60.1068 249.836 57.6458 247.023 56.1875C245.148 55.224 242.818 54.7422 240.031 54.7422C236.932 54.7422 234.458 55.3672 232.609 56.6172C230.76 57.8672 229.836 59.612 229.836 61.8516C229.836 63.9089 230.747 65.4453 232.57 66.4609C233.742 67.138 236.242 67.9323 240.07 68.8438L249.992 71.2266C254.341 72.2682 257.622 73.6615 259.836 75.4062C263.273 78.1146 264.992 82.0339 264.992 87.1641C264.992 92.4245 262.974 96.7995 258.938 100.289C254.927 103.753 249.25 105.484 241.906 105.484C234.406 105.484 228.508 103.779 224.211 100.367C219.914 96.9297 217.766 92.2161 217.766 86.2266H229.25Z" fill="black"/>
<path d="M430 86.2266C430.365 88.8568 431.081 90.8229 432.148 92.125C434.102 94.4948 437.448 95.6797 442.188 95.6797C445.026 95.6797 447.331 95.3672 449.102 94.7422C452.461 93.5443 454.141 91.3177 454.141 88.0625C454.141 86.1615 453.307 84.6901 451.641 83.6484C449.974 82.6328 447.357 81.7344 443.789 80.9531L437.695 79.5859C431.706 78.2318 427.565 76.7604 425.273 75.1719C421.393 72.5156 419.453 68.362 419.453 62.7109C419.453 57.5547 421.328 53.2708 425.078 49.8594C428.828 46.4479 434.336 44.7422 441.602 44.7422C447.669 44.7422 452.839 46.3568 457.109 49.5859C461.406 52.7891 463.659 57.4505 463.867 63.5703H452.305C452.096 60.1068 450.586 57.6458 447.773 56.1875C445.898 55.224 443.568 54.7422 440.781 54.7422C437.682 54.7422 435.208 55.3672 433.359 56.6172C431.51 57.8672 430.586 59.612 430.586 61.8516C430.586 63.9089 431.497 65.4453 433.32 66.4609C434.492 67.138 436.992 67.9323 440.82 68.8438L450.742 71.2266C455.091 72.2682 458.372 73.6615 460.586 75.4062C464.023 78.1146 465.742 82.0339 465.742 87.1641C465.742 92.4245 463.724 96.7995 459.688 100.289C455.677 103.753 450 105.484 442.656 105.484C435.156 105.484 429.258 103.779 424.961 100.367C420.664 96.9297 418.516 92.2161 418.516 86.2266H430ZM474.844 46.4219H486.68V70.1328L508.906 46.4219H524.453L500.859 70.1328L525.664 104H510.195L492.422 78.8438L486.68 84.7422V104H474.844V46.4219ZM543.477 104H531.523V46.4219H543.477V104ZM554.727 46.4219H566.758V93.6484H595.273V104H554.727V46.4219ZM603.633 46.4219H615.664V93.6484H644.18V104H603.633V46.4219ZM661.25 86.2266C661.615 88.8568 662.331 90.8229 663.398 92.125C665.352 94.4948 668.698 95.6797 673.438 95.6797C676.276 95.6797 678.581 95.3672 680.352 94.7422C683.711 93.5443 685.391 91.3177 685.391 88.0625C685.391 86.1615 684.557 84.6901 682.891 83.6484C681.224 82.6328 678.607 81.7344 675.039 80.9531L668.945 79.5859C662.956 78.2318 658.815 76.7604 656.523 75.1719C652.643 72.5156 650.703 68.362 650.703 62.7109C650.703 57.5547 652.578 53.2708 656.328 49.8594C660.078 46.4479 665.586 44.7422 672.852 44.7422C678.919 44.7422 684.089 46.3568 688.359 49.5859C692.656 52.7891 694.909 57.4505 695.117 63.5703H683.555C683.346 60.1068 681.836 57.6458 679.023 56.1875C677.148 55.224 674.818 54.7422 672.031 54.7422C668.932 54.7422 666.458 55.3672 664.609 56.6172C662.76 57.8672 661.836 59.612 661.836 61.8516C661.836 63.9089 662.747 65.4453 664.57 66.4609C665.742 67.138 668.242 67.9323 672.07 68.8438L681.992 71.2266C686.341 72.2682 689.622 73.6615 691.836 75.4062C695.273 78.1146 696.992 82.0339 696.992 87.1641C696.992 92.4245 694.974 96.7995 690.938 100.289C686.927 103.753 681.25 105.484 673.906 105.484C666.406 105.484 660.508 103.779 656.211 100.367C651.914 96.9297 649.766 92.2161 649.766 86.2266H661.25Z" fill="black"/>
<path d="M848 86.2266C848.365 88.8568 849.081 90.8229 850.148 92.125C852.102 94.4948 855.448 95.6797 860.188 95.6797C863.026 95.6797 865.331 95.3672 867.102 94.7422C870.461 93.5443 872.141 91.3177 872.141 88.0625C872.141 86.1615 871.307 84.6901 869.641 83.6484C867.974 82.6328 865.357 81.7344 861.789 80.9531L855.695 79.5859C849.706 78.2318 845.565 76.7604 843.273 75.1719C839.393 72.5156 837.453 68.362 837.453 62.7109C837.453 57.5547 839.328 53.2708 843.078 49.8594C846.828 46.4479 852.336 44.7422 859.602 44.7422C865.669 44.7422 870.839 46.3568 875.109 49.5859C879.406 52.7891 881.659 57.4505 881.867 63.5703H870.305C870.096 60.1068 868.586 57.6458 865.773 56.1875C863.898 55.224 861.568 54.7422 858.781 54.7422C855.682 54.7422 853.208 55.3672 851.359 56.6172C849.51 57.8672 848.586 59.612 848.586 61.8516C848.586 63.9089 849.497 65.4453 851.32 66.4609C852.492 67.138 854.992 67.9323 858.82 68.8438L868.742 71.2266C873.091 72.2682 876.372 73.6615 878.586 75.4062C882.023 78.1146 883.742 82.0339 883.742 87.1641C883.742 92.4245 881.724 96.7995 877.688 100.289C873.677 103.753 868 105.484 860.656 105.484C853.156 105.484 847.258 103.779 842.961 100.367C838.664 96.9297 836.516 92.2161 836.516 86.2266H848ZM892.844 46.4219H904.68V70.1328L926.906 46.4219H942.453L918.859 70.1328L943.664 104H928.195L910.422 78.8438L904.68 84.7422V104H892.844V46.4219ZM961.477 104H949.523V46.4219H961.477V104ZM972.727 46.4219H984.758V93.6484H1013.27V104H972.727V46.4219ZM1021.63 46.4219H1033.66V93.6484H1062.18V104H1021.63V46.4219ZM1079.25 86.2266C1079.61 88.8568 1080.33 90.8229 1081.4 92.125C1083.35 94.4948 1086.7 95.6797 1091.44 95.6797C1094.28 95.6797 1096.58 95.3672 1098.35 94.7422C1101.71 93.5443 1103.39 91.3177 1103.39 88.0625C1103.39 86.1615 1102.56 84.6901 1100.89 83.6484C1099.22 82.6328 1096.61 81.7344 1093.04 80.9531L1086.95 79.5859C1080.96 78.2318 1076.82 76.7604 1074.52 75.1719C1070.64 72.5156 1068.7 68.362 1068.7 62.7109C1068.7 57.5547 1070.58 53.2708 1074.33 49.8594C1078.08 46.4479 1083.59 44.7422 1090.85 44.7422C1096.92 44.7422 1102.09 46.3568 1106.36 49.5859C1110.66 52.7891 1112.91 57.4505 1113.12 63.5703H1101.55C1101.35 60.1068 1099.84 57.6458 1097.02 56.1875C1095.15 55.224 1092.82 54.7422 1090.03 54.7422C1086.93 54.7422 1084.46 55.3672 1082.61 56.6172C1080.76 57.8672 1079.84 59.612 1079.84 61.8516C1079.84 63.9089 1080.75 65.4453 1082.57 66.4609C1083.74 67.138 1086.24 67.9323 1090.07 68.8438L1099.99 71.2266C1104.34 72.2682 1107.62 73.6615 1109.84 75.4062C1113.27 78.1146 1114.99 82.0339 1114.99 87.1641C1114.99 92.4245 1112.97 96.7995 1108.94 100.289C1104.93 103.753 1099.25 105.484 1091.91 105.484C1084.41 105.484 1078.51 103.779 1074.21 100.367C1069.91 96.9297 1067.77 92.2161 1067.77 86.2266H1079.25Z" fill="black"/>
<path d="M1255 86.2266C1255.36 88.8568 1256.08 90.8229 1257.15 92.125C1259.1 94.4948 1262.45 95.6797 1267.19 95.6797C1270.03 95.6797 1272.33 95.3672 1274.1 94.7422C1277.46 93.5443 1279.14 91.3177 1279.14 88.0625C1279.14 86.1615 1278.31 84.6901 1276.64 83.6484C1274.97 82.6328 1272.36 81.7344 1268.79 80.9531L1262.7 79.5859C1256.71 78.2318 1252.57 76.7604 1250.27 75.1719C1246.39 72.5156 1244.45 68.362 1244.45 62.7109C1244.45 57.5547 1246.33 53.2708 1250.08 49.8594C1253.83 46.4479 1259.34 44.7422 1266.6 44.7422C1272.67 44.7422 1277.84 46.3568 1282.11 49.5859C1286.41 52.7891 1288.66 57.4505 1288.87 63.5703H1277.3C1277.1 60.1068 1275.59 57.6458 1272.77 56.1875C1270.9 55.224 1268.57 54.7422 1265.78 54.7422C1262.68 54.7422 1260.21 55.3672 1258.36 56.6172C1256.51 57.8672 1255.59 59.612 1255.59 61.8516C1255.59 63.9089 1256.5 65.4453 1258.32 66.4609C1259.49 67.138 1261.99 67.9323 1265.82 68.8438L1275.74 71.2266C1280.09 72.2682 1283.37 73.6615 1285.59 75.4062C1289.02 78.1146 1290.74 82.0339 1290.74 87.1641C1290.74 92.4245 1288.72 96.7995 1284.69 100.289C1280.68 103.753 1275 105.484 1267.66 105.484C1260.16 105.484 1254.26 103.779 1249.96 100.367C1245.66 96.9297 1243.52 92.2161 1243.52 86.2266H1255ZM1299.84 46.4219H1311.68V70.1328L1333.91 46.4219H1349.45L1325.86 70.1328L1350.66 104H1335.2L1317.42 78.8438L1311.68 84.7422V104H1299.84V46.4219ZM1368.48 104H1356.52V46.4219H1368.48V104ZM1379.73 46.4219H1391.76V93.6484H1420.27V104H1379.73V46.4219ZM1428.63 46.4219H1440.66V93.6484H1469.18V104H1428.63V46.4219ZM1486.25 86.2266C1486.61 88.8568 1487.33 90.8229 1488.4 92.125C1490.35 94.4948 1493.7 95.6797 1498.44 95.6797C1501.28 95.6797 1503.58 95.3672 1505.35 94.7422C1508.71 93.5443 1510.39 91.3177 1510.39 88.0625C1510.39 86.1615 1509.56 84.6901 1507.89 83.6484C1506.22 82.6328 1503.61 81.7344 1500.04 80.9531L1493.95 79.5859C1487.96 78.2318 1483.82 76.7604 1481.52 75.1719C1477.64 72.5156 1475.7 68.362 1475.7 62.7109C1475.7 57.5547 1477.58 53.2708 1481.33 49.8594C1485.08 46.4479 1490.59 44.7422 1497.85 44.7422C1503.92 44.7422 1509.09 46.3568 1513.36 49.5859C1517.66 52.7891 1519.91 57.4505 1520.12 63.5703H1508.55C1508.35 60.1068 1506.84 57.6458 1504.02 56.1875C1502.15 55.224 1499.82 54.7422 1497.03 54.7422C1493.93 54.7422 1491.46 55.3672 1489.61 56.6172C1487.76 57.8672 1486.84 59.612 1486.84 61.8516C1486.84 63.9089 1487.75 65.4453 1489.57 66.4609C1490.74 67.138 1493.24 67.9323 1497.07 68.8438L1506.99 71.2266C1511.34 72.2682 1514.62 73.6615 1516.84 75.4062C1520.27 78.1146 1521.99 82.0339 1521.99 87.1641C1521.99 92.4245 1519.97 96.7995 1515.94 100.289C1511.93 103.753 1506.25 105.484 1498.91 105.484C1491.41 105.484 1485.51 103.779 1481.21 100.367C1476.91 96.9297 1474.77 92.2161 1474.77 86.2266H1486.25Z" fill="black"/>
<path d="M341.5 45L374.842 102.75H308.158L341.5 45Z" fill="#6000FD"/>
<circle cx="767" cy="77" r="32" fill="#6000FD"/>
<rect x="1153" y="50" width="52" height="52" fill="#6000FD"/>
</g>
<defs>
<clipPath id="clip0_76_195">
<rect width="1457" height="92" fill="white" transform="translate(-17 30)"/>
</clipPath>
</defs>
</svg>
