<svg width="1440" height="166" viewBox="0 0 1440 166" fill="none" xmlns="http://www.w3.org/2000/svg">
<line x1="-50.0014" y1="3.06397" x2="1482" y2="2.00008" stroke="#6000FD" stroke-width="4"/>
<line x1="-50.0014" y1="163.128" x2="1482" y2="162.064" stroke="#6000FD" stroke-width="4"/>
<g clip-path="url(#clip0_76_194)">
<path d="M-20.2969 82.8076C-20.2969 72.7555 -17.6016 65.0081 -12.2109 59.5654C-7.52344 54.8258 -1.5599 52.4561 5.67969 52.4561C15.3672 52.4561 22.4505 55.6331 26.9297 61.9873C29.4036 65.555 30.7318 69.1357 30.9141 72.7295H18.8828C18.1016 69.9691 17.099 67.8857 15.875 66.4795C13.6875 63.9795 10.4453 62.7295 6.14844 62.7295C1.77344 62.7295 -1.67708 64.5003 -4.20312 68.042C-6.72917 71.5576 -7.99219 76.5446 -7.99219 83.0029C-7.99219 89.4613 -6.66406 94.305 -4.00781 97.5342C-1.32552 100.737 2.07292 102.339 6.1875 102.339C10.4062 102.339 13.6224 100.959 15.8359 98.1982C17.0599 96.7139 18.0755 94.4873 18.8828 91.5186H30.7969C29.7552 97.7946 27.0859 102.899 22.7891 106.831C18.5182 110.763 13.0365 112.729 6.34375 112.729C-1.9375 112.729 -8.44792 110.073 -13.1875 104.761C-17.9271 99.4222 -20.2969 92.1045 -20.2969 82.8076ZM65.4844 102.534C70.25 102.534 74.026 100.776 76.8125 97.2607C79.625 93.7451 81.0312 88.7451 81.0312 82.2607C81.0312 75.8024 79.625 70.8154 76.8125 67.2998C74.026 63.7581 70.25 61.9873 65.4844 61.9873C60.7188 61.9873 56.9167 63.7451 54.0781 67.2607C51.2396 70.7764 49.8203 75.7764 49.8203 82.2607C49.8203 88.7451 51.2396 93.7451 54.0781 97.2607C56.9167 100.776 60.7188 102.534 65.4844 102.534ZM93.0625 82.2607C93.0625 92.5993 90.1589 100.516 84.3516 106.011C80.0026 110.49 73.7135 112.729 65.4844 112.729C57.2552 112.729 50.9661 110.49 46.6172 106.011C40.7839 100.516 37.8672 92.5993 37.8672 82.2607C37.8672 71.7139 40.7839 63.7972 46.6172 58.5107C50.9661 54.0316 57.2552 51.792 65.4844 51.792C73.7135 51.792 80.0026 54.0316 84.3516 58.5107C90.1589 63.7972 93.0625 71.7139 93.0625 82.2607ZM102.281 53.5498H114.508V88.9404C114.508 92.8988 114.977 95.7894 115.914 97.6123C117.372 100.841 120.549 102.456 125.445 102.456C130.315 102.456 133.479 100.841 134.938 97.6123C135.875 95.7894 136.344 92.8988 136.344 88.9404V53.5498H148.57V88.9404C148.57 95.0602 147.62 99.8258 145.719 103.237C142.177 109.487 135.419 112.612 125.445 112.612C115.471 112.612 108.701 109.487 105.133 103.237C103.232 99.8258 102.281 95.0602 102.281 88.9404V53.5498ZM172.125 63.5498V79.0186H185.758C188.466 79.0186 190.497 78.7061 191.852 78.0811C194.247 76.9873 195.445 74.8258 195.445 71.5967C195.445 68.1071 194.286 65.7633 191.969 64.5654C190.667 63.8883 188.714 63.5498 186.109 63.5498H172.125ZM188.609 53.5498C192.646 53.6279 195.745 54.1227 197.906 55.0342C200.094 55.9456 201.943 57.2868 203.453 59.0576C204.703 60.516 205.693 62.1305 206.422 63.9014C207.151 65.6722 207.516 67.6904 207.516 69.9561C207.516 72.6904 206.826 75.3857 205.445 78.042C204.065 80.6722 201.786 82.5342 198.609 83.6279C201.266 84.6956 203.141 86.2191 204.234 88.1982C205.354 90.1514 205.914 93.1462 205.914 97.1826V101.05C205.914 103.68 206.018 105.464 206.227 106.401C206.539 107.886 207.268 108.979 208.414 109.683V111.128H195.172C194.807 109.852 194.547 108.823 194.391 108.042C194.078 106.427 193.909 104.774 193.883 103.081L193.805 97.7295C193.753 94.0576 193.076 91.6097 191.773 90.3857C190.497 89.1618 188.089 88.5498 184.547 88.5498H172.125V111.128H160.367V53.5498H188.609ZM226.617 93.3545C226.982 95.9847 227.698 97.9508 228.766 99.2529C230.719 101.623 234.065 102.808 238.805 102.808C241.643 102.808 243.948 102.495 245.719 101.87C249.078 100.672 250.758 98.4456 250.758 95.1904C250.758 93.2894 249.924 91.818 248.258 90.7764C246.591 89.7607 243.974 88.8623 240.406 88.0811L234.312 86.7139C228.323 85.3597 224.182 83.8883 221.891 82.2998C218.01 79.6436 216.07 75.4899 216.07 69.8389C216.07 64.6826 217.945 60.3988 221.695 56.9873C225.445 53.5758 230.953 51.8701 238.219 51.8701C244.286 51.8701 249.456 53.4847 253.727 56.7139C258.023 59.917 260.276 64.5785 260.484 70.6982H248.922C248.714 67.2347 247.203 64.7738 244.391 63.3154C242.516 62.3519 240.185 61.8701 237.398 61.8701C234.299 61.8701 231.826 62.4951 229.977 63.7451C228.128 64.9951 227.203 66.7399 227.203 68.9795C227.203 71.0368 228.115 72.5732 229.938 73.5889C231.109 74.266 233.609 75.0602 237.438 75.9717L247.359 78.3545C251.708 79.3962 254.99 80.7894 257.203 82.5342C260.641 85.2425 262.359 89.1618 262.359 94.292C262.359 99.5524 260.341 103.927 256.305 107.417C252.294 110.881 246.617 112.612 239.273 112.612C231.773 112.612 225.875 110.907 221.578 107.495C217.281 104.058 215.133 99.3441 215.133 93.3545H226.617ZM313.844 63.7451H283.375V75.9717H311.344V85.9717H283.375V100.776H315.25V111.128H271.617V53.5498H313.844V63.7451ZM333.336 93.3545C333.701 95.9847 334.417 97.9508 335.484 99.2529C337.438 101.623 340.784 102.808 345.523 102.808C348.362 102.808 350.667 102.495 352.438 101.87C355.797 100.672 357.477 98.4456 357.477 95.1904C357.477 93.2894 356.643 91.818 354.977 90.7764C353.31 89.7607 350.693 88.8623 347.125 88.0811L341.031 86.7139C335.042 85.3597 330.901 83.8883 328.609 82.2998C324.729 79.6436 322.789 75.4899 322.789 69.8389C322.789 64.6826 324.664 60.3988 328.414 56.9873C332.164 53.5758 337.672 51.8701 344.938 51.8701C351.005 51.8701 356.174 53.4847 360.445 56.7139C364.742 59.917 366.995 64.5785 367.203 70.6982H355.641C355.432 67.2347 353.922 64.7738 351.109 63.3154C349.234 62.3519 346.904 61.8701 344.117 61.8701C341.018 61.8701 338.544 62.4951 336.695 63.7451C334.846 64.9951 333.922 66.7399 333.922 68.9795C333.922 71.0368 334.833 72.5732 336.656 73.5889C337.828 74.266 340.328 75.0602 344.156 75.9717L354.078 78.3545C358.427 79.3962 361.708 80.7894 363.922 82.5342C367.359 85.2425 369.078 89.1618 369.078 94.292C369.078 99.5524 367.06 103.927 363.023 107.417C359.013 110.881 353.336 112.612 345.992 112.612C338.492 112.612 332.594 110.907 328.297 107.495C324 104.058 321.852 99.3441 321.852 93.3545H333.336Z" fill="black"/>
<rect x="400" y="57.1279" width="52" height="52" fill="#6000FD"/>
<path d="M479.703 82.8076C479.703 72.7555 482.398 65.0081 487.789 59.5654C492.477 54.8258 498.44 52.4561 505.68 52.4561C515.367 52.4561 522.451 55.6331 526.93 61.9873C529.404 65.555 530.732 69.1357 530.914 72.7295H518.883C518.102 69.9691 517.099 67.8857 515.875 66.4795C513.688 63.9795 510.445 62.7295 506.148 62.7295C501.773 62.7295 498.323 64.5003 495.797 68.042C493.271 71.5576 492.008 76.5446 492.008 83.0029C492.008 89.4613 493.336 94.305 495.992 97.5342C498.674 100.737 502.073 102.339 506.188 102.339C510.406 102.339 513.622 100.959 515.836 98.1982C517.06 96.7139 518.076 94.4873 518.883 91.5186H530.797C529.755 97.7946 527.086 102.899 522.789 106.831C518.518 110.763 513.036 112.729 506.344 112.729C498.062 112.729 491.552 110.073 486.812 104.761C482.073 99.4222 479.703 92.1045 479.703 82.8076ZM565.484 102.534C570.25 102.534 574.026 100.776 576.812 97.2607C579.625 93.7451 581.031 88.7451 581.031 82.2607C581.031 75.8024 579.625 70.8154 576.812 67.2998C574.026 63.7581 570.25 61.9873 565.484 61.9873C560.719 61.9873 556.917 63.7451 554.078 67.2607C551.24 70.7764 549.82 75.7764 549.82 82.2607C549.82 88.7451 551.24 93.7451 554.078 97.2607C556.917 100.776 560.719 102.534 565.484 102.534ZM593.062 82.2607C593.062 92.5993 590.159 100.516 584.352 106.011C580.003 110.49 573.714 112.729 565.484 112.729C557.255 112.729 550.966 110.49 546.617 106.011C540.784 100.516 537.867 92.5993 537.867 82.2607C537.867 71.7139 540.784 63.7972 546.617 58.5107C550.966 54.0316 557.255 51.792 565.484 51.792C573.714 51.792 580.003 54.0316 584.352 58.5107C590.159 63.7972 593.062 71.7139 593.062 82.2607ZM602.281 53.5498H614.508V88.9404C614.508 92.8988 614.977 95.7894 615.914 97.6123C617.372 100.841 620.549 102.456 625.445 102.456C630.315 102.456 633.479 100.841 634.938 97.6123C635.875 95.7894 636.344 92.8988 636.344 88.9404V53.5498H648.57V88.9404C648.57 95.0602 647.62 99.8258 645.719 103.237C642.177 109.487 635.419 112.612 625.445 112.612C615.471 112.612 608.701 109.487 605.133 103.237C603.232 99.8258 602.281 95.0602 602.281 88.9404V53.5498ZM672.125 63.5498V79.0186H685.758C688.466 79.0186 690.497 78.7061 691.852 78.0811C694.247 76.9873 695.445 74.8258 695.445 71.5967C695.445 68.1071 694.286 65.7633 691.969 64.5654C690.667 63.8883 688.714 63.5498 686.109 63.5498H672.125ZM688.609 53.5498C692.646 53.6279 695.745 54.1227 697.906 55.0342C700.094 55.9456 701.943 57.2868 703.453 59.0576C704.703 60.516 705.693 62.1305 706.422 63.9014C707.151 65.6722 707.516 67.6904 707.516 69.9561C707.516 72.6904 706.826 75.3857 705.445 78.042C704.065 80.6722 701.786 82.5342 698.609 83.6279C701.266 84.6956 703.141 86.2191 704.234 88.1982C705.354 90.1514 705.914 93.1462 705.914 97.1826V101.05C705.914 103.68 706.018 105.464 706.227 106.401C706.539 107.886 707.268 108.979 708.414 109.683V111.128H695.172C694.807 109.852 694.547 108.823 694.391 108.042C694.078 106.427 693.909 104.774 693.883 103.081L693.805 97.7295C693.753 94.0576 693.076 91.6097 691.773 90.3857C690.497 89.1618 688.089 88.5498 684.547 88.5498H672.125V111.128H660.367V53.5498H688.609ZM726.617 93.3545C726.982 95.9847 727.698 97.9508 728.766 99.2529C730.719 101.623 734.065 102.808 738.805 102.808C741.643 102.808 743.948 102.495 745.719 101.87C749.078 100.672 750.758 98.4456 750.758 95.1904C750.758 93.2894 749.924 91.818 748.258 90.7764C746.591 89.7607 743.974 88.8623 740.406 88.0811L734.312 86.7139C728.323 85.3597 724.182 83.8883 721.891 82.2998C718.01 79.6436 716.07 75.4899 716.07 69.8389C716.07 64.6826 717.945 60.3988 721.695 56.9873C725.445 53.5758 730.953 51.8701 738.219 51.8701C744.286 51.8701 749.456 53.4847 753.727 56.7139C758.023 59.917 760.276 64.5785 760.484 70.6982H748.922C748.714 67.2347 747.203 64.7738 744.391 63.3154C742.516 62.3519 740.185 61.8701 737.398 61.8701C734.299 61.8701 731.826 62.4951 729.977 63.7451C728.128 64.9951 727.203 66.7399 727.203 68.9795C727.203 71.0368 728.115 72.5732 729.938 73.5889C731.109 74.266 733.609 75.0602 737.438 75.9717L747.359 78.3545C751.708 79.3962 754.99 80.7894 757.203 82.5342C760.641 85.2425 762.359 89.1618 762.359 94.292C762.359 99.5524 760.341 103.927 756.305 107.417C752.294 110.881 746.617 112.612 739.273 112.612C731.773 112.612 725.875 110.907 721.578 107.495C717.281 104.058 715.133 99.3441 715.133 93.3545H726.617ZM813.844 63.7451H783.375V75.9717H811.344V85.9717H783.375V100.776H815.25V111.128H771.617V53.5498H813.844V63.7451ZM833.336 93.3545C833.701 95.9847 834.417 97.9508 835.484 99.2529C837.438 101.623 840.784 102.808 845.523 102.808C848.362 102.808 850.667 102.495 852.438 101.87C855.797 100.672 857.477 98.4456 857.477 95.1904C857.477 93.2894 856.643 91.818 854.977 90.7764C853.31 89.7607 850.693 88.8623 847.125 88.0811L841.031 86.7139C835.042 85.3597 830.901 83.8883 828.609 82.2998C824.729 79.6436 822.789 75.4899 822.789 69.8389C822.789 64.6826 824.664 60.3988 828.414 56.9873C832.164 53.5758 837.672 51.8701 844.938 51.8701C851.005 51.8701 856.174 53.4847 860.445 56.7139C864.742 59.917 866.995 64.5785 867.203 70.6982H855.641C855.432 67.2347 853.922 64.7738 851.109 63.3154C849.234 62.3519 846.904 61.8701 844.117 61.8701C841.018 61.8701 838.544 62.4951 836.695 63.7451C834.846 64.9951 833.922 66.7399 833.922 68.9795C833.922 71.0368 834.833 72.5732 836.656 73.5889C837.828 74.266 840.328 75.0602 844.156 75.9717L854.078 78.3545C858.427 79.3962 861.708 80.7894 863.922 82.5342C867.359 85.2425 869.078 89.1618 869.078 94.292C869.078 99.5524 867.06 103.927 863.023 107.417C859.013 110.881 853.336 112.612 845.992 112.612C838.492 112.612 832.594 110.907 828.297 107.495C824 104.058 821.852 99.3441 821.852 93.3545H833.336Z" fill="black"/>
<path d="M967.703 82.8076C967.703 72.7555 970.398 65.0081 975.789 59.5654C980.477 54.8258 986.44 52.4561 993.68 52.4561C1003.37 52.4561 1010.45 55.6331 1014.93 61.9873C1017.4 65.555 1018.73 69.1357 1018.91 72.7295H1006.88C1006.1 69.9691 1005.1 67.8857 1003.88 66.4795C1001.69 63.9795 998.445 62.7295 994.148 62.7295C989.773 62.7295 986.323 64.5003 983.797 68.042C981.271 71.5576 980.008 76.5446 980.008 83.0029C980.008 89.4613 981.336 94.305 983.992 97.5342C986.674 100.737 990.073 102.339 994.188 102.339C998.406 102.339 1001.62 100.959 1003.84 98.1982C1005.06 96.7139 1006.08 94.4873 1006.88 91.5186H1018.8C1017.76 97.7946 1015.09 102.899 1010.79 106.831C1006.52 110.763 1001.04 112.729 994.344 112.729C986.062 112.729 979.552 110.073 974.812 104.761C970.073 99.4222 967.703 92.1045 967.703 82.8076ZM1053.48 102.534C1058.25 102.534 1062.03 100.776 1064.81 97.2607C1067.62 93.7451 1069.03 88.7451 1069.03 82.2607C1069.03 75.8024 1067.62 70.8154 1064.81 67.2998C1062.03 63.7581 1058.25 61.9873 1053.48 61.9873C1048.72 61.9873 1044.92 63.7451 1042.08 67.2607C1039.24 70.7764 1037.82 75.7764 1037.82 82.2607C1037.82 88.7451 1039.24 93.7451 1042.08 97.2607C1044.92 100.776 1048.72 102.534 1053.48 102.534ZM1081.06 82.2607C1081.06 92.5993 1078.16 100.516 1072.35 106.011C1068 110.49 1061.71 112.729 1053.48 112.729C1045.26 112.729 1038.97 110.49 1034.62 106.011C1028.78 100.516 1025.87 92.5993 1025.87 82.2607C1025.87 71.7139 1028.78 63.7972 1034.62 58.5107C1038.97 54.0316 1045.26 51.792 1053.48 51.792C1061.71 51.792 1068 54.0316 1072.35 58.5107C1078.16 63.7972 1081.06 71.7139 1081.06 82.2607ZM1090.28 53.5498H1102.51V88.9404C1102.51 92.8988 1102.98 95.7894 1103.91 97.6123C1105.37 100.841 1108.55 102.456 1113.45 102.456C1118.32 102.456 1121.48 100.841 1122.94 97.6123C1123.88 95.7894 1124.34 92.8988 1124.34 88.9404V53.5498H1136.57V88.9404C1136.57 95.0602 1135.62 99.8258 1133.72 103.237C1130.18 109.487 1123.42 112.612 1113.45 112.612C1103.47 112.612 1096.7 109.487 1093.13 103.237C1091.23 99.8258 1090.28 95.0602 1090.28 88.9404V53.5498ZM1160.12 63.5498V79.0186H1173.76C1176.47 79.0186 1178.5 78.7061 1179.85 78.0811C1182.25 76.9873 1183.45 74.8258 1183.45 71.5967C1183.45 68.1071 1182.29 65.7633 1179.97 64.5654C1178.67 63.8883 1176.71 63.5498 1174.11 63.5498H1160.12ZM1176.61 53.5498C1180.65 53.6279 1183.74 54.1227 1185.91 55.0342C1188.09 55.9456 1189.94 57.2868 1191.45 59.0576C1192.7 60.516 1193.69 62.1305 1194.42 63.9014C1195.15 65.6722 1195.52 67.6904 1195.52 69.9561C1195.52 72.6904 1194.83 75.3857 1193.45 78.042C1192.07 80.6722 1189.79 82.5342 1186.61 83.6279C1189.27 84.6956 1191.14 86.2191 1192.23 88.1982C1193.35 90.1514 1193.91 93.1462 1193.91 97.1826V101.05C1193.91 103.68 1194.02 105.464 1194.23 106.401C1194.54 107.886 1195.27 108.979 1196.41 109.683V111.128H1183.17C1182.81 109.852 1182.55 108.823 1182.39 108.042C1182.08 106.427 1181.91 104.774 1181.88 103.081L1181.8 97.7295C1181.75 94.0576 1181.08 91.6097 1179.77 90.3857C1178.5 89.1618 1176.09 88.5498 1172.55 88.5498H1160.12V111.128H1148.37V53.5498H1176.61ZM1214.62 93.3545C1214.98 95.9847 1215.7 97.9508 1216.77 99.2529C1218.72 101.623 1222.07 102.808 1226.8 102.808C1229.64 102.808 1231.95 102.495 1233.72 101.87C1237.08 100.672 1238.76 98.4456 1238.76 95.1904C1238.76 93.2894 1237.92 91.818 1236.26 90.7764C1234.59 89.7607 1231.97 88.8623 1228.41 88.0811L1222.31 86.7139C1216.32 85.3597 1212.18 83.8883 1209.89 82.2998C1206.01 79.6436 1204.07 75.4899 1204.07 69.8389C1204.07 64.6826 1205.95 60.3988 1209.7 56.9873C1213.45 53.5758 1218.95 51.8701 1226.22 51.8701C1232.29 51.8701 1237.46 53.4847 1241.73 56.7139C1246.02 59.917 1248.28 64.5785 1248.48 70.6982H1236.92C1236.71 67.2347 1235.2 64.7738 1232.39 63.3154C1230.52 62.3519 1228.18 61.8701 1225.4 61.8701C1222.3 61.8701 1219.83 62.4951 1217.98 63.7451C1216.13 64.9951 1215.2 66.7399 1215.2 68.9795C1215.2 71.0368 1216.11 72.5732 1217.94 73.5889C1219.11 74.266 1221.61 75.0602 1225.44 75.9717L1235.36 78.3545C1239.71 79.3962 1242.99 80.7894 1245.2 82.5342C1248.64 85.2425 1250.36 89.1618 1250.36 94.292C1250.36 99.5524 1248.34 103.927 1244.3 107.417C1240.29 110.881 1234.62 112.612 1227.27 112.612C1219.77 112.612 1213.88 110.907 1209.58 107.495C1205.28 104.058 1203.13 99.3441 1203.13 93.3545H1214.62ZM1301.84 63.7451H1271.38V75.9717H1299.34V85.9717H1271.38V100.776H1303.25V111.128H1259.62V53.5498H1301.84V63.7451ZM1321.34 93.3545C1321.7 95.9847 1322.42 97.9508 1323.48 99.2529C1325.44 101.623 1328.78 102.808 1333.52 102.808C1336.36 102.808 1338.67 102.495 1340.44 101.87C1343.8 100.672 1345.48 98.4456 1345.48 95.1904C1345.48 93.2894 1344.64 91.818 1342.98 90.7764C1341.31 89.7607 1338.69 88.8623 1335.12 88.0811L1329.03 86.7139C1323.04 85.3597 1318.9 83.8883 1316.61 82.2998C1312.73 79.6436 1310.79 75.4899 1310.79 69.8389C1310.79 64.6826 1312.66 60.3988 1316.41 56.9873C1320.16 53.5758 1325.67 51.8701 1332.94 51.8701C1339.01 51.8701 1344.17 53.4847 1348.45 56.7139C1352.74 59.917 1354.99 64.5785 1355.2 70.6982H1343.64C1343.43 67.2347 1341.92 64.7738 1339.11 63.3154C1337.23 62.3519 1334.9 61.8701 1332.12 61.8701C1329.02 61.8701 1326.54 62.4951 1324.7 63.7451C1322.85 64.9951 1321.92 66.7399 1321.92 68.9795C1321.92 71.0368 1322.83 72.5732 1324.66 73.5889C1325.83 74.266 1328.33 75.0602 1332.16 75.9717L1342.08 78.3545C1346.43 79.3962 1349.71 80.7894 1351.92 82.5342C1355.36 85.2425 1357.08 89.1618 1357.08 94.292C1357.08 99.5524 1355.06 103.927 1351.02 107.417C1347.01 110.881 1341.34 112.612 1333.99 112.612C1326.49 112.612 1320.59 110.907 1316.3 107.495C1312 104.058 1309.85 99.3441 1309.85 93.3545H1321.34Z" fill="black"/>
<path d="M925.5 52.1279L958.842 109.878H892.158L925.5 52.1279Z" fill="#6000FD"/>
<circle cx="1407" cy="84.1279" r="32" fill="#6000FD"/>
</g>
<defs>
<clipPath id="clip0_76_194">
<rect width="1497" height="92" fill="white" transform="translate(-37 37.064)"/>
</clipPath>
</defs>
</svg>
