<?xml version="1.0" encoding="UTF-8"?>
<svg id="Layer_1" data-name="Layer 1" xmlns="http://www.w3.org/2000/svg" viewBox="0 0 1920 163.73">
  <defs>
    <style>
      .cls-1 {
        fill: none;
        stroke: #6000fd;
        stroke-miterlimit: 10;
        stroke-width: 5px;
      }
    </style>
  </defs>
  <path class="cls-1" d="m0,41.02c42.17,0,42.17,78,84.33,78s42.17-78,84.34-78,42.17,78,84.33,78,42.17-78,84.34-78,42.17,78,84.34,78,42.17-78,84.34-78,42.17,78,84.34,78,42.17-78,84.34-78,42.17,78,84.34,78,42.17-78,84.34-78,42.17,78,84.34,78,42.17-78,84.33-78,42.17,78,84.33,78,42.17-78,84.34-78,42.17,78,84.34,78,42.17-78,84.34-78,42.17,78,84.34,78,42.17-78,84.34-78,42.17,78,84.34,78,42.17-78,84.34-78,42.17,78,84.34,78,42.17-78,84.35-78,42.17,78,84.35,78"/>
</svg>