<?xml version="1.0" encoding="UTF-8"?>
<svg id="Layer_1" data-name="Layer 1" xmlns="http://www.w3.org/2000/svg" viewBox="0 0 1127.93 1080">
  <defs>
    <style>
      .cls-1 {
        fill: #6000fd;
        stroke-width: 0px;
      }
    </style>
  </defs>
  <path class="cls-1" d="m1048.42,546.21c0,33.89-122.55,53.56-129.76,85.27-7.44,32.74,94.27,103.55,80.01,133.09s-133.39-5.47-153.98,20.32c-20.69,25.92,40.26,133.96,14.34,154.65-25.79,20.59-117.57-62.76-147.6-48.28s-21.45,138.09-54.19,145.54c-31.71,7.21-78.03-107.74-111.92-107.74s-80.22,114.94-111.92,107.74c-32.74-7.44-24.65-131.29-54.19-145.54-30.03-14.49-121.81,68.87-147.6,48.28-25.92-20.69,35.04-128.73,14.34-154.65-20.59-25.79-139.5,9.71-153.98-20.32-14.25-29.54,87.46-100.35,80.02-133.09-7.21-31.71-129.76-51.38-129.76-85.27s122.55-53.56,129.76-85.27c7.44-32.74-94.27-103.55-80.01-133.09,14.49-30.03,133.39,5.47,153.98-20.32,20.69-25.92-40.26-133.96-14.34-154.65,25.79-20.59,117.57,62.76,147.6,48.28,29.54-14.25,21.45-138.09,54.19-145.54s78.03,107.74,111.92,107.74,80.22-114.94,111.92-107.74c32.74,7.44,24.65,131.29,54.19,145.54,30.03,14.49,121.81-68.87,147.6-48.28,25.92,20.69-35.04,128.73-14.34,154.65,20.59,25.79,139.5-9.71,153.98,20.32,14.25,29.54-87.46,100.35-80.02,133.09,7.21,31.71,129.76,51.38,129.76,85.27Z"/>
</svg>