<svg width="1440" height="92" viewBox="0 0 1440 92" fill="none" xmlns="http://www.w3.org/2000/svg">
<g clip-path="url(#clip0_17_601)">
<path d="M32.4609 74H21.25V16.4219H38.75L49.2188 61.6953L59.6094 16.4219H76.9141V74H65.7031V35.0547C65.7031 33.9349 65.7161 32.3724 65.7422 30.3672C65.7682 28.3359 65.7812 26.7734 65.7812 25.6797L54.8828 74H43.2031L32.3828 25.6797C32.3828 26.7734 32.3958 28.3359 32.4219 30.3672C32.4479 32.3724 32.4609 33.9349 32.4609 35.0547V74ZM134.57 16.4219L115.312 52.3594V74H103.281V52.3594L83.3594 16.4219H97.5391L109.492 41.5L120.938 16.4219H134.57ZM218.32 16.4219H230.547L214.336 74H202.852L195.898 40.3281L193.867 29.1953L191.836 40.3281L184.883 74H173.711L157.383 16.4219H170.156L177.773 49.3906L179.414 58.5703L181.094 49.5859L187.578 16.4219H200.273L207.109 49.3906L208.867 58.5703L210.625 49.7422L218.32 16.4219ZM263.32 75.6016C255.091 75.6016 248.802 73.362 244.453 68.8828C238.62 63.388 235.703 55.4714 235.703 45.1328C235.703 34.5859 238.62 26.6693 244.453 21.3828C248.802 16.9036 255.091 14.6641 263.32 14.6641C271.549 14.6641 277.839 16.9036 282.188 21.3828C287.995 26.6693 290.898 34.5859 290.898 45.1328C290.898 55.4714 287.995 63.388 282.188 68.8828C277.839 73.362 271.549 75.6016 263.32 75.6016ZM274.688 60.1328C277.474 56.6172 278.867 51.6172 278.867 45.1328C278.867 38.6745 277.461 33.6875 274.648 30.1719C271.862 26.6302 268.086 24.8594 263.32 24.8594C258.555 24.8594 254.753 26.6172 251.914 30.1328C249.076 33.6484 247.656 38.6484 247.656 45.1328C247.656 51.6172 249.076 56.6172 251.914 60.1328C254.753 63.6484 258.555 65.4062 263.32 65.4062C268.086 65.4062 271.875 63.6484 274.688 60.1328ZM324.57 51.4219H312.148V74H300.391V16.4219H328.633C332.669 16.5 335.768 16.9948 337.93 17.9062C340.117 18.8177 341.966 20.1589 343.477 21.9297C344.727 23.388 345.716 25.0026 346.445 26.7734C347.174 28.5443 347.539 30.5625 347.539 32.8281C347.539 35.5625 346.849 38.2578 345.469 40.9141C344.089 43.5443 341.81 45.4062 338.633 46.5C341.289 47.5677 343.164 49.0911 344.258 51.0703C345.378 53.0234 345.938 56.0182 345.938 60.0547V63.9219C345.938 66.5521 346.042 68.3359 346.25 69.2734C346.562 70.7578 347.292 71.8516 348.438 72.5547V74H335.195C334.831 72.724 334.57 71.6953 334.414 70.9141C334.102 69.2995 333.932 67.6458 333.906 65.9531L333.828 60.6016C333.776 56.9297 333.099 54.4818 331.797 53.2578C330.521 52.0339 328.112 51.4219 324.57 51.4219ZM331.875 40.9531C334.271 39.8594 335.469 37.6979 335.469 34.4688C335.469 30.9792 334.31 28.6354 331.992 27.4375C330.69 26.7604 328.737 26.4219 326.133 26.4219H312.148V41.8906H325.781C328.49 41.8906 330.521 41.5781 331.875 40.9531ZM408.945 74H393.477L375.703 48.8438L369.961 54.7422V74H358.125V16.4219H369.961V40.1328L392.188 16.4219H407.734L384.141 40.1328L408.945 74Z" fill="black"/>
<path d="M554.461 74H543.25V16.4219H560.75L571.219 61.6953L581.609 16.4219H598.914V74H587.703V35.0547C587.703 33.9349 587.716 32.3724 587.742 30.3672C587.768 28.3359 587.781 26.7734 587.781 25.6797L576.883 74H565.203L554.383 25.6797C554.383 26.7734 554.396 28.3359 554.422 30.3672C554.448 32.3724 554.461 33.9349 554.461 35.0547V74ZM656.57 16.4219L637.312 52.3594V74H625.281V52.3594L605.359 16.4219H619.539L631.492 41.5L642.938 16.4219H656.57ZM740.32 16.4219H752.547L736.336 74H724.852L717.898 40.3281L715.867 29.1953L713.836 40.3281L706.883 74H695.711L679.383 16.4219H692.156L699.773 49.3906L701.414 58.5703L703.094 49.5859L709.578 16.4219H722.273L729.109 49.3906L730.867 58.5703L732.625 49.7422L740.32 16.4219ZM785.32 75.6016C777.091 75.6016 770.802 73.362 766.453 68.8828C760.62 63.388 757.703 55.4714 757.703 45.1328C757.703 34.5859 760.62 26.6693 766.453 21.3828C770.802 16.9036 777.091 14.6641 785.32 14.6641C793.549 14.6641 799.839 16.9036 804.188 21.3828C809.995 26.6693 812.898 34.5859 812.898 45.1328C812.898 55.4714 809.995 63.388 804.188 68.8828C799.839 73.362 793.549 75.6016 785.32 75.6016ZM796.688 60.1328C799.474 56.6172 800.867 51.6172 800.867 45.1328C800.867 38.6745 799.461 33.6875 796.648 30.1719C793.862 26.6302 790.086 24.8594 785.32 24.8594C780.555 24.8594 776.753 26.6172 773.914 30.1328C771.076 33.6484 769.656 38.6484 769.656 45.1328C769.656 51.6172 771.076 56.6172 773.914 60.1328C776.753 63.6484 780.555 65.4062 785.32 65.4062C790.086 65.4062 793.875 63.6484 796.688 60.1328ZM846.57 51.4219H834.148V74H822.391V16.4219H850.633C854.669 16.5 857.768 16.9948 859.93 17.9062C862.117 18.8177 863.966 20.1589 865.477 21.9297C866.727 23.388 867.716 25.0026 868.445 26.7734C869.174 28.5443 869.539 30.5625 869.539 32.8281C869.539 35.5625 868.849 38.2578 867.469 40.9141C866.089 43.5443 863.81 45.4062 860.633 46.5C863.289 47.5677 865.164 49.0911 866.258 51.0703C867.378 53.0234 867.938 56.0182 867.938 60.0547V63.9219C867.938 66.5521 868.042 68.3359 868.25 69.2734C868.562 70.7578 869.292 71.8516 870.438 72.5547V74H857.195C856.831 72.724 856.57 71.6953 856.414 70.9141C856.102 69.2995 855.932 67.6458 855.906 65.9531L855.828 60.6016C855.776 56.9297 855.099 54.4818 853.797 53.2578C852.521 52.0339 850.112 51.4219 846.57 51.4219ZM853.875 40.9531C856.271 39.8594 857.469 37.6979 857.469 34.4688C857.469 30.9792 856.31 28.6354 853.992 27.4375C852.69 26.7604 850.737 26.4219 848.133 26.4219H834.148V41.8906H847.781C850.49 41.8906 852.521 41.5781 853.875 40.9531ZM930.945 74H915.477L897.703 48.8438L891.961 54.7422V74H880.125V16.4219H891.961V40.1328L914.188 16.4219H929.734L906.141 40.1328L930.945 74Z" fill="black"/>
<path d="M1053.46 74H1042.25V16.4219H1059.75L1070.22 61.6953L1080.61 16.4219H1097.91V74H1086.7V35.0547C1086.7 33.9349 1086.72 32.3724 1086.74 30.3672C1086.77 28.3359 1086.78 26.7734 1086.78 25.6797L1075.88 74H1064.2L1053.38 25.6797C1053.38 26.7734 1053.4 28.3359 1053.42 30.3672C1053.45 32.3724 1053.46 33.9349 1053.46 35.0547V74ZM1155.57 16.4219L1136.31 52.3594V74H1124.28V52.3594L1104.36 16.4219H1118.54L1130.49 41.5L1141.94 16.4219H1155.57ZM1239.32 16.4219H1251.55L1235.34 74H1223.85L1216.9 40.3281L1214.87 29.1953L1212.84 40.3281L1205.88 74H1194.71L1178.38 16.4219H1191.16L1198.77 49.3906L1200.41 58.5703L1202.09 49.5859L1208.58 16.4219H1221.27L1228.11 49.3906L1229.87 58.5703L1231.62 49.7422L1239.32 16.4219ZM1284.32 75.6016C1276.09 75.6016 1269.8 73.362 1265.45 68.8828C1259.62 63.388 1256.7 55.4714 1256.7 45.1328C1256.7 34.5859 1259.62 26.6693 1265.45 21.3828C1269.8 16.9036 1276.09 14.6641 1284.32 14.6641C1292.55 14.6641 1298.84 16.9036 1303.19 21.3828C1308.99 26.6693 1311.9 34.5859 1311.9 45.1328C1311.9 55.4714 1308.99 63.388 1303.19 68.8828C1298.84 73.362 1292.55 75.6016 1284.32 75.6016ZM1295.69 60.1328C1298.47 56.6172 1299.87 51.6172 1299.87 45.1328C1299.87 38.6745 1298.46 33.6875 1295.65 30.1719C1292.86 26.6302 1289.09 24.8594 1284.32 24.8594C1279.55 24.8594 1275.75 26.6172 1272.91 30.1328C1270.08 33.6484 1268.66 38.6484 1268.66 45.1328C1268.66 51.6172 1270.08 56.6172 1272.91 60.1328C1275.75 63.6484 1279.55 65.4062 1284.32 65.4062C1289.09 65.4062 1292.88 63.6484 1295.69 60.1328ZM1345.57 51.4219H1333.15V74H1321.39V16.4219H1349.63C1353.67 16.5 1356.77 16.9948 1358.93 17.9062C1361.12 18.8177 1362.97 20.1589 1364.48 21.9297C1365.73 23.388 1366.72 25.0026 1367.45 26.7734C1368.17 28.5443 1368.54 30.5625 1368.54 32.8281C1368.54 35.5625 1367.85 38.2578 1366.47 40.9141C1365.09 43.5443 1362.81 45.4062 1359.63 46.5C1362.29 47.5677 1364.16 49.0911 1365.26 51.0703C1366.38 53.0234 1366.94 56.0182 1366.94 60.0547V63.9219C1366.94 66.5521 1367.04 68.3359 1367.25 69.2734C1367.56 70.7578 1368.29 71.8516 1369.44 72.5547V74H1356.2C1355.83 72.724 1355.57 71.6953 1355.41 70.9141C1355.1 69.2995 1354.93 67.6458 1354.91 65.9531L1354.83 60.6016C1354.78 56.9297 1354.1 54.4818 1352.8 53.2578C1351.52 52.0339 1349.11 51.4219 1345.57 51.4219ZM1352.88 40.9531C1355.27 39.8594 1356.47 37.6979 1356.47 34.4688C1356.47 30.9792 1355.31 28.6354 1352.99 27.4375C1351.69 26.7604 1349.74 26.4219 1347.13 26.4219H1333.15V41.8906H1346.78C1349.49 41.8906 1351.52 41.5781 1352.88 40.9531ZM1429.95 74H1414.48L1396.7 48.8438L1390.96 54.7422V74H1379.12V16.4219H1390.96V40.1328L1413.19 16.4219H1428.73L1405.14 40.1328L1429.95 74Z" fill="black"/>
<path d="M473.5 15L506.842 72.75H440.158L473.5 15Z" fill="#6000FD"/>
<circle cx="984" cy="47" r="32" fill="#6000FD"/>
</g>
<defs>
<clipPath id="clip0_17_601">
<rect width="1465" height="92" fill="white" transform="translate(-15)"/>
</clipPath>
</defs>
</svg>
