<?xml version="1.0" encoding="UTF-8"?>
<svg id="Layer_1" data-name="Layer 1" xmlns="http://www.w3.org/2000/svg" viewBox="0 0 200 200">
  <defs>
    <style>
      .cls-1 {
        fill: #fff;
        stroke-width: 0px;
      }
    </style>
  </defs>
  <path class="cls-1" d="m141.63,189.56c-6.65-1.07-12.87-1.5-18.24-1.5-17.37,0-28.53,4.08-28.53,4.08,0-11.46-1.2-23.62.36-34.95.9-6.54,3.64-12.78,8.44-17.39,5.36-5.36,12.66-8.8,20.81-8.8,1.49,0,21.45.65,31.1,32.4.43,1.28.86,2.35,1.29,3.43,2.14,5.15,6.44,7.29,10.94,7.29,7.29,0,15.02-5.79,15.02-13.73,0-1.5-.21-3.01-.86-4.72-2.15-5.58-6.44-12.01-11.16-17.59-36.47-42.9-47.19-42.26-61.14-72.51-4.72-10.29-6-20.38-6-28.32,0-10.86,5.41-23.08,15.79-27.68,5.04-2.23,10.18-1.7,15.53-1.7h37.54s-18.66,21.46-18.66,62.42c0,4.3.21,8.8.65,13.52,1.07,11.16,4.72,23.38,13.3,34.96,12.23,16.3,21.46,29.82,26.18,43.76.86,2.36,1.07,4.72,1.07,6.87,0,12.23-9.87,22.74-22.74,22.74-10.3,0-20.6-1.07-30.68-2.57Z"/>
  <path class="cls-1" d="m46.72,63.8c4.29,9.87,11.16,18.45,19.31,26.81,7.94,7.94,18.45,11.8,29.39,11.8,6.84,0,13.79-1.66,20.23-4.55-.3.14-6.42-9.3-7.03-10.19-6.86-10.09-14.34-20.41-18.33-32.04-2.51-7.33-4.08-15.16-3.36-22.93.74-7.99,3.19-15.59,7.23-22.53.49-.84,1.69-2.07,1.91-3.01h-35.1c-5.52,0-11.34-.09-16.78,1.45-5.68,1.6-11.37,4.94-16.06,8.48-4.73,3.57-8.76,8.04-11.52,13.31-6.75,12.87-4.97,29.16-5.03,43.16-.07,15.91.66,31.53,1.82,47.37,1.7,23.31,2.02,50.3-8.43,71.9h39.05c8.15,0,20.17-9.87,24.02-18.45,2.57-5.58,5.15-14.15,5.15-24.02,0-15.02-5.8-33.47-25.53-51.06-6.48-5.78-13.09-11.86-17.21-19.65-4.09-7.72-5.93-16.54-6.11-25.23-.24-11.76.97-27.59,11.83-34.5,1.36-.88,2.81-1.64,4.3-2.28.69-.3,4.54-1.17,4.77-1.68,0,0-4.08,9.01-4.08,22.09,0,7.51,1.5,16.52,5.58,25.74Z"/>
</svg>