<svg width="208" height="67" viewBox="0 0 208 67" fill="none" xmlns="http://www.w3.org/2000/svg">
<path d="M17 2V0L13 0V2L17 2ZM13.5858 66.4142C14.3668 67.1953 15.6332 67.1953 16.4142 66.4142L29.1421 53.6863C29.9232 52.9052 29.9232 51.6389 29.1421 50.8579C28.3611 50.0768 27.0948 50.0768 26.3137 50.8579L15 62.1716L3.68629 50.8579C2.90524 50.0768 1.63891 50.0768 0.857864 50.8579C0.0768156 51.6389 0.0768156 52.9052 0.857864 53.6863L13.5858 66.4142ZM13 2L13 65H17L17 2L13 2Z" fill="white"/>
<path d="M106 2V0H102V2H106ZM102.586 66.4142C103.367 67.1953 104.633 67.1953 105.414 66.4142L118.142 53.6863C118.923 52.9052 118.923 51.6389 118.142 50.8579C117.361 50.0768 116.095 50.0768 115.314 50.8579L104 62.1716L92.6863 50.8579C91.9052 50.0768 90.6389 50.0768 89.8579 50.8579C89.0768 51.6389 89.0768 52.9052 89.8579 53.6863L102.586 66.4142ZM102 2V65H106V2H102Z" fill="white"/>
<path d="M195 2V0H191V2H195ZM191.586 66.4142C192.367 67.1953 193.633 67.1953 194.414 66.4142L207.142 53.6863C207.923 52.9052 207.923 51.6389 207.142 50.8579C206.361 50.0768 205.095 50.0768 204.314 50.8579L193 62.1716L181.686 50.8579C180.905 50.0768 179.639 50.0768 178.858 50.8579C178.077 51.6389 178.077 52.9052 178.858 53.6863L191.586 66.4142ZM191 2V65H195V2H191Z" fill="white"/>
</svg>
