<svg width="159" height="51" viewBox="0 0 159 51" fill="none" xmlns="http://www.w3.org/2000/svg">
<path d="M17.2466 2.73682V0.736816L13.2466 0.736816V2.73682H17.2466ZM13.8324 49.4707C14.6134 50.2517 15.8797 50.2517 16.6608 49.4707L29.3887 36.7427C30.1698 35.9617 30.1698 34.6954 29.3887 33.9143C28.6077 33.1333 27.3413 33.1333 26.5603 33.9143L15.2466 45.228L3.93287 33.9143C3.15182 33.1333 1.8855 33.1333 1.10445 33.9143C0.323398 34.6954 0.323398 35.9617 1.10445 36.7427L13.8324 49.4707ZM13.2466 2.73682L13.2466 48.0565H17.2466L17.2466 2.73682H13.2466Z" fill="#6000FD"/>
<path d="M81.2693 2.73682V0.736816H77.2693V2.73682H81.2693ZM77.8551 49.4707C78.6361 50.2517 79.9025 50.2517 80.6835 49.4707L93.4114 36.7427C94.1925 35.9617 94.1925 34.6954 93.4114 33.9143C92.6304 33.1333 91.364 33.1333 90.583 33.9143L79.2693 45.228L67.9556 33.9143C67.1745 33.1333 65.9082 33.1333 65.1272 33.9143C64.3461 34.6954 64.3461 35.9617 65.1272 36.7427L77.8551 49.4707ZM77.2693 2.73682V48.0565H81.2693V2.73682H77.2693Z" fill="#6000FD"/>
<path d="M145.292 2.73682V0.736816H141.292V2.73682H145.292ZM141.878 49.4707C142.659 50.2517 143.926 50.2517 144.707 49.4707L157.435 36.7427C158.216 35.9617 158.216 34.6954 157.435 33.9143C156.654 33.1333 155.387 33.1333 154.606 33.9143L143.292 45.228L131.979 33.9143C131.198 33.1333 129.931 33.1333 129.15 33.9143C128.369 34.6954 128.369 35.9617 129.15 36.7427L141.878 49.4707ZM141.292 2.73682V48.0565H145.292V2.73682H141.292Z" fill="#6000FD"/>
</svg>
