<svg width="1440" height="166" viewBox="0 0 1440 166" fill="none" xmlns="http://www.w3.org/2000/svg">
<line x1="-22.0014" y1="3.06384" x2="1510" y2="1.99995" stroke="#6000FD" stroke-width="4"/>
<line x1="-22.0014" y1="163.128" x2="1510" y2="162.064" stroke="#6000FD" stroke-width="4"/>
<g clip-path="url(#clip0_96_157)">
<path d="M17.0703 61.4219V74.1172H31.2109C33.737 74.1172 35.7812 73.6484 37.3438 72.7109C38.9323 71.7474 39.7266 70.0547 39.7266 67.6328C39.7266 64.9505 38.6849 63.1797 36.6016 62.3203C34.8047 61.7214 32.513 61.4219 29.7266 61.4219H17.0703ZM17.0703 83.6484V99H31.2109C33.737 99 35.7031 98.6615 37.1094 97.9844C39.6615 96.7344 40.9375 94.3385 40.9375 90.7969C40.9375 87.8021 39.7005 85.7448 37.2266 84.625C35.8464 84 33.9062 83.6745 31.4062 83.6484H17.0703ZM33.5547 51.4219C40.612 51.526 45.612 53.5703 48.5547 57.5547C50.3255 60.0026 51.2109 62.9323 51.2109 66.3438C51.2109 69.8594 50.3255 72.6849 48.5547 74.8203C47.5651 76.0182 46.1068 77.112 44.1797 78.1016C47.1224 79.1693 49.3359 80.862 50.8203 83.1797C52.3307 85.4974 53.0859 88.3099 53.0859 91.6172C53.0859 95.0286 52.2266 98.0885 50.5078 100.797C49.4141 102.594 48.0469 104.104 46.4062 105.328C44.5573 106.734 42.3698 107.698 39.8438 108.219C37.3438 108.74 34.6224 109 31.6797 109H5.58594V51.4219H33.5547ZM75.2344 61.4219V76.8906H88.8672C91.5755 76.8906 93.6068 76.5781 94.9609 75.9531C97.3568 74.8594 98.5547 72.6979 98.5547 69.4688C98.5547 65.9792 97.3958 63.6354 95.0781 62.4375C93.776 61.7604 91.8229 61.4219 89.2188 61.4219H75.2344ZM91.7188 51.4219C95.7552 51.5 98.8542 51.9948 101.016 52.9062C103.203 53.8177 105.052 55.1589 106.562 56.9297C107.812 58.388 108.802 60.0026 109.531 61.7734C110.26 63.5443 110.625 65.5625 110.625 67.8281C110.625 70.5625 109.935 73.2578 108.555 75.9141C107.174 78.5443 104.896 80.4062 101.719 81.5C104.375 82.5677 106.25 84.0911 107.344 86.0703C108.464 88.0234 109.023 91.0182 109.023 95.0547V98.9219C109.023 101.552 109.128 103.336 109.336 104.273C109.648 105.758 110.378 106.852 111.523 107.555V109H98.2812C97.9167 107.724 97.6562 106.695 97.5 105.914C97.1875 104.299 97.0182 102.646 96.9922 100.953L96.9141 95.6016C96.862 91.9297 96.1849 89.4818 94.8828 88.2578C93.6068 87.0339 91.1979 86.4219 87.6562 86.4219H75.2344V109H63.4766V51.4219H91.7188ZM136.758 87.2422H151.367L144.18 64.5859L136.758 87.2422ZM137.5 51.4219H151.094L171.484 109H158.438L154.727 97.1641H133.516L129.531 109H116.953L137.5 51.4219ZM178.633 51.4219H191.25L214.18 91.6172V51.4219H225.391V109H213.359L189.844 68.1016V109H178.633V51.4219ZM248.32 61.4219V99H259.414C265.091 99 269.049 96.2005 271.289 90.6016C272.513 87.5286 273.125 83.8698 273.125 79.625C273.125 73.7656 272.201 69.2734 270.352 66.1484C268.529 62.9974 264.883 61.4219 259.414 61.4219H248.32ZM261.445 51.4219C265.013 51.474 267.982 51.8906 270.352 52.6719C274.388 54 277.656 56.4349 280.156 59.9766C282.161 62.8411 283.529 65.9401 284.258 69.2734C284.987 72.6068 285.352 75.7839 285.352 78.8047C285.352 86.4609 283.815 92.9453 280.742 98.2578C276.576 105.419 270.143 109 261.445 109H236.641V51.4219H261.445ZM305.469 109H293.516V51.4219H305.469V109ZM316.523 51.4219H329.141L352.07 91.6172V51.4219H363.281V109H351.25L327.734 68.1016V109H316.523V51.4219ZM413.242 69.3906C412.331 65.4583 410.104 62.7109 406.562 61.1484C404.583 60.2891 402.383 59.8594 399.961 59.8594C395.326 59.8594 391.51 61.6172 388.516 65.1328C385.547 68.6224 384.062 73.8828 384.062 80.9141C384.062 87.9974 385.677 93.0104 388.906 95.9531C392.135 98.8958 395.807 100.367 399.922 100.367C403.958 100.367 407.266 99.2083 409.844 96.8906C412.422 94.5469 414.01 91.487 414.609 87.7109H401.289V78.1016H425.273V109H417.305L416.094 101.812C413.776 104.547 411.693 106.474 409.844 107.594C406.667 109.547 402.76 110.523 398.125 110.523C390.495 110.523 384.245 107.88 379.375 102.594C374.297 97.2812 371.758 90.0156 371.758 80.7969C371.758 71.474 374.323 64 379.453 58.375C384.583 52.75 391.367 49.9375 399.805 49.9375C407.122 49.9375 412.995 51.7995 417.422 55.5234C421.875 59.2214 424.427 63.8438 425.078 69.3906H413.242Z" fill="black"/>
<path d="M560.07 61.4219V74.1172H574.211C576.737 74.1172 578.781 73.6484 580.344 72.7109C581.932 71.7474 582.727 70.0547 582.727 67.6328C582.727 64.9505 581.685 63.1797 579.602 62.3203C577.805 61.7214 575.513 61.4219 572.727 61.4219H560.07ZM560.07 83.6484V99H574.211C576.737 99 578.703 98.6615 580.109 97.9844C582.661 96.7344 583.938 94.3385 583.938 90.7969C583.938 87.8021 582.701 85.7448 580.227 84.625C578.846 84 576.906 83.6745 574.406 83.6484H560.07ZM576.555 51.4219C583.612 51.526 588.612 53.5703 591.555 57.5547C593.326 60.0026 594.211 62.9323 594.211 66.3438C594.211 69.8594 593.326 72.6849 591.555 74.8203C590.565 76.0182 589.107 77.112 587.18 78.1016C590.122 79.1693 592.336 80.862 593.82 83.1797C595.331 85.4974 596.086 88.3099 596.086 91.6172C596.086 95.0286 595.227 98.0885 593.508 100.797C592.414 102.594 591.047 104.104 589.406 105.328C587.557 106.734 585.37 107.698 582.844 108.219C580.344 108.74 577.622 109 574.68 109H548.586V51.4219H576.555ZM618.234 61.4219V76.8906H631.867C634.576 76.8906 636.607 76.5781 637.961 75.9531C640.357 74.8594 641.555 72.6979 641.555 69.4688C641.555 65.9792 640.396 63.6354 638.078 62.4375C636.776 61.7604 634.823 61.4219 632.219 61.4219H618.234ZM634.719 51.4219C638.755 51.5 641.854 51.9948 644.016 52.9062C646.203 53.8177 648.052 55.1589 649.562 56.9297C650.812 58.388 651.802 60.0026 652.531 61.7734C653.26 63.5443 653.625 65.5625 653.625 67.8281C653.625 70.5625 652.935 73.2578 651.555 75.9141C650.174 78.5443 647.896 80.4062 644.719 81.5C647.375 82.5677 649.25 84.0911 650.344 86.0703C651.464 88.0234 652.023 91.0182 652.023 95.0547V98.9219C652.023 101.552 652.128 103.336 652.336 104.273C652.648 105.758 653.378 106.852 654.523 107.555V109H641.281C640.917 107.724 640.656 106.695 640.5 105.914C640.188 104.299 640.018 102.646 639.992 100.953L639.914 95.6016C639.862 91.9297 639.185 89.4818 637.883 88.2578C636.607 87.0339 634.198 86.4219 630.656 86.4219H618.234V109H606.477V51.4219H634.719ZM679.758 87.2422H694.367L687.18 64.5859L679.758 87.2422ZM680.5 51.4219H694.094L714.484 109H701.438L697.727 97.1641H676.516L672.531 109H659.953L680.5 51.4219ZM721.633 51.4219H734.25L757.18 91.6172V51.4219H768.391V109H756.359L732.844 68.1016V109H721.633V51.4219ZM791.32 61.4219V99H802.414C808.091 99 812.049 96.2005 814.289 90.6016C815.513 87.5286 816.125 83.8698 816.125 79.625C816.125 73.7656 815.201 69.2734 813.352 66.1484C811.529 62.9974 807.883 61.4219 802.414 61.4219H791.32ZM804.445 51.4219C808.013 51.474 810.982 51.8906 813.352 52.6719C817.388 54 820.656 56.4349 823.156 59.9766C825.161 62.8411 826.529 65.9401 827.258 69.2734C827.987 72.6068 828.352 75.7839 828.352 78.8047C828.352 86.4609 826.815 92.9453 823.742 98.2578C819.576 105.419 813.143 109 804.445 109H779.641V51.4219H804.445ZM848.469 109H836.516V51.4219H848.469V109ZM859.523 51.4219H872.141L895.07 91.6172V51.4219H906.281V109H894.25L870.734 68.1016V109H859.523V51.4219ZM956.242 69.3906C955.331 65.4583 953.104 62.7109 949.562 61.1484C947.583 60.2891 945.383 59.8594 942.961 59.8594C938.326 59.8594 934.51 61.6172 931.516 65.1328C928.547 68.6224 927.062 73.8828 927.062 80.9141C927.062 87.9974 928.677 93.0104 931.906 95.9531C935.135 98.8958 938.807 100.367 942.922 100.367C946.958 100.367 950.266 99.2083 952.844 96.8906C955.422 94.5469 957.01 91.487 957.609 87.7109H944.289V78.1016H968.273V109H960.305L959.094 101.812C956.776 104.547 954.693 106.474 952.844 107.594C949.667 109.547 945.76 110.523 941.125 110.523C933.495 110.523 927.245 107.88 922.375 102.594C917.297 97.2812 914.758 90.0156 914.758 80.7969C914.758 71.474 917.323 64 922.453 58.375C927.583 52.75 934.367 49.9375 942.805 49.9375C950.122 49.9375 955.995 51.7995 960.422 55.5234C964.875 59.2214 967.427 63.8438 968.078 69.3906H956.242Z" fill="black"/>
<path d="M1092.07 61.4219V74.1172H1106.21C1108.74 74.1172 1110.78 73.6484 1112.34 72.7109C1113.93 71.7474 1114.73 70.0547 1114.73 67.6328C1114.73 64.9505 1113.68 63.1797 1111.6 62.3203C1109.8 61.7214 1107.51 61.4219 1104.73 61.4219H1092.07ZM1092.07 83.6484V99H1106.21C1108.74 99 1110.7 98.6615 1112.11 97.9844C1114.66 96.7344 1115.94 94.3385 1115.94 90.7969C1115.94 87.8021 1114.7 85.7448 1112.23 84.625C1110.85 84 1108.91 83.6745 1106.41 83.6484H1092.07ZM1108.55 51.4219C1115.61 51.526 1120.61 53.5703 1123.55 57.5547C1125.33 60.0026 1126.21 62.9323 1126.21 66.3438C1126.21 69.8594 1125.33 72.6849 1123.55 74.8203C1122.57 76.0182 1121.11 77.112 1119.18 78.1016C1122.12 79.1693 1124.34 80.862 1125.82 83.1797C1127.33 85.4974 1128.09 88.3099 1128.09 91.6172C1128.09 95.0286 1127.23 98.0885 1125.51 100.797C1124.41 102.594 1123.05 104.104 1121.41 105.328C1119.56 106.734 1117.37 107.698 1114.84 108.219C1112.34 108.74 1109.62 109 1106.68 109H1080.59V51.4219H1108.55ZM1150.23 61.4219V76.8906H1163.87C1166.58 76.8906 1168.61 76.5781 1169.96 75.9531C1172.36 74.8594 1173.55 72.6979 1173.55 69.4688C1173.55 65.9792 1172.4 63.6354 1170.08 62.4375C1168.78 61.7604 1166.82 61.4219 1164.22 61.4219H1150.23ZM1166.72 51.4219C1170.76 51.5 1173.85 51.9948 1176.02 52.9062C1178.2 53.8177 1180.05 55.1589 1181.56 56.9297C1182.81 58.388 1183.8 60.0026 1184.53 61.7734C1185.26 63.5443 1185.62 65.5625 1185.62 67.8281C1185.62 70.5625 1184.93 73.2578 1183.55 75.9141C1182.17 78.5443 1179.9 80.4062 1176.72 81.5C1179.38 82.5677 1181.25 84.0911 1182.34 86.0703C1183.46 88.0234 1184.02 91.0182 1184.02 95.0547V98.9219C1184.02 101.552 1184.13 103.336 1184.34 104.273C1184.65 105.758 1185.38 106.852 1186.52 107.555V109H1173.28C1172.92 107.724 1172.66 106.695 1172.5 105.914C1172.19 104.299 1172.02 102.646 1171.99 100.953L1171.91 95.6016C1171.86 91.9297 1171.18 89.4818 1169.88 88.2578C1168.61 87.0339 1166.2 86.4219 1162.66 86.4219H1150.23V109H1138.48V51.4219H1166.72ZM1211.76 87.2422H1226.37L1219.18 64.5859L1211.76 87.2422ZM1212.5 51.4219H1226.09L1246.48 109H1233.44L1229.73 97.1641H1208.52L1204.53 109H1191.95L1212.5 51.4219ZM1253.63 51.4219H1266.25L1289.18 91.6172V51.4219H1300.39V109H1288.36L1264.84 68.1016V109H1253.63V51.4219ZM1323.32 61.4219V99H1334.41C1340.09 99 1344.05 96.2005 1346.29 90.6016C1347.51 87.5286 1348.12 83.8698 1348.12 79.625C1348.12 73.7656 1347.2 69.2734 1345.35 66.1484C1343.53 62.9974 1339.88 61.4219 1334.41 61.4219H1323.32ZM1336.45 51.4219C1340.01 51.474 1342.98 51.8906 1345.35 52.6719C1349.39 54 1352.66 56.4349 1355.16 59.9766C1357.16 62.8411 1358.53 65.9401 1359.26 69.2734C1359.99 72.6068 1360.35 75.7839 1360.35 78.8047C1360.35 86.4609 1358.82 92.9453 1355.74 98.2578C1351.58 105.419 1345.14 109 1336.45 109H1311.64V51.4219H1336.45ZM1380.47 109H1368.52V51.4219H1380.47V109ZM1391.52 51.4219H1404.14L1427.07 91.6172V51.4219H1438.28V109H1426.25L1402.73 68.1016V109H1391.52V51.4219ZM1488.24 69.3906C1487.33 65.4583 1485.1 62.7109 1481.56 61.1484C1479.58 60.2891 1477.38 59.8594 1474.96 59.8594C1470.33 59.8594 1466.51 61.6172 1463.52 65.1328C1460.55 68.6224 1459.06 73.8828 1459.06 80.9141C1459.06 87.9974 1460.68 93.0104 1463.91 95.9531C1467.14 98.8958 1470.81 100.367 1474.92 100.367C1478.96 100.367 1482.27 99.2083 1484.84 96.8906C1487.42 94.5469 1489.01 91.487 1489.61 87.7109H1476.29V78.1016H1500.27V109H1492.3L1491.09 101.812C1488.78 104.547 1486.69 106.474 1484.84 107.594C1481.67 109.547 1477.76 110.523 1473.12 110.523C1465.49 110.523 1459.24 107.88 1454.38 102.594C1449.3 97.2812 1446.76 90.0156 1446.76 80.7969C1446.76 71.474 1449.32 64 1454.45 58.375C1459.58 52.75 1466.37 49.9375 1474.8 49.9375C1482.12 49.9375 1487.99 51.7995 1492.42 55.5234C1496.88 59.2214 1499.43 63.8438 1500.08 69.3906H1488.24Z" fill="black"/>
<path d="M487.5 50L520.842 107.75H454.158L487.5 50Z" fill="#6000FD"/>
<circle cx="1026" cy="82" r="32" fill="#6000FD"/>
</g>
<defs>
<clipPath id="clip0_96_157">
<rect width="1440" height="92" fill="white" transform="translate(-1 35)"/>
</clipPath>
</defs>
</svg>
