<svg width="1440" height="166" viewBox="0 0 1440 166" fill="none" xmlns="http://www.w3.org/2000/svg">
<line x1="-22.0014" y1="163.128" x2="1510" y2="162.064" stroke="#6000FD" stroke-width="4"/>
<line x1="-22.0014" y1="3.06397" x2="1510" y2="2.00008" stroke="#6000FD" stroke-width="4"/>
<g clip-path="url(#clip0_96_159)">
<path d="M13.0156 59.4219L20.6328 92.3906L22.2734 101.57L23.9531 92.5859L30.4375 59.4219H43.1328L49.9688 92.3906L51.7266 101.57L53.4844 92.7422L61.1797 59.4219H73.4062L57.1953 117H45.7109L38.7578 83.3281L36.7266 72.1953L34.6953 83.3281L27.7422 117H16.5703L0.242188 59.4219H13.0156ZM123.289 69.6172H92.8203V81.8438H120.789V91.8438H92.8203V106.648H124.695V117H81.0625V59.4219H123.289V69.6172ZM145.75 69.4219V82.1172H159.891C162.417 82.1172 164.461 81.6484 166.023 80.7109C167.612 79.7474 168.406 78.0547 168.406 75.6328C168.406 72.9505 167.365 71.1797 165.281 70.3203C163.484 69.7214 161.193 69.4219 158.406 69.4219H145.75ZM145.75 91.6484V107H159.891C162.417 107 164.383 106.661 165.789 105.984C168.341 104.734 169.617 102.339 169.617 98.7969C169.617 95.8021 168.38 93.7448 165.906 92.625C164.526 92 162.586 91.6745 160.086 91.6484H145.75ZM162.234 59.4219C169.292 59.526 174.292 61.5703 177.234 65.5547C179.005 68.0026 179.891 70.9323 179.891 74.3438C179.891 77.8594 179.005 80.6849 177.234 82.8203C176.245 84.0182 174.786 85.112 172.859 86.1016C175.802 87.1693 178.016 88.862 179.5 91.1797C181.01 93.4974 181.766 96.3099 181.766 99.6172C181.766 103.029 180.906 106.089 179.188 108.797C178.094 110.594 176.727 112.104 175.086 113.328C173.237 114.734 171.049 115.698 168.523 116.219C166.023 116.74 163.302 117 160.359 117H134.266V59.4219H162.234ZM225.828 69.4219V107H236.922C242.599 107 246.557 104.201 248.797 98.6016C250.021 95.5286 250.633 91.8698 250.633 87.625C250.633 81.7656 249.708 77.2734 247.859 74.1484C246.036 70.9974 242.391 69.4219 236.922 69.4219H225.828ZM238.953 59.4219C242.521 59.474 245.49 59.8906 247.859 60.6719C251.896 62 255.164 64.4349 257.664 67.9766C259.669 70.8411 261.036 73.9401 261.766 77.2734C262.495 80.6068 262.859 83.7839 262.859 86.8047C262.859 94.4609 261.323 100.945 258.25 106.258C254.083 113.419 247.651 117 238.953 117H214.148V59.4219H238.953ZM314.539 69.6172H284.07V81.8438H312.039V91.8438H284.07V106.648H315.945V117H272.312V59.4219H314.539V69.6172ZM334.031 99.2266C334.396 101.857 335.112 103.823 336.18 105.125C338.133 107.495 341.479 108.68 346.219 108.68C349.057 108.68 351.362 108.367 353.133 107.742C356.492 106.544 358.172 104.318 358.172 101.062C358.172 99.1615 357.339 97.6901 355.672 96.6484C354.005 95.6328 351.388 94.7344 347.82 93.9531L341.727 92.5859C335.737 91.2318 331.596 89.7604 329.305 88.1719C325.424 85.5156 323.484 81.362 323.484 75.7109C323.484 70.5547 325.359 66.2708 329.109 62.8594C332.859 59.4479 338.367 57.7422 345.633 57.7422C351.701 57.7422 356.87 59.3568 361.141 62.5859C365.438 65.7891 367.69 70.4505 367.898 76.5703H356.336C356.128 73.1068 354.617 70.6458 351.805 69.1875C349.93 68.224 347.599 67.7422 344.812 67.7422C341.714 67.7422 339.24 68.3672 337.391 69.6172C335.542 70.8672 334.617 72.612 334.617 74.8516C334.617 76.9089 335.529 78.4453 337.352 79.4609C338.523 80.138 341.023 80.9323 344.852 81.8438L354.773 84.2266C359.122 85.2682 362.404 86.6615 364.617 88.4062C368.055 91.1146 369.773 95.0339 369.773 100.164C369.773 105.424 367.755 109.799 363.719 113.289C359.708 116.753 354.031 118.484 346.688 118.484C339.188 118.484 333.289 116.779 328.992 113.367C324.695 109.93 322.547 105.216 322.547 99.2266H334.031ZM389.695 117H377.742V59.4219H389.695V117ZM439.656 77.3906C438.745 73.4583 436.518 70.7109 432.977 69.1484C430.997 68.2891 428.797 67.8594 426.375 67.8594C421.74 67.8594 417.924 69.6172 414.93 73.1328C411.961 76.6224 410.477 81.8828 410.477 88.9141C410.477 95.9974 412.091 101.01 415.32 103.953C418.549 106.896 422.221 108.367 426.336 108.367C430.372 108.367 433.68 107.208 436.258 104.891C438.836 102.547 440.424 99.487 441.023 95.7109H427.703V86.1016H451.688V117H443.719L442.508 109.812C440.19 112.547 438.107 114.474 436.258 115.594C433.081 117.547 429.174 118.523 424.539 118.523C416.909 118.523 410.659 115.88 405.789 110.594C400.711 105.281 398.172 98.0156 398.172 88.7969C398.172 79.474 400.737 72 405.867 66.375C410.997 60.75 417.781 57.9375 426.219 57.9375C433.536 57.9375 439.409 59.7995 443.836 63.5234C448.289 67.2214 450.841 71.8438 451.492 77.3906H439.656ZM463.016 59.4219H475.633L498.562 99.6172V59.4219H509.773V117H497.742L474.227 76.1016V117H463.016V59.4219Z" fill="black"/>
<path d="M1268.02 59.4219L1275.63 92.3906L1277.27 101.57L1278.95 92.5859L1285.44 59.4219H1298.13L1304.97 92.3906L1306.73 101.57L1308.48 92.7422L1316.18 59.4219H1328.41L1312.2 117H1300.71L1293.76 83.3281L1291.73 72.1953L1289.7 83.3281L1282.74 117H1271.57L1255.24 59.4219H1268.02ZM1378.29 69.6172H1347.82V81.8438H1375.79V91.8438H1347.82V106.648H1379.7V117H1336.06V59.4219H1378.29V69.6172ZM1400.75 69.4219V82.1172H1414.89C1417.42 82.1172 1419.46 81.6484 1421.02 80.7109C1422.61 79.7474 1423.41 78.0547 1423.41 75.6328C1423.41 72.9505 1422.36 71.1797 1420.28 70.3203C1418.48 69.7214 1416.19 69.4219 1413.41 69.4219H1400.75ZM1400.75 91.6484V107H1414.89C1417.42 107 1419.38 106.661 1420.79 105.984C1423.34 104.734 1424.62 102.339 1424.62 98.7969C1424.62 95.8021 1423.38 93.7448 1420.91 92.625C1419.53 92 1417.59 91.6745 1415.09 91.6484H1400.75ZM1417.23 59.4219C1424.29 59.526 1429.29 61.5703 1432.23 65.5547C1434.01 68.0026 1434.89 70.9323 1434.89 74.3438C1434.89 77.8594 1434.01 80.6849 1432.23 82.8203C1431.24 84.0182 1429.79 85.112 1427.86 86.1016C1430.8 87.1693 1433.02 88.862 1434.5 91.1797C1436.01 93.4974 1436.77 96.3099 1436.77 99.6172C1436.77 103.029 1435.91 106.089 1434.19 108.797C1433.09 110.594 1431.73 112.104 1430.09 113.328C1428.24 114.734 1426.05 115.698 1423.52 116.219C1421.02 116.74 1418.3 117 1415.36 117H1389.27V59.4219H1417.23ZM1480.83 69.4219V107H1491.92C1497.6 107 1501.56 104.201 1503.8 98.6016C1505.02 95.5286 1505.63 91.8698 1505.63 87.625C1505.63 81.7656 1504.71 77.2734 1502.86 74.1484C1501.04 70.9974 1497.39 69.4219 1491.92 69.4219H1480.83ZM1493.95 59.4219C1497.52 59.474 1500.49 59.8906 1502.86 60.6719C1506.9 62 1510.16 64.4349 1512.66 67.9766C1514.67 70.8411 1516.04 73.9401 1516.77 77.2734C1517.49 80.6068 1517.86 83.7839 1517.86 86.8047C1517.86 94.4609 1516.32 100.945 1513.25 106.258C1509.08 113.419 1502.65 117 1493.95 117H1469.15V59.4219H1493.95ZM1569.54 69.6172H1539.07V81.8438H1567.04V91.8438H1539.07V106.648H1570.95V117H1527.31V59.4219H1569.54V69.6172ZM1589.03 99.2266C1589.4 101.857 1590.11 103.823 1591.18 105.125C1593.13 107.495 1596.48 108.68 1601.22 108.68C1604.06 108.68 1606.36 108.367 1608.13 107.742C1611.49 106.544 1613.17 104.318 1613.17 101.062C1613.17 99.1615 1612.34 97.6901 1610.67 96.6484C1609.01 95.6328 1606.39 94.7344 1602.82 93.9531L1596.73 92.5859C1590.74 91.2318 1586.6 89.7604 1584.3 88.1719C1580.42 85.5156 1578.48 81.362 1578.48 75.7109C1578.48 70.5547 1580.36 66.2708 1584.11 62.8594C1587.86 59.4479 1593.37 57.7422 1600.63 57.7422C1606.7 57.7422 1611.87 59.3568 1616.14 62.5859C1620.44 65.7891 1622.69 70.4505 1622.9 76.5703H1611.34C1611.13 73.1068 1609.62 70.6458 1606.8 69.1875C1604.93 68.224 1602.6 67.7422 1599.81 67.7422C1596.71 67.7422 1594.24 68.3672 1592.39 69.6172C1590.54 70.8672 1589.62 72.612 1589.62 74.8516C1589.62 76.9089 1590.53 78.4453 1592.35 79.4609C1593.52 80.138 1596.02 80.9323 1599.85 81.8438L1609.77 84.2266C1614.12 85.2682 1617.4 86.6615 1619.62 88.4062C1623.05 91.1146 1624.77 95.0339 1624.77 100.164C1624.77 105.424 1622.76 109.799 1618.72 113.289C1614.71 116.753 1609.03 118.484 1601.69 118.484C1594.19 118.484 1588.29 116.779 1583.99 113.367C1579.7 109.93 1577.55 105.216 1577.55 99.2266H1589.03ZM1644.7 117H1632.74V59.4219H1644.7V117ZM1694.66 77.3906C1693.74 73.4583 1691.52 70.7109 1687.98 69.1484C1686 68.2891 1683.8 67.8594 1681.38 67.8594C1676.74 67.8594 1672.92 69.6172 1669.93 73.1328C1666.96 76.6224 1665.48 81.8828 1665.48 88.9141C1665.48 95.9974 1667.09 101.01 1670.32 103.953C1673.55 106.896 1677.22 108.367 1681.34 108.367C1685.37 108.367 1688.68 107.208 1691.26 104.891C1693.84 102.547 1695.42 99.487 1696.02 95.7109H1682.7V86.1016H1706.69V117H1698.72L1697.51 109.812C1695.19 112.547 1693.11 114.474 1691.26 115.594C1688.08 117.547 1684.17 118.523 1679.54 118.523C1671.91 118.523 1665.66 115.88 1660.79 110.594C1655.71 105.281 1653.17 98.0156 1653.17 88.7969C1653.17 79.474 1655.74 72 1660.87 66.375C1666 60.75 1672.78 57.9375 1681.22 57.9375C1688.54 57.9375 1694.41 59.7995 1698.84 63.5234C1703.29 67.2214 1705.84 71.8438 1706.49 77.3906H1694.66ZM1718.02 59.4219H1730.63L1753.56 99.6172V59.4219H1764.77V117H1752.74L1729.23 76.1016V117H1718.02V59.4219Z" fill="black"/>
<path d="M648.016 59.4219L655.633 92.3906L657.273 101.57L658.953 92.5859L665.438 59.4219H678.133L684.969 92.3906L686.727 101.57L688.484 92.7422L696.18 59.4219H708.406L692.195 117H680.711L673.758 83.3281L671.727 72.1953L669.695 83.3281L662.742 117H651.57L635.242 59.4219H648.016ZM758.289 69.6172H727.82V81.8438H755.789V91.8438H727.82V106.648H759.695V117H716.062V59.4219H758.289V69.6172ZM780.75 69.4219V82.1172H794.891C797.417 82.1172 799.461 81.6484 801.023 80.7109C802.612 79.7474 803.406 78.0547 803.406 75.6328C803.406 72.9505 802.365 71.1797 800.281 70.3203C798.484 69.7214 796.193 69.4219 793.406 69.4219H780.75ZM780.75 91.6484V107H794.891C797.417 107 799.383 106.661 800.789 105.984C803.341 104.734 804.617 102.339 804.617 98.7969C804.617 95.8021 803.38 93.7448 800.906 92.625C799.526 92 797.586 91.6745 795.086 91.6484H780.75ZM797.234 59.4219C804.292 59.526 809.292 61.5703 812.234 65.5547C814.005 68.0026 814.891 70.9323 814.891 74.3438C814.891 77.8594 814.005 80.6849 812.234 82.8203C811.245 84.0182 809.786 85.112 807.859 86.1016C810.802 87.1693 813.016 88.862 814.5 91.1797C816.01 93.4974 816.766 96.3099 816.766 99.6172C816.766 103.029 815.906 106.089 814.188 108.797C813.094 110.594 811.727 112.104 810.086 113.328C808.237 114.734 806.049 115.698 803.523 116.219C801.023 116.74 798.302 117 795.359 117H769.266V59.4219H797.234ZM860.828 69.4219V107H871.922C877.599 107 881.557 104.201 883.797 98.6016C885.021 95.5286 885.633 91.8698 885.633 87.625C885.633 81.7656 884.708 77.2734 882.859 74.1484C881.036 70.9974 877.391 69.4219 871.922 69.4219H860.828ZM873.953 59.4219C877.521 59.474 880.49 59.8906 882.859 60.6719C886.896 62 890.164 64.4349 892.664 67.9766C894.669 70.8411 896.036 73.9401 896.766 77.2734C897.495 80.6068 897.859 83.7839 897.859 86.8047C897.859 94.4609 896.323 100.945 893.25 106.258C889.083 113.419 882.651 117 873.953 117H849.148V59.4219H873.953ZM949.539 69.6172H919.07V81.8438H947.039V91.8438H919.07V106.648H950.945V117H907.312V59.4219H949.539V69.6172ZM969.031 99.2266C969.396 101.857 970.112 103.823 971.18 105.125C973.133 107.495 976.479 108.68 981.219 108.68C984.057 108.68 986.362 108.367 988.133 107.742C991.492 106.544 993.172 104.318 993.172 101.062C993.172 99.1615 992.339 97.6901 990.672 96.6484C989.005 95.6328 986.388 94.7344 982.82 93.9531L976.727 92.5859C970.737 91.2318 966.596 89.7604 964.305 88.1719C960.424 85.5156 958.484 81.362 958.484 75.7109C958.484 70.5547 960.359 66.2708 964.109 62.8594C967.859 59.4479 973.367 57.7422 980.633 57.7422C986.701 57.7422 991.87 59.3568 996.141 62.5859C1000.44 65.7891 1002.69 70.4505 1002.9 76.5703H991.336C991.128 73.1068 989.617 70.6458 986.805 69.1875C984.93 68.224 982.599 67.7422 979.812 67.7422C976.714 67.7422 974.24 68.3672 972.391 69.6172C970.542 70.8672 969.617 72.612 969.617 74.8516C969.617 76.9089 970.529 78.4453 972.352 79.4609C973.523 80.138 976.023 80.9323 979.852 81.8438L989.773 84.2266C994.122 85.2682 997.404 86.6615 999.617 88.4062C1003.05 91.1146 1004.77 95.0339 1004.77 100.164C1004.77 105.424 1002.76 109.799 998.719 113.289C994.708 116.753 989.031 118.484 981.688 118.484C974.188 118.484 968.289 116.779 963.992 113.367C959.695 109.93 957.547 105.216 957.547 99.2266H969.031ZM1024.7 117H1012.74V59.4219H1024.7V117ZM1074.66 77.3906C1073.74 73.4583 1071.52 70.7109 1067.98 69.1484C1066 68.2891 1063.8 67.8594 1061.38 67.8594C1056.74 67.8594 1052.92 69.6172 1049.93 73.1328C1046.96 76.6224 1045.48 81.8828 1045.48 88.9141C1045.48 95.9974 1047.09 101.01 1050.32 103.953C1053.55 106.896 1057.22 108.367 1061.34 108.367C1065.37 108.367 1068.68 107.208 1071.26 104.891C1073.84 102.547 1075.42 99.487 1076.02 95.7109H1062.7V86.1016H1086.69V117H1078.72L1077.51 109.812C1075.19 112.547 1073.11 114.474 1071.26 115.594C1068.08 117.547 1064.17 118.523 1059.54 118.523C1051.91 118.523 1045.66 115.88 1040.79 110.594C1035.71 105.281 1033.17 98.0156 1033.17 88.7969C1033.17 79.474 1035.74 72 1040.87 66.375C1046 60.75 1052.78 57.9375 1061.22 57.9375C1068.54 57.9375 1074.41 59.7995 1078.84 63.5234C1083.29 67.2214 1085.84 71.8438 1086.49 77.3906H1074.66ZM1098.02 59.4219H1110.63L1133.56 99.6172V59.4219H1144.77V117H1132.74L1109.23 76.1016V117H1098.02V59.4219Z" fill="black"/>
<path d="M571.5 58L604.842 115.75H538.158L571.5 58Z" fill="#6000FD"/>
<circle cx="1204" cy="90" r="32" fill="#6000FD"/>
</g>
<defs>
<clipPath id="clip0_96_159">
<rect width="1460" height="92" fill="white" transform="translate(-3 43)"/>
</clipPath>
</defs>
</svg>
