<svg width="1440" height="92" viewBox="0 0 1440 92" fill="none" xmlns="http://www.w3.org/2000/svg">
<g clip-path="url(#clip0_50_331)">
<path d="M62.3594 16.4219H74.5859L58.375 74H46.8906L39.9375 40.3281L37.9062 29.1953L35.875 40.3281L28.9219 74H17.75L1.42188 16.4219H14.1953L21.8125 49.3906L23.4531 58.5703L25.1328 49.5859L31.6172 16.4219H44.3125L51.1484 49.3906L52.9062 58.5703L54.6641 49.7422L62.3594 16.4219ZM107.359 75.6016C99.1302 75.6016 92.8411 73.362 88.4922 68.8828C82.6589 63.388 79.7422 55.4714 79.7422 45.1328C79.7422 34.5859 82.6589 26.6693 88.4922 21.3828C92.8411 16.9036 99.1302 14.6641 107.359 14.6641C115.589 14.6641 121.878 16.9036 126.227 21.3828C132.034 26.6693 134.938 34.5859 134.938 45.1328C134.938 55.4714 132.034 63.388 126.227 68.8828C121.878 73.362 115.589 75.6016 107.359 75.6016ZM118.727 60.1328C121.513 56.6172 122.906 51.6172 122.906 45.1328C122.906 38.6745 121.5 33.6875 118.688 30.1719C115.901 26.6302 112.125 24.8594 107.359 24.8594C102.594 24.8594 98.7917 26.6172 95.9531 30.1328C93.1146 33.6484 91.6953 38.6484 91.6953 45.1328C91.6953 51.6172 93.1146 56.6172 95.9531 60.1328C98.7917 63.6484 102.594 65.4062 107.359 65.4062C112.125 65.4062 115.914 63.6484 118.727 60.1328ZM168.609 51.4219H156.188V74H144.43V16.4219H172.672C176.708 16.5 179.807 16.9948 181.969 17.9062C184.156 18.8177 186.005 20.1589 187.516 21.9297C188.766 23.388 189.755 25.0026 190.484 26.7734C191.214 28.5443 191.578 30.5625 191.578 32.8281C191.578 35.5625 190.888 38.2578 189.508 40.9141C188.128 43.5443 185.849 45.4062 182.672 46.5C185.328 47.5677 187.203 49.0911 188.297 51.0703C189.417 53.0234 189.977 56.0182 189.977 60.0547V63.9219C189.977 66.5521 190.081 68.3359 190.289 69.2734C190.602 70.7578 191.331 71.8516 192.477 72.5547V74H179.234C178.87 72.724 178.609 71.6953 178.453 70.9141C178.141 69.2995 177.971 67.6458 177.945 65.9531L177.867 60.6016C177.815 56.9297 177.138 54.4818 175.836 53.2578C174.56 52.0339 172.151 51.4219 168.609 51.4219ZM175.914 40.9531C178.31 39.8594 179.508 37.6979 179.508 34.4688C179.508 30.9792 178.349 28.6354 176.031 27.4375C174.729 26.7604 172.776 26.4219 170.172 26.4219H156.188V41.8906H169.82C172.529 41.8906 174.56 41.5781 175.914 40.9531ZM252.984 74H237.516L219.742 48.8438L214 54.7422V74H202.164V16.4219H214V40.1328L236.227 16.4219H251.773L228.18 40.1328L252.984 74ZM338.062 16.4219H350.289L334.078 74H322.594L315.641 40.3281L313.609 29.1953L311.578 40.3281L304.625 74H293.453L277.125 16.4219H289.898L297.516 49.3906L299.156 58.5703L300.836 49.5859L307.32 16.4219H320.016L326.852 49.3906L328.609 58.5703L330.367 49.7422L338.062 16.4219ZM356.656 16.4219H368.609V74H356.656V16.4219ZM421.695 16.4219V26.6172H404.469V74H392.359V26.6172H375.055V16.4219H421.695ZM463.102 74V48.2969H440.602V74H428.688V16.4219H440.602V38.375H463.102V16.4219H475.055V74H463.102ZM519.859 74H508.648V16.4219H526.148L536.617 61.6953L547.008 16.4219H564.312V74H553.102V35.0547C553.102 33.9349 553.115 32.3724 553.141 30.3672C553.167 28.3359 553.18 26.7734 553.18 25.6797L542.281 74H530.602L519.781 25.6797C519.781 26.7734 519.794 28.3359 519.82 30.3672C519.846 32.3724 519.859 33.9349 519.859 35.0547V74ZM615.562 48.8438H587.594V63.6484H619.469V74H575.836V16.4219H618.062V26.6172H587.594V38.8438H615.562V48.8438Z" fill="black"/>
<path d="M815.359 16.4219H827.586L811.375 74H799.891L792.938 40.3281L790.906 29.1953L788.875 40.3281L781.922 74H770.75L754.422 16.4219H767.195L774.812 49.3906L776.453 58.5703L778.133 49.5859L784.617 16.4219H797.312L804.148 49.3906L805.906 58.5703L807.664 49.7422L815.359 16.4219ZM860.359 75.6016C852.13 75.6016 845.841 73.362 841.492 68.8828C835.659 63.388 832.742 55.4714 832.742 45.1328C832.742 34.5859 835.659 26.6693 841.492 21.3828C845.841 16.9036 852.13 14.6641 860.359 14.6641C868.589 14.6641 874.878 16.9036 879.227 21.3828C885.034 26.6693 887.938 34.5859 887.938 45.1328C887.938 55.4714 885.034 63.388 879.227 68.8828C874.878 73.362 868.589 75.6016 860.359 75.6016ZM871.727 60.1328C874.513 56.6172 875.906 51.6172 875.906 45.1328C875.906 38.6745 874.5 33.6875 871.688 30.1719C868.901 26.6302 865.125 24.8594 860.359 24.8594C855.594 24.8594 851.792 26.6172 848.953 30.1328C846.115 33.6484 844.695 38.6484 844.695 45.1328C844.695 51.6172 846.115 56.6172 848.953 60.1328C851.792 63.6484 855.594 65.4062 860.359 65.4062C865.125 65.4062 868.914 63.6484 871.727 60.1328ZM921.609 51.4219H909.188V74H897.43V16.4219H925.672C929.708 16.5 932.807 16.9948 934.969 17.9062C937.156 18.8177 939.005 20.1589 940.516 21.9297C941.766 23.388 942.755 25.0026 943.484 26.7734C944.214 28.5443 944.578 30.5625 944.578 32.8281C944.578 35.5625 943.888 38.2578 942.508 40.9141C941.128 43.5443 938.849 45.4062 935.672 46.5C938.328 47.5677 940.203 49.0911 941.297 51.0703C942.417 53.0234 942.977 56.0182 942.977 60.0547V63.9219C942.977 66.5521 943.081 68.3359 943.289 69.2734C943.602 70.7578 944.331 71.8516 945.477 72.5547V74H932.234C931.87 72.724 931.609 71.6953 931.453 70.9141C931.141 69.2995 930.971 67.6458 930.945 65.9531L930.867 60.6016C930.815 56.9297 930.138 54.4818 928.836 53.2578C927.56 52.0339 925.151 51.4219 921.609 51.4219ZM928.914 40.9531C931.31 39.8594 932.508 37.6979 932.508 34.4688C932.508 30.9792 931.349 28.6354 929.031 27.4375C927.729 26.7604 925.776 26.4219 923.172 26.4219H909.188V41.8906H922.82C925.529 41.8906 927.56 41.5781 928.914 40.9531ZM1005.98 74H990.516L972.742 48.8438L967 54.7422V74H955.164V16.4219H967V40.1328L989.227 16.4219H1004.77L981.18 40.1328L1005.98 74ZM1091.06 16.4219H1103.29L1087.08 74H1075.59L1068.64 40.3281L1066.61 29.1953L1064.58 40.3281L1057.62 74H1046.45L1030.12 16.4219H1042.9L1050.52 49.3906L1052.16 58.5703L1053.84 49.5859L1060.32 16.4219H1073.02L1079.85 49.3906L1081.61 58.5703L1083.37 49.7422L1091.06 16.4219ZM1109.66 16.4219H1121.61V74H1109.66V16.4219ZM1174.7 16.4219V26.6172H1157.47V74H1145.36V26.6172H1128.05V16.4219H1174.7ZM1216.1 74V48.2969H1193.6V74H1181.69V16.4219H1193.6V38.375H1216.1V16.4219H1228.05V74H1216.1ZM1272.86 74H1261.65V16.4219H1279.15L1289.62 61.6953L1300.01 16.4219H1317.31V74H1306.1V35.0547C1306.1 33.9349 1306.11 32.3724 1306.14 30.3672C1306.17 28.3359 1306.18 26.7734 1306.18 25.6797L1295.28 74H1283.6L1272.78 25.6797C1272.78 26.7734 1272.79 28.3359 1272.82 30.3672C1272.85 32.3724 1272.86 33.9349 1272.86 35.0547V74ZM1368.56 48.8438H1340.59V63.6484H1372.47V74H1328.84V16.4219H1371.06V26.6172H1340.59V38.8438H1368.56V48.8438Z" fill="black"/>
<path d="M1439.5 15L1472.84 72.75H1406.16L1439.5 15Z" fill="#6000FD"/>
<circle cx="680" cy="47" r="32" fill="#6000FD"/>
</g>
<defs>
<clipPath id="clip0_50_331">
<rect width="1440" height="92" fill="white"/>
</clipPath>
</defs>
</svg>
