<svg width="1144" height="348" viewBox="0 0 1144 348" fill="none" xmlns="http://www.w3.org/2000/svg">
<rect x="391" y="128" width="753" height="93" rx="46.5" fill="black"/>
<path d="M651.252 167.231H639.826V171.816H650.314V175.566H639.826V181.118H651.779V185H635.417V163.408H651.252V167.231ZM659.675 167.158V181.25H663.835C665.964 181.25 667.448 180.2 668.288 178.101C668.747 176.948 668.977 175.576 668.977 173.984C668.977 171.787 668.63 170.103 667.937 168.931C667.253 167.749 665.886 167.158 663.835 167.158H659.675ZM664.597 163.408C665.935 163.428 667.048 163.584 667.937 163.877C669.45 164.375 670.676 165.288 671.613 166.616C672.365 167.69 672.878 168.853 673.151 170.103C673.425 171.353 673.562 172.544 673.562 173.677C673.562 176.548 672.985 178.979 671.833 180.972C670.271 183.657 667.858 185 664.597 185H655.295V163.408H664.597ZM681.105 185H676.623V163.408H681.105V185ZM701.013 163.408V167.231H694.553V185H690.012V167.231H683.522V163.408H701.013ZM712.688 181.777C714.475 181.777 715.891 181.118 716.936 179.8C717.99 178.481 718.518 176.606 718.518 174.175C718.518 171.753 717.99 169.883 716.936 168.564C715.891 167.236 714.475 166.572 712.688 166.572C710.9 166.572 709.475 167.231 708.41 168.55C707.346 169.868 706.813 171.743 706.813 174.175C706.813 176.606 707.346 178.481 708.41 179.8C709.475 181.118 710.9 181.777 712.688 181.777ZM723.029 174.175C723.029 178.052 721.94 181.021 719.763 183.081C718.132 184.761 715.773 185.601 712.688 185.601C709.602 185.601 707.243 184.761 705.612 183.081C703.425 181.021 702.331 178.052 702.331 174.175C702.331 170.22 703.425 167.251 705.612 165.269C707.243 163.589 709.602 162.749 712.688 162.749C715.773 162.749 718.132 163.589 719.763 165.269C721.94 167.251 723.029 170.22 723.029 174.175ZM730.998 167.158V172.959H736.11C737.126 172.959 737.888 172.842 738.396 172.607C739.294 172.197 739.743 171.387 739.743 170.176C739.743 168.867 739.309 167.988 738.439 167.539C737.951 167.285 737.219 167.158 736.242 167.158H730.998ZM737.18 163.408C738.693 163.438 739.855 163.623 740.666 163.965C741.486 164.307 742.18 164.81 742.746 165.474C743.215 166.021 743.586 166.626 743.859 167.29C744.133 167.954 744.27 168.711 744.27 169.561C744.27 170.586 744.011 171.597 743.493 172.593C742.976 173.579 742.121 174.277 740.93 174.688C741.926 175.088 742.629 175.659 743.039 176.401C743.459 177.134 743.669 178.257 743.669 179.771V181.221C743.669 182.207 743.708 182.876 743.786 183.228C743.903 183.784 744.177 184.194 744.606 184.458V185H739.641C739.504 184.521 739.406 184.136 739.348 183.843C739.23 183.237 739.167 182.617 739.157 181.982L739.128 179.976C739.108 178.599 738.854 177.681 738.366 177.222C737.888 176.763 736.984 176.533 735.656 176.533H730.998V185H726.589V163.408H737.18ZM752.297 185H747.814V163.408H752.297V185ZM762.419 176.841H767.897L765.202 168.345L762.419 176.841ZM762.697 163.408H767.795L775.441 185H770.549L769.157 180.562H761.203L759.709 185H754.992L762.697 163.408ZM778.195 163.408H782.707V181.118H793.4V185H778.195V163.408ZM808.737 167.158V181.25H812.897C815.026 181.25 816.511 180.2 817.351 178.101C817.81 176.948 818.039 175.576 818.039 173.984C818.039 171.787 817.692 170.103 816.999 168.931C816.315 167.749 814.948 167.158 812.897 167.158H808.737ZM813.659 163.408C814.997 163.428 816.11 163.584 816.999 163.877C818.513 164.375 819.738 165.288 820.676 166.616C821.428 167.69 821.94 168.853 822.214 170.103C822.487 171.353 822.624 172.544 822.624 173.677C822.624 176.548 822.048 178.979 820.896 180.972C819.333 183.657 816.921 185 813.659 185H804.357V163.408H813.659ZM842.004 167.231H830.578V171.816H841.066V175.566H830.578V181.118H842.531V185H826.169V163.408H842.004V167.231ZM849.313 178.335C849.45 179.321 849.719 180.059 850.119 180.547C850.852 181.436 852.106 181.88 853.884 181.88C854.948 181.88 855.812 181.763 856.477 181.528C857.736 181.079 858.366 180.244 858.366 179.023C858.366 178.311 858.054 177.759 857.429 177.368C856.804 176.987 855.822 176.65 854.484 176.357L852.199 175.845C849.953 175.337 848.4 174.785 847.541 174.189C846.086 173.193 845.358 171.636 845.358 169.517C845.358 167.583 846.062 165.977 847.468 164.697C848.874 163.418 850.939 162.778 853.664 162.778C855.939 162.778 857.878 163.384 859.479 164.595C861.091 165.796 861.936 167.544 862.014 169.839H857.678C857.6 168.54 857.033 167.617 855.979 167.07C855.275 166.709 854.401 166.528 853.356 166.528C852.194 166.528 851.267 166.763 850.573 167.231C849.88 167.7 849.533 168.354 849.533 169.194C849.533 169.966 849.875 170.542 850.559 170.923C850.998 171.177 851.936 171.475 853.371 171.816L857.092 172.71C858.723 173.101 859.953 173.623 860.783 174.277C862.072 175.293 862.717 176.763 862.717 178.687C862.717 180.659 861.96 182.3 860.446 183.608C858.942 184.907 856.813 185.557 854.06 185.557C851.247 185.557 849.035 184.917 847.424 183.638C845.812 182.349 845.007 180.581 845.007 178.335H849.313ZM870.188 185H865.705V163.408H870.188V185ZM888.923 170.146C888.581 168.672 887.746 167.642 886.418 167.056C885.676 166.733 884.851 166.572 883.942 166.572C882.204 166.572 880.773 167.231 879.65 168.55C878.537 169.858 877.98 171.831 877.98 174.468C877.98 177.124 878.586 179.004 879.797 180.107C881.008 181.211 882.385 181.763 883.928 181.763C885.441 181.763 886.682 181.328 887.648 180.459C888.615 179.58 889.211 178.433 889.436 177.017H884.44V173.413H893.435V185H890.446L889.992 182.305C889.123 183.33 888.342 184.053 887.648 184.473C886.457 185.205 884.992 185.571 883.254 185.571C880.393 185.571 878.049 184.58 876.223 182.598C874.318 180.605 873.366 177.881 873.366 174.424C873.366 170.928 874.328 168.125 876.252 166.016C878.176 163.906 880.72 162.852 883.884 162.852C886.628 162.852 888.83 163.55 890.49 164.946C892.16 166.333 893.117 168.066 893.361 170.146H888.923ZM897.683 163.408H902.414L911.013 178.481V163.408H915.217V185H910.705L901.887 169.663V185H897.683V163.408Z" fill="white"/>
<rect y="255" width="557" height="93" rx="46.5" fill="black"/>
<path d="M171.387 306.88C172.451 306.88 173.316 306.763 173.98 306.528C175.239 306.079 175.869 305.244 175.869 304.023C175.869 303.311 175.557 302.759 174.932 302.368C174.307 301.987 173.325 301.65 171.987 301.357L169.702 300.845C167.456 300.337 165.903 299.785 165.044 299.189C163.589 298.193 162.861 296.636 162.861 294.517C162.861 292.583 163.565 290.977 164.971 289.697C166.377 288.418 168.443 287.778 171.167 287.778C173.443 287.778 175.381 288.384 176.983 289.595C178.594 290.796 179.439 292.544 179.517 294.839H175.181C175.103 293.54 174.536 292.617 173.482 292.07C172.778 291.709 171.904 291.528 170.859 291.528C169.697 291.528 168.77 291.763 168.076 292.231C167.383 292.7 167.036 293.354 167.036 294.194C167.036 294.966 167.378 295.542 168.062 295.923C168.501 296.177 169.439 296.475 170.874 296.816L174.595 297.71C176.226 298.101 177.456 298.623 178.286 299.277C179.575 300.293 180.22 301.763 180.22 303.687C180.22 305.659 179.463 307.3 177.949 308.608C176.445 309.907 174.317 310.557 171.563 310.557C168.75 310.557 166.538 309.917 164.927 308.638C163.316 307.349 162.51 305.581 162.51 303.335H166.817C166.953 304.321 167.222 305.059 167.622 305.547C168.355 306.436 169.609 306.88 171.387 306.88ZM193.11 310.601C190.025 310.601 187.666 309.761 186.035 308.081C183.848 306.021 182.754 303.052 182.754 299.175C182.754 295.22 183.848 292.251 186.035 290.269C187.666 288.589 190.025 287.749 193.11 287.749C196.196 287.749 198.555 288.589 200.186 290.269C202.363 292.251 203.452 295.22 203.452 299.175C203.452 303.052 202.363 306.021 200.186 308.081C198.555 309.761 196.196 310.601 193.11 310.601ZM197.373 304.8C198.418 303.481 198.941 301.606 198.941 299.175C198.941 296.753 198.413 294.883 197.359 293.564C196.314 292.236 194.898 291.572 193.11 291.572C191.323 291.572 189.898 292.231 188.833 293.55C187.769 294.868 187.236 296.743 187.236 299.175C187.236 301.606 187.769 303.481 188.833 304.8C189.898 306.118 191.323 306.777 193.11 306.777C194.898 306.777 196.318 306.118 197.373 304.8ZM222.144 308.389C220.532 309.863 218.472 310.601 215.962 310.601C212.857 310.601 210.415 309.604 208.638 307.612C206.86 305.61 205.972 302.866 205.972 299.38C205.972 295.61 206.983 292.705 209.004 290.664C210.762 288.887 212.998 287.998 215.713 287.998C219.346 287.998 222.002 289.189 223.682 291.572C224.609 292.91 225.108 294.253 225.176 295.601H220.664C220.371 294.565 219.995 293.784 219.536 293.257C218.716 292.319 217.5 291.851 215.889 291.851C214.248 291.851 212.954 292.515 212.007 293.843C211.06 295.161 210.586 297.031 210.586 299.453C210.586 301.875 211.084 303.691 212.08 304.902C213.086 306.104 214.36 306.704 215.903 306.704C217.485 306.704 218.692 306.187 219.522 305.151C219.981 304.595 220.361 303.76 220.664 302.646H225.132C224.741 305 223.745 306.914 222.144 308.389ZM228.237 288.408H232.72V310H228.237V288.408ZM249.58 305.562H241.626L240.132 310H235.415L243.12 288.408H248.218L255.864 310H250.972L249.58 305.562ZM248.32 301.841L245.625 293.345L242.842 301.841H248.32ZM258.618 288.408H263.13V306.118H273.823V310H258.618V288.408ZM288.911 310H284.707V288.408H291.27L295.195 305.386L299.092 288.408H305.581V310H301.377V295.396C301.377 294.976 301.382 294.39 301.392 293.638C301.401 292.876 301.406 292.29 301.406 291.88L297.319 310H292.94L288.882 291.88C288.882 292.29 288.887 292.876 288.897 293.638C288.906 294.39 288.911 294.976 288.911 295.396V310ZM324.8 300.566H314.312V306.118H326.265V310H309.902V288.408H325.737V292.231H314.312V296.816H324.8V300.566ZM339.082 310H329.78V288.408H339.082C340.42 288.428 341.533 288.584 342.422 288.877C343.936 289.375 345.161 290.288 346.099 291.616C346.851 292.69 347.363 293.853 347.637 295.103C347.91 296.353 348.047 297.544 348.047 298.677C348.047 301.548 347.471 303.979 346.318 305.972C344.756 308.657 342.344 310 339.082 310ZM342.437 293.916C341.743 292.744 340.371 292.158 338.32 292.158H334.16V306.25H338.32C340.449 306.25 341.934 305.2 342.774 303.101C343.233 301.948 343.462 300.576 343.462 298.984C343.462 296.787 343.12 295.098 342.437 293.916ZM351.109 288.408H355.591V310H351.109V288.408ZM372.451 305.562H364.497L363.003 310H358.286L365.991 288.408H371.089L378.735 310H373.843L372.451 305.562ZM371.192 301.841L368.496 293.345L365.713 301.841H371.192Z" fill="white"/>
<path d="M113.144 183H103.358V161.408H113.847C116.493 161.447 118.368 162.214 119.472 163.708C120.136 164.626 120.468 165.725 120.468 167.004C120.468 168.322 120.136 169.382 119.472 170.183C119.101 170.632 118.554 171.042 117.831 171.413C118.935 171.813 119.765 172.448 120.321 173.317C120.888 174.187 121.171 175.241 121.171 176.481C121.171 177.761 120.849 178.908 120.204 179.924C119.794 180.598 119.281 181.164 118.666 181.623C117.973 182.15 117.152 182.512 116.205 182.707C115.268 182.902 114.247 183 113.144 183ZM113.041 173.493H107.665V179.25H112.968C113.915 179.25 114.652 179.123 115.18 178.869C116.137 178.4 116.615 177.502 116.615 176.174C116.615 175.051 116.151 174.279 115.224 173.859C114.706 173.625 113.979 173.503 113.041 173.493ZM115.282 169.377C115.868 169.025 116.161 168.396 116.161 167.487C116.161 166.481 115.771 165.817 114.989 165.495C114.315 165.271 113.456 165.158 112.411 165.158H107.665V169.919H112.968C113.915 169.919 114.687 169.738 115.282 169.377ZM134.135 174.533H129.477V183H125.067V161.408H135.658C137.172 161.438 138.334 161.623 139.145 161.965C139.965 162.307 140.658 162.81 141.225 163.474C141.693 164.021 142.064 164.626 142.338 165.29C142.611 165.954 142.748 166.711 142.748 167.561C142.748 168.586 142.489 169.597 141.972 170.593C141.454 171.579 140.6 172.277 139.408 172.688C140.404 173.088 141.107 173.659 141.518 174.401C141.938 175.134 142.147 176.257 142.147 177.771V179.221C142.147 180.207 142.187 180.876 142.265 181.228C142.382 181.784 142.655 182.194 143.085 182.458V183H138.119C137.982 182.521 137.885 182.136 137.826 181.843C137.709 181.237 137.646 180.617 137.636 179.982L137.606 177.976C137.587 176.599 137.333 175.681 136.845 175.222C136.366 174.763 135.463 174.533 134.135 174.533ZM136.874 170.607C137.772 170.197 138.222 169.387 138.222 168.176C138.222 166.867 137.787 165.988 136.918 165.539C136.43 165.285 135.697 165.158 134.721 165.158H129.477V170.959H134.589C135.604 170.959 136.366 170.842 136.874 170.607ZM159.286 178.562H151.332L149.838 183H145.121L152.826 161.408H157.924L165.57 183H160.678L159.286 178.562ZM158.026 174.841L155.331 166.345L152.548 174.841H158.026ZM185.785 183H181.273L172.455 167.663V183H168.251V161.408H172.982L181.581 176.481V161.408H185.785V183ZM199.306 183H190.004V161.408H199.306C200.644 161.428 201.757 161.584 202.646 161.877C204.159 162.375 205.385 163.288 206.322 164.616C207.074 165.69 207.587 166.853 207.86 168.103C208.134 169.353 208.271 170.544 208.271 171.677C208.271 174.548 207.694 176.979 206.542 178.972C204.979 181.657 202.567 183 199.306 183ZM202.66 166.916C201.967 165.744 200.595 165.158 198.544 165.158H194.384V179.25H198.544C200.673 179.25 202.157 178.2 202.997 176.101C203.456 174.948 203.686 173.576 203.686 171.984C203.686 169.787 203.344 168.098 202.66 166.916ZM211.332 161.408H215.814V183H211.332V161.408ZM237.494 183H232.982L224.164 167.663V183H219.96V161.408H224.691L233.29 176.481V161.408H237.494V183ZM254.955 182.473C253.764 183.205 252.299 183.571 250.561 183.571C247.699 183.571 245.355 182.58 243.529 180.598C241.625 178.605 240.673 175.881 240.673 172.424C240.673 168.928 241.635 166.125 243.559 164.016C245.482 161.906 248.026 160.852 251.19 160.852C253.935 160.852 256.137 161.55 257.797 162.946C259.467 164.333 260.424 166.066 260.668 168.146H256.229C255.888 166.672 255.053 165.642 253.725 165.056C252.982 164.733 252.157 164.572 251.249 164.572C249.511 164.572 248.08 165.231 246.957 166.55C245.844 167.858 245.287 169.831 245.287 172.468C245.287 175.124 245.893 177.004 247.104 178.107C248.314 179.211 249.691 179.763 251.234 179.763C252.748 179.763 253.988 179.328 254.955 178.459C255.922 177.58 256.518 176.433 256.742 175.017H251.747V171.413H260.741V183H257.753L257.299 180.305C256.43 181.33 255.648 182.053 254.955 182.473Z" fill="black"/>
<rect x="3.5" y="127.5" width="360" height="90" rx="45" stroke="black" stroke-width="3"/>
<path d="M781.741 289.408H786.326L780.247 311H775.94L773.333 298.373L772.571 294.198L771.809 298.373L769.202 311H765.012L758.889 289.408H763.679L766.536 301.771L767.151 305.214L767.781 301.845L770.213 289.408H774.973L777.537 301.771L778.196 305.214L778.855 301.903L781.741 289.408ZM804.094 301.566H793.606V307.118H805.559V311H789.197V289.408H805.032V293.231H793.606V297.816H804.094V301.566ZM818.933 311H809.148V289.408H819.636C822.283 289.447 824.158 290.214 825.261 291.708C825.925 292.626 826.257 293.725 826.257 295.004C826.257 296.322 825.925 297.382 825.261 298.183C824.89 298.632 824.343 299.042 823.621 299.413C824.724 299.813 825.554 300.448 826.111 301.317C826.677 302.187 826.961 303.241 826.961 304.481C826.961 305.761 826.638 306.908 825.994 307.924C825.584 308.598 825.071 309.164 824.456 309.623C823.762 310.15 822.942 310.512 821.995 310.707C821.057 310.902 820.037 311 818.933 311ZM818.831 301.493H813.455V307.25H818.757C819.705 307.25 820.442 307.123 820.969 306.869C821.926 306.4 822.405 305.502 822.405 304.174C822.405 303.051 821.941 302.279 821.013 301.859C820.496 301.625 819.768 301.503 818.831 301.493ZM821.072 297.377C821.658 297.025 821.951 296.396 821.951 295.487C821.951 294.481 821.56 293.817 820.779 293.495C820.105 293.271 819.246 293.158 818.201 293.158H813.455V297.919H818.757C819.705 297.919 820.476 297.738 821.072 297.377ZM848.406 311H839.104V289.408H848.406C849.744 289.428 850.857 289.584 851.746 289.877C853.259 290.375 854.485 291.288 855.422 292.616C856.174 293.69 856.687 294.853 856.961 296.103C857.234 297.353 857.371 298.544 857.371 299.677C857.371 302.548 856.795 304.979 855.642 306.972C854.08 309.657 851.668 311 848.406 311ZM851.76 294.916C851.067 293.744 849.695 293.158 847.644 293.158H843.484V307.25H847.644C849.773 307.25 851.257 306.2 852.097 304.101C852.556 302.948 852.786 301.576 852.786 299.984C852.786 297.787 852.444 296.098 851.76 294.916ZM875.813 301.566H865.325V307.118H877.278V311H860.916V289.408H876.751V293.231H865.325V297.816H875.813V301.566ZM888.63 307.88C889.695 307.88 890.559 307.763 891.223 307.528C892.483 307.079 893.113 306.244 893.113 305.023C893.113 304.311 892.8 303.759 892.175 303.368C891.55 302.987 890.569 302.65 889.231 302.357L886.946 301.845C884.7 301.337 883.147 300.785 882.288 300.189C880.833 299.193 880.105 297.636 880.105 295.517C880.105 293.583 880.808 291.977 882.214 290.697C883.621 289.418 885.686 288.778 888.411 288.778C890.686 288.778 892.625 289.384 894.226 290.595C895.838 291.796 896.682 293.544 896.76 295.839H892.424C892.346 294.54 891.78 293.617 890.725 293.07C890.022 292.709 889.148 292.528 888.103 292.528C886.941 292.528 886.013 292.763 885.32 293.231C884.627 293.7 884.28 294.354 884.28 295.194C884.28 295.966 884.622 296.542 885.305 296.923C885.745 297.177 886.682 297.475 888.118 297.816L891.838 298.71C893.469 299.101 894.7 299.623 895.53 300.277C896.819 301.293 897.463 302.763 897.463 304.687C897.463 306.659 896.707 308.3 895.193 309.608C893.689 310.907 891.56 311.557 888.806 311.557C885.994 311.557 883.782 310.917 882.171 309.638C880.559 308.349 879.754 306.581 879.754 304.335H884.06C884.197 305.321 884.465 306.059 884.866 306.547C885.598 307.436 886.853 307.88 888.63 307.88ZM900.452 289.408H904.934V311H900.452V289.408ZM922.395 310.473C921.204 311.205 919.739 311.571 918.001 311.571C915.139 311.571 912.796 310.58 910.969 308.598C909.065 306.605 908.113 303.881 908.113 300.424C908.113 296.928 909.075 294.125 910.999 292.016C912.922 289.906 915.466 288.852 918.63 288.852C921.375 288.852 923.577 289.55 925.237 290.946C926.907 292.333 927.864 294.066 928.108 296.146H923.67C923.328 294.672 922.493 293.642 921.165 293.056C920.422 292.733 919.597 292.572 918.689 292.572C916.951 292.572 915.52 293.231 914.397 294.55C913.284 295.858 912.727 297.831 912.727 300.468C912.727 303.124 913.333 305.004 914.544 306.107C915.755 307.211 917.131 307.763 918.674 307.763C920.188 307.763 921.428 307.328 922.395 306.459C923.362 305.58 923.958 304.433 924.182 303.017H919.187V299.413H928.181V311H925.193L924.739 308.305C923.87 309.33 923.088 310.053 922.395 310.473ZM949.963 311H945.452L936.633 295.663V311H932.429V289.408H937.161L945.759 304.481V289.408H949.963V311Z" fill="black"/>
<rect x="588.5" y="256.5" width="550" height="90" rx="45" stroke="black" stroke-width="3"/>
<path d="M635 2V0L631 0V2L635 2ZM631.586 52.9648C632.367 53.7458 633.633 53.7458 634.414 52.9648L647.142 40.2369C647.923 39.4558 647.923 38.1895 647.142 37.4084C646.361 36.6274 645.095 36.6274 644.314 37.4084L633 48.7221L621.686 37.4084C620.905 36.6274 619.639 36.6274 618.858 37.4084C618.077 38.1895 618.077 39.4558 618.858 40.2369L631.586 52.9648ZM631 2V51.5506H635V2L631 2Z" fill="#6000FD"/>
<path d="M705 2V0H701V2H705ZM701.586 52.9648C702.367 53.7458 703.633 53.7458 704.414 52.9648L717.142 40.2369C717.923 39.4558 717.923 38.1895 717.142 37.4084C716.361 36.6274 715.095 36.6274 714.314 37.4084L703 48.7221L691.686 37.4084C690.905 36.6274 689.639 36.6274 688.858 37.4084C688.077 38.1895 688.077 39.4558 688.858 40.2369L701.586 52.9648ZM701 2V51.5506H705V2H701Z" fill="#6000FD"/>
<path d="M775 2V0H771V2H775ZM771.586 52.9648C772.367 53.7458 773.633 53.7458 774.414 52.9648L787.142 40.2369C787.923 39.4558 787.923 38.1895 787.142 37.4084C786.361 36.6274 785.095 36.6274 784.314 37.4084L773 48.7221L761.686 37.4084C760.905 36.6274 759.639 36.6274 758.858 37.4084C758.077 38.1895 758.077 39.4558 758.858 40.2369L771.586 52.9648ZM771 2V51.5506H775V2H771Z" fill="#6000FD"/>
</svg>
