<svg width="1118" height="183" viewBox="0 0 1118 183" fill="none" xmlns="http://www.w3.org/2000/svg">
<rect x="1" y="137" width="393" height="45" rx="22.5" fill="#6000FD"/>
<rect x="2.41345" y="138.935" width="468.041" height="41.8207" rx="20.9104" stroke="black" stroke-width="3"/>
<path d="M9.25122 107.497H11.2141V113.425H18.675V107.497H20.6379V121.843H18.675V115.134H11.2141V121.843H9.25122V107.497ZM34.095 107.497V109.206H29.261V121.843H27.2883V109.206H22.4543V107.497H34.095ZM35.8333 107.497H38.6165L42.7375 119.626L46.8293 107.497H49.5833V121.843H47.7375V113.376C47.7375 113.083 47.7441 112.598 47.7571 111.921C47.7701 111.244 47.7766 110.518 47.7766 109.743L43.6848 121.843H41.761L37.6399 109.743V110.182C37.6399 110.534 37.6464 111.071 37.6594 111.794C37.679 112.51 37.6887 113.037 37.6887 113.376V121.843H35.8333V107.497ZM52.5422 107.497H54.4856V120.134H61.7512V121.843H52.5422V107.497ZM64.6223 118.278C64.7395 119.281 65.205 119.974 66.0188 120.358C66.4355 120.553 66.9172 120.651 67.4641 120.651C68.5058 120.651 69.2773 120.319 69.7786 119.655C70.2799 118.991 70.5305 118.255 70.5305 117.448C70.5305 116.471 70.231 115.716 69.6321 115.182C69.0396 114.649 68.3267 114.382 67.4934 114.382C66.8879 114.382 66.3671 114.499 65.9309 114.733C65.5012 114.968 65.1334 115.293 64.8274 115.71L63.304 115.622L64.3684 108.093H71.634V109.792H65.6868L65.0911 113.678C65.4166 113.431 65.7258 113.246 66.0188 113.122C66.5396 112.907 67.1418 112.8 67.8254 112.8C69.108 112.8 70.1952 113.213 71.0872 114.04C71.9791 114.867 72.425 115.915 72.425 117.184C72.425 118.506 72.0149 119.671 71.1946 120.68C70.3808 121.69 69.0787 122.194 67.2883 122.194C66.149 122.194 65.1399 121.875 64.261 121.237C63.3886 120.593 62.9003 119.606 62.7961 118.278H64.6223Z" fill="black"/>
<rect x="551" y="137" width="459" height="45" rx="22.5" fill="#6000FD"/>
<rect x="552.102" y="138.935" width="563.602" height="41.8207" rx="20.9104" stroke="black" stroke-width="3"/>
<path d="M564.935 107.519C566.752 107.519 568.161 107.998 569.164 108.955C570.167 109.912 570.723 110.999 570.834 112.217H568.939C568.724 111.292 568.295 110.56 567.65 110.019C567.012 109.479 566.114 109.209 564.955 109.209C563.542 109.209 562.4 109.707 561.527 110.703C560.661 111.692 560.228 113.213 560.228 115.263C560.228 116.943 560.619 118.307 561.4 119.355C562.188 120.397 563.36 120.918 564.916 120.918C566.348 120.918 567.439 120.368 568.187 119.267C568.585 118.688 568.881 117.926 569.076 116.982H570.971C570.801 118.493 570.241 119.759 569.291 120.781C568.152 122.011 566.615 122.627 564.682 122.627C563.015 122.627 561.615 122.122 560.482 121.113C558.991 119.778 558.246 117.718 558.246 114.931C558.246 112.816 558.806 111.08 559.926 109.726C561.137 108.255 562.807 107.519 564.935 107.519ZM574.613 117.627C574.659 118.441 574.851 119.101 575.189 119.609C575.834 120.56 576.97 121.035 578.598 121.035C579.327 121.035 579.991 120.931 580.59 120.722C581.749 120.319 582.328 119.596 582.328 118.554C582.328 117.773 582.084 117.217 581.596 116.885C581.101 116.559 580.326 116.276 579.271 116.035L577.328 115.595C576.058 115.309 575.16 114.993 574.633 114.648C573.721 114.049 573.266 113.154 573.266 111.963C573.266 110.674 573.711 109.616 574.603 108.789C575.495 107.962 576.758 107.549 578.392 107.549C579.896 107.549 581.172 107.913 582.221 108.642C583.275 109.365 583.803 110.524 583.803 112.119H581.976C581.879 111.351 581.67 110.761 581.351 110.351C580.759 109.603 579.753 109.228 578.334 109.228C577.188 109.228 576.364 109.469 575.863 109.951C575.362 110.433 575.111 110.993 575.111 111.631C575.111 112.334 575.404 112.848 575.99 113.174C576.374 113.382 577.243 113.642 578.598 113.955L580.609 114.414C581.579 114.635 582.328 114.938 582.855 115.322C583.767 115.993 584.223 116.966 584.223 118.242C584.223 119.83 583.643 120.967 582.484 121.65C581.332 122.334 579.991 122.676 578.461 122.676C576.677 122.676 575.28 122.22 574.271 121.308C573.262 120.403 572.767 119.176 572.787 117.627H574.613ZM587.953 117.627C587.999 118.441 588.191 119.101 588.529 119.609C589.174 120.56 590.31 121.035 591.937 121.035C592.667 121.035 593.331 120.931 593.93 120.722C595.088 120.319 595.668 119.596 595.668 118.554C595.668 117.773 595.424 117.217 594.935 116.885C594.441 116.559 593.666 116.276 592.611 116.035L590.668 115.595C589.398 115.309 588.5 114.993 587.973 114.648C587.061 114.049 586.605 113.154 586.605 111.963C586.605 110.674 587.051 109.616 587.943 108.789C588.835 107.962 590.098 107.549 591.732 107.549C593.236 107.549 594.512 107.913 595.56 108.642C596.615 109.365 597.142 110.524 597.142 112.119H595.316C595.219 111.351 595.01 110.761 594.691 110.351C594.099 109.603 593.093 109.228 591.674 109.228C590.528 109.228 589.704 109.469 589.203 109.951C588.702 110.433 588.451 110.993 588.451 111.631C588.451 112.334 588.744 112.848 589.33 113.174C589.714 113.382 590.583 113.642 591.937 113.955L593.949 114.414C594.919 114.635 595.668 114.938 596.195 115.322C597.107 115.993 597.562 116.966 597.562 118.242C597.562 119.83 596.983 120.967 595.824 121.65C594.672 122.334 593.331 122.676 591.801 122.676C590.017 122.676 588.62 122.22 587.611 121.308C586.602 120.403 586.107 119.176 586.127 117.627H587.953Z" fill="black"/>
<path d="M473.954 2.97266V0.972656L469.954 0.972656V2.97266H473.954ZM470.54 57.6643C471.321 58.4454 472.587 58.4454 473.368 57.6643L486.096 44.9364C486.877 44.1554 486.877 42.889 486.096 42.108C485.315 41.3269 484.049 41.3269 483.268 42.108L471.954 53.4217L460.64 42.108C459.859 41.3269 458.593 41.3269 457.812 42.108C457.031 42.889 457.031 44.1554 457.812 44.9364L470.54 57.6643ZM469.954 2.97266V56.2501H473.954V2.97266H469.954Z" fill="#6000FD"/>
<path d="M549.219 2.97266V0.972656H545.219V2.97266H549.219ZM545.805 57.6643C546.586 58.4454 547.852 58.4454 548.633 57.6643L561.361 44.9364C562.142 44.1554 562.142 42.889 561.361 42.108C560.58 41.3269 559.314 41.3269 558.533 42.108L547.219 53.4217L535.905 42.108C535.124 41.3269 533.858 41.3269 533.077 42.108C532.296 42.889 532.296 44.1554 533.077 44.9364L545.805 57.6643ZM545.219 2.97266V56.2501H549.219V2.97266H545.219Z" fill="#6000FD"/>
<path d="M624.484 2.97266V0.972656H620.484V2.97266H624.484ZM621.07 57.6643C621.851 58.4454 623.117 58.4454 623.898 57.6643L636.626 44.9364C637.407 44.1554 637.407 42.889 636.626 42.108C635.845 41.3269 634.579 41.3269 633.798 42.108L622.484 53.4217L611.17 42.108C610.389 41.3269 609.123 41.3269 608.342 42.108C607.561 42.889 607.561 44.1554 608.342 44.9364L621.07 57.6643ZM620.484 2.97266V56.2501H624.484V2.97266H620.484Z" fill="#6000FD"/>
</svg>
