<svg width="290" height="375" viewBox="0 0 290 375" fill="none" xmlns="http://www.w3.org/2000/svg">
<path d="M116.114 0.859001V0H114.413V0.859001H116.114ZM114.662 22.7484C114.994 23.0839 115.532 23.0839 115.864 22.7484L121.277 17.2818C121.609 16.9463 121.609 16.4024 121.277 16.0669C120.945 15.7315 120.407 15.7315 120.075 16.0669L115.263 20.9262L110.452 16.0669C110.12 15.7315 109.581 15.7315 109.249 16.0669C108.917 16.4024 108.917 16.9463 109.249 17.2818L114.662 22.7484ZM114.413 0.859001V22.141H116.114V0.859001H114.413Z" fill="#6000FD"/>
<path d="M145.882 0.859001V0H144.181V0.859001H145.882ZM144.43 22.7484C144.762 23.0839 145.301 23.0839 145.633 22.7484L151.045 17.2818C151.378 16.9463 151.378 16.4024 151.045 16.0669C150.713 15.7315 150.175 15.7315 149.843 16.0669L145.031 20.9262L140.22 16.0669C139.888 15.7315 139.349 15.7315 139.017 16.0669C138.685 16.4024 138.685 16.9463 139.017 17.2818L144.43 22.7484ZM144.181 0.859001V22.141H145.882V0.859001H144.181Z" fill="#6000FD"/>
<path d="M175.65 0.859001V0H173.949V0.859001H175.65ZM174.198 22.7484C174.53 23.0839 175.069 23.0839 175.401 22.7484L180.814 17.2818C181.146 16.9463 181.146 16.4024 180.814 16.0669C180.482 15.7315 179.943 15.7315 179.611 16.0669L174.8 20.9262L169.988 16.0669C169.656 15.7315 169.118 15.7315 168.786 16.0669C168.453 16.4024 168.453 16.9463 168.786 17.2818L174.198 22.7484ZM173.949 0.859001V22.141H175.65V0.859001H173.949Z" fill="#6000FD"/>
<rect y="74" width="270.913" height="28.726" rx="14.363" fill="#6000FD"/>
<rect x="1" y="75" width="288" height="26.726" rx="13.363" stroke="black" stroke-width="2"/>
<path d="M9.17773 56.3926H10.3555V65H9.17773V56.3926ZM12.2539 56.3926H13.4199V63.9746H17.7793V65H12.2539V56.3926ZM18.9336 56.3926H20.0996V63.9746H24.459V65H18.9336V56.3926ZM26.8789 56.3926V61.7129C26.8789 62.3379 26.9961 62.8574 27.2305 63.2715C27.5781 63.8965 28.1641 64.209 28.9883 64.209C29.9766 64.209 30.6484 63.8711 31.0039 63.1953C31.1953 62.8281 31.291 62.334 31.291 61.7129V56.3926H32.4746V61.2266C32.4746 62.2852 32.332 63.0996 32.0469 63.6699C31.5234 64.709 30.5352 65.2285 29.082 65.2285C27.6289 65.2285 26.6426 64.709 26.123 63.6699C25.8379 63.0996 25.6953 62.2852 25.6953 61.2266V56.3926H26.8789ZM35.0469 62.2227C35.0742 62.7109 35.1895 63.1074 35.3926 63.4121C35.7793 63.9824 36.4609 64.2676 37.4375 64.2676C37.875 64.2676 38.2734 64.2051 38.6328 64.0801C39.3281 63.8379 39.6758 63.4043 39.6758 62.7793C39.6758 62.3105 39.5293 61.9766 39.2363 61.7773C38.9395 61.582 38.4746 61.4121 37.8418 61.2676L36.6758 61.0039C35.9141 60.832 35.375 60.6426 35.0586 60.4355C34.5117 60.0762 34.2383 59.5391 34.2383 58.8242C34.2383 58.0508 34.5059 57.416 35.041 56.9199C35.5762 56.4238 36.334 56.1758 37.3145 56.1758C38.2168 56.1758 38.9824 56.3945 39.6113 56.832C40.2441 57.2656 40.5605 57.9609 40.5605 58.918H39.4648C39.4062 58.457 39.2812 58.1035 39.0898 57.8574C38.7344 57.4082 38.1309 57.1836 37.2793 57.1836C36.5918 57.1836 36.0977 57.3281 35.7969 57.6172C35.4961 57.9062 35.3457 58.2422 35.3457 58.625C35.3457 59.0469 35.5215 59.3555 35.873 59.5508C36.1035 59.6758 36.625 59.832 37.4375 60.0195L38.6445 60.2949C39.2266 60.4277 39.6758 60.6094 39.9922 60.8398C40.5391 61.2422 40.8125 61.8262 40.8125 62.5918C40.8125 63.5449 40.4648 64.2266 39.7695 64.6367C39.0781 65.0469 38.2734 65.252 37.3555 65.252C36.2852 65.252 35.4473 64.9785 34.8418 64.4316C34.2363 63.8887 33.9395 63.1523 33.9512 62.2227H35.0469ZM48.5527 56.3926V57.418H45.6523V65H44.4688V57.418H41.5684V56.3926H48.5527ZM53.627 60.3359C54.1738 60.3359 54.6055 60.2266 54.9219 60.0078C55.2422 59.7891 55.4023 59.3945 55.4023 58.8242C55.4023 58.2109 55.1797 57.793 54.7344 57.5703C54.4961 57.4531 54.1777 57.3945 53.7793 57.3945H50.9316V60.3359H53.627ZM49.7656 56.3926H53.75C54.4062 56.3926 54.9473 56.4883 55.373 56.6797C56.1816 57.0469 56.5859 57.7246 56.5859 58.7129C56.5859 59.2285 56.4785 59.6504 56.2637 59.9785C56.0527 60.3066 55.7559 60.5703 55.373 60.7695C55.709 60.9062 55.9609 61.0859 56.1289 61.3086C56.3008 61.5312 56.3965 61.8926 56.416 62.3926L56.457 63.5469C56.4688 63.875 56.4961 64.1191 56.5391 64.2793C56.6094 64.5527 56.7344 64.7285 56.9141 64.8066V65H55.4844C55.4453 64.9258 55.4141 64.8301 55.3906 64.7129C55.3672 64.5957 55.3477 64.3691 55.332 64.0332L55.2617 62.5977C55.2344 62.0352 55.0254 61.6582 54.6348 61.4668C54.4121 61.3613 54.0625 61.3086 53.5859 61.3086H50.9316V65H49.7656V56.3926ZM62.7148 61.4727L61.4082 57.6699L60.0195 61.4727H62.7148ZM60.7988 56.3926H62.1172L65.2402 65H63.9629L63.0898 62.4219H59.6855L58.7539 65H57.5586L60.7988 56.3926ZM71.6738 56.3926V57.418H68.7734V65H67.5898V57.418H64.6895V56.3926H71.6738ZM76.25 56.1582C77.7695 56.1582 78.8945 56.6465 79.625 57.623C80.1953 58.3848 80.4805 59.3594 80.4805 60.5469C80.4805 61.832 80.1543 62.9004 79.502 63.752C78.7363 64.752 77.6445 65.252 76.2266 65.252C74.9023 65.252 73.8613 64.8145 73.1035 63.9395C72.4277 63.0957 72.0898 62.0293 72.0898 60.7402C72.0898 59.5762 72.3789 58.5801 72.957 57.752C73.6992 56.6895 74.7969 56.1582 76.25 56.1582ZM76.3672 64.209C77.3945 64.209 78.1367 63.8418 78.5938 63.1074C79.0547 62.3691 79.2852 61.5215 79.2852 60.5645C79.2852 59.5527 79.0195 58.7383 78.4883 58.1211C77.9609 57.5039 77.2383 57.1953 76.3203 57.1953C75.4297 57.1953 74.7031 57.502 74.1406 58.1152C73.5781 58.7246 73.2969 59.625 73.2969 60.8164C73.2969 61.7695 73.5371 62.5742 74.0176 63.2305C74.502 63.8828 75.2852 64.209 76.3672 64.209ZM85.877 60.3359C86.4238 60.3359 86.8555 60.2266 87.1719 60.0078C87.4922 59.7891 87.6523 59.3945 87.6523 58.8242C87.6523 58.2109 87.4297 57.793 86.9844 57.5703C86.7461 57.4531 86.4277 57.3945 86.0293 57.3945H83.1816V60.3359H85.877ZM82.0156 56.3926H86C86.6562 56.3926 87.1973 56.4883 87.623 56.6797C88.4316 57.0469 88.8359 57.7246 88.8359 58.7129C88.8359 59.2285 88.7285 59.6504 88.5137 59.9785C88.3027 60.3066 88.0059 60.5703 87.623 60.7695C87.959 60.9062 88.2109 61.0859 88.3789 61.3086C88.5508 61.5312 88.6465 61.8926 88.666 62.3926L88.707 63.5469C88.7188 63.875 88.7461 64.1191 88.7891 64.2793C88.8594 64.5527 88.9844 64.7285 89.1641 64.8066V65H87.7344C87.6953 64.9258 87.6641 64.8301 87.6406 64.7129C87.6172 64.5957 87.5977 64.3691 87.582 64.0332L87.5117 62.5977C87.4844 62.0352 87.2754 61.6582 86.8848 61.4668C86.6621 61.3613 86.3125 61.3086 85.8359 61.3086H83.1816V65H82.0156V56.3926Z" fill="black"/>
<rect y="142" width="270.913" height="28.726" rx="14.363" fill="#6000FD"/>
<rect x="1" y="143" width="288" height="26.726" rx="13.363" stroke="black" stroke-width="2"/>
<path d="M9.02539 124.393H12.8984C13.6641 124.393 14.2812 124.609 14.75 125.043C15.2188 125.473 15.4531 126.078 15.4531 126.859C15.4531 127.531 15.2441 128.117 14.8262 128.617C14.4082 129.113 13.7656 129.361 12.8984 129.361H10.1914V133H9.02539V124.393ZM14.2754 126.865C14.2754 126.232 14.041 125.803 13.5723 125.576C13.3145 125.455 12.9609 125.395 12.5117 125.395H10.1914V128.377H12.5117C13.0352 128.377 13.459 128.266 13.7832 128.043C14.1113 127.82 14.2754 127.428 14.2754 126.865ZM16.9473 124.393H18.125V127.949H22.6016V124.393H23.7793V133H22.6016V128.975H18.125V133H16.9473V124.393ZM29.3047 124.158C30.8242 124.158 31.9492 124.646 32.6797 125.623C33.25 126.385 33.5352 127.359 33.5352 128.547C33.5352 129.832 33.209 130.9 32.5566 131.752C31.791 132.752 30.6992 133.252 29.2812 133.252C27.957 133.252 26.916 132.814 26.1582 131.939C25.4824 131.096 25.1445 130.029 25.1445 128.74C25.1445 127.576 25.4336 126.58 26.0117 125.752C26.7539 124.689 27.8516 124.158 29.3047 124.158ZM29.4219 132.209C30.4492 132.209 31.1914 131.842 31.6484 131.107C32.1094 130.369 32.3398 129.521 32.3398 128.564C32.3398 127.553 32.0742 126.738 31.543 126.121C31.0156 125.504 30.293 125.195 29.375 125.195C28.4844 125.195 27.7578 125.502 27.1953 126.115C26.6328 126.725 26.3516 127.625 26.3516 128.816C26.3516 129.77 26.5918 130.574 27.0723 131.23C27.5566 131.883 28.3398 132.209 29.4219 132.209ZM41.1934 124.393V125.418H38.293V133H37.1094V125.418H34.209V124.393H41.1934ZM45.7695 124.158C47.2891 124.158 48.4141 124.646 49.1445 125.623C49.7148 126.385 50 127.359 50 128.547C50 129.832 49.6738 130.9 49.0215 131.752C48.2559 132.752 47.1641 133.252 45.7461 133.252C44.4219 133.252 43.3809 132.814 42.623 131.939C41.9473 131.096 41.6094 130.029 41.6094 128.74C41.6094 127.576 41.8984 126.58 42.4766 125.752C43.2188 124.689 44.3164 124.158 45.7695 124.158ZM45.8867 132.209C46.9141 132.209 47.6562 131.842 48.1133 131.107C48.5742 130.369 48.8047 129.521 48.8047 128.564C48.8047 127.553 48.5391 126.738 48.0078 126.121C47.4805 125.504 46.7578 125.195 45.8398 125.195C44.9492 125.195 44.2227 125.502 43.6602 126.115C43.0977 126.725 42.8164 127.625 42.8164 128.816C42.8164 129.77 43.0566 130.574 43.5371 131.23C44.0215 131.883 44.8047 132.209 45.8867 132.209ZM52.1562 130.223C52.1836 130.711 52.2988 131.107 52.502 131.412C52.8887 131.982 53.5703 132.268 54.5469 132.268C54.9844 132.268 55.3828 132.205 55.7422 132.08C56.4375 131.838 56.7852 131.404 56.7852 130.779C56.7852 130.311 56.6387 129.977 56.3457 129.777C56.0488 129.582 55.584 129.412 54.9512 129.268L53.7852 129.004C53.0234 128.832 52.4844 128.643 52.168 128.436C51.6211 128.076 51.3477 127.539 51.3477 126.824C51.3477 126.051 51.6152 125.416 52.1504 124.92C52.6855 124.424 53.4434 124.176 54.4238 124.176C55.3262 124.176 56.0918 124.395 56.7207 124.832C57.3535 125.266 57.6699 125.961 57.6699 126.918H56.5742C56.5156 126.457 56.3906 126.104 56.1992 125.857C55.8438 125.408 55.2402 125.184 54.3887 125.184C53.7012 125.184 53.207 125.328 52.9062 125.617C52.6055 125.906 52.4551 126.242 52.4551 126.625C52.4551 127.047 52.6309 127.355 52.9824 127.551C53.2129 127.676 53.7344 127.832 54.5469 128.02L55.7539 128.295C56.3359 128.428 56.7852 128.609 57.1016 128.84C57.6484 129.242 57.9219 129.826 57.9219 130.592C57.9219 131.545 57.5742 132.227 56.8789 132.637C56.1875 133.047 55.3828 133.252 54.4648 133.252C53.3945 133.252 52.5566 132.979 51.9512 132.432C51.3457 131.889 51.0488 131.152 51.0605 130.223H52.1562ZM59.4277 124.393H60.6055V127.949H65.082V124.393H66.2598V133H65.082V128.975H60.6055V133H59.4277V124.393ZM71.7852 124.158C73.3047 124.158 74.4297 124.646 75.1602 125.623C75.7305 126.385 76.0156 127.359 76.0156 128.547C76.0156 129.832 75.6895 130.9 75.0371 131.752C74.2715 132.752 73.1797 133.252 71.7617 133.252C70.4375 133.252 69.3965 132.814 68.6387 131.939C67.9629 131.096 67.625 130.029 67.625 128.74C67.625 127.576 67.9141 126.58 68.4922 125.752C69.2344 124.689 70.332 124.158 71.7852 124.158ZM71.9023 132.209C72.9297 132.209 73.6719 131.842 74.1289 131.107C74.5898 130.369 74.8203 129.521 74.8203 128.564C74.8203 127.553 74.5547 126.738 74.0234 126.121C73.4961 125.504 72.7734 125.195 71.8555 125.195C70.9648 125.195 70.2383 125.502 69.6758 126.115C69.1133 126.725 68.832 127.625 68.832 128.816C68.832 129.77 69.0723 130.574 69.5527 131.23C70.0371 131.883 70.8203 132.209 71.9023 132.209ZM77.5215 124.393H81.3945C82.1602 124.393 82.7773 124.609 83.2461 125.043C83.7148 125.473 83.9492 126.078 83.9492 126.859C83.9492 127.531 83.7402 128.117 83.3223 128.617C82.9043 129.113 82.2617 129.361 81.3945 129.361H78.6875V133H77.5215V124.393ZM82.7715 126.865C82.7715 126.232 82.5371 125.803 82.0684 125.576C81.8105 125.455 81.457 125.395 81.0078 125.395H78.6875V128.377H81.0078C81.5312 128.377 81.9551 128.266 82.2793 128.043C82.6074 127.82 82.7715 127.428 82.7715 126.865Z" fill="black"/>
<rect y="210" width="270.913" height="28.726" rx="14.363" fill="#6000FD"/>
<rect x="1" y="211" width="288" height="26.726" rx="13.363" stroke="black" stroke-width="2"/>
<path d="M9.17773 192.393H10.3555V201H9.17773V192.393ZM12.2539 192.393H13.6309L17.9785 199.365V192.393H19.0859V201H17.7793L13.3672 194.033V201H12.2539V192.393ZM24.2305 200.004C24.625 200.004 24.9492 199.963 25.2031 199.881C25.6562 199.729 26.0273 199.436 26.3164 199.002C26.5469 198.654 26.7129 198.209 26.8145 197.666C26.873 197.342 26.9023 197.041 26.9023 196.764C26.9023 195.697 26.6895 194.869 26.2637 194.279C25.8418 193.689 25.1602 193.395 24.2188 193.395H22.1504V200.004H24.2305ZM20.9785 192.393H24.4648C25.6484 192.393 26.5664 192.812 27.2188 193.652C27.8008 194.41 28.0918 195.381 28.0918 196.564C28.0918 197.479 27.9199 198.305 27.5762 199.043C26.9707 200.348 25.9297 201 24.4531 201H20.9785V192.393ZM29.709 192.393H35.9844V193.447H30.8457V196.061H35.5977V197.057H30.8457V199.975H36.0723V201H29.709V192.393ZM38.3633 198.223C38.3906 198.711 38.5059 199.107 38.709 199.412C39.0957 199.982 39.7773 200.268 40.7539 200.268C41.1914 200.268 41.5898 200.205 41.9492 200.08C42.6445 199.838 42.9922 199.404 42.9922 198.779C42.9922 198.311 42.8457 197.977 42.5527 197.777C42.2559 197.582 41.791 197.412 41.1582 197.268L39.9922 197.004C39.2305 196.832 38.6914 196.643 38.375 196.436C37.8281 196.076 37.5547 195.539 37.5547 194.824C37.5547 194.051 37.8223 193.416 38.3574 192.92C38.8926 192.424 39.6504 192.176 40.6309 192.176C41.5332 192.176 42.2988 192.395 42.9277 192.832C43.5605 193.266 43.877 193.961 43.877 194.918H42.7812C42.7227 194.457 42.5977 194.104 42.4062 193.857C42.0508 193.408 41.4473 193.184 40.5957 193.184C39.9082 193.184 39.4141 193.328 39.1133 193.617C38.8125 193.906 38.6621 194.242 38.6621 194.625C38.6621 195.047 38.8379 195.355 39.1895 195.551C39.4199 195.676 39.9414 195.832 40.7539 196.02L41.9609 196.295C42.543 196.428 42.9922 196.609 43.3086 196.84C43.8555 197.242 44.1289 197.826 44.1289 198.592C44.1289 199.545 43.7812 200.227 43.0859 200.637C42.3945 201.047 41.5898 201.252 40.6719 201.252C39.6016 201.252 38.7637 200.979 38.1582 200.432C37.5527 199.889 37.2559 199.152 37.2676 198.223H38.3633ZM45.8691 192.393H47.0469V201H45.8691V192.393ZM52.666 192.17C53.4746 192.17 54.1738 192.326 54.7637 192.639C55.6191 193.088 56.1426 193.875 56.334 195H55.1797C55.0391 194.371 54.748 193.914 54.3066 193.629C53.8652 193.34 53.3086 193.195 52.6367 193.195C51.8398 193.195 51.168 193.494 50.6211 194.092C50.0781 194.689 49.8066 195.58 49.8066 196.764C49.8066 197.787 50.0312 198.621 50.4805 199.266C50.9297 199.906 51.6621 200.227 52.6777 200.227C53.4551 200.227 54.0977 200.002 54.6055 199.553C55.1172 199.1 55.3789 198.369 55.3906 197.361H52.6953V196.395H56.4746V201H55.7246L55.4434 199.893C55.0488 200.326 54.6992 200.627 54.3945 200.795C53.8828 201.084 53.2324 201.229 52.4434 201.229C51.4238 201.229 50.5469 200.898 49.8125 200.238C49.0117 199.41 48.6113 198.273 48.6113 196.828C48.6113 195.387 49.002 194.24 49.7832 193.389C50.5254 192.576 51.4863 192.17 52.666 192.17ZM58.2852 192.393H59.6621L64.0098 199.365V192.393H65.1172V201H63.8105L59.3984 194.033V201H58.2852V192.393Z" fill="black"/>
<rect y="346" width="225" height="29" rx="14.5" fill="#6000FD"/>
<rect x="1" y="347" width="288" height="26.726" rx="13.363" stroke="black" stroke-width="2"/>
<path d="M9.02539 328.393H14.9961V329.447H10.1914V332.061H14.416V333.086H10.1914V337H9.02539V328.393ZM16.5137 328.393H17.6914V337H16.5137V328.393ZM23.3105 328.17C24.1191 328.17 24.8184 328.326 25.4082 328.639C26.2637 329.088 26.7871 329.875 26.9785 331H25.8242C25.6836 330.371 25.3926 329.914 24.9512 329.629C24.5098 329.34 23.9531 329.195 23.2812 329.195C22.4844 329.195 21.8125 329.494 21.2656 330.092C20.7227 330.689 20.4512 331.58 20.4512 332.764C20.4512 333.787 20.6758 334.621 21.125 335.266C21.5742 335.906 22.3066 336.227 23.3223 336.227C24.0996 336.227 24.7422 336.002 25.25 335.553C25.7617 335.1 26.0234 334.369 26.0352 333.361H23.3398V332.395H27.1191V337H26.3691L26.0879 335.893C25.6934 336.326 25.3438 336.627 25.0391 336.795C24.5273 337.084 23.877 337.229 23.0879 337.229C22.0684 337.229 21.1914 336.898 20.457 336.238C19.6562 335.41 19.2559 334.273 19.2559 332.828C19.2559 331.387 19.6465 330.24 20.4277 329.389C21.1699 328.576 22.1309 328.17 23.3105 328.17ZM28.9004 328.393H30.5703L33.043 335.67L35.498 328.393H37.1504V337H36.043V331.92C36.043 331.744 36.0469 331.453 36.0547 331.047C36.0625 330.641 36.0664 330.205 36.0664 329.74L33.6113 337H32.457L29.9844 329.74V330.004C29.9844 330.215 29.9883 330.537 29.9961 330.971C30.0078 331.4 30.0137 331.717 30.0137 331.92V337H28.9004V328.393ZM43.3438 333.473L42.0371 329.67L40.6484 333.473H43.3438ZM41.4277 328.393H42.7461L45.8691 337H44.5918L43.7188 334.422H40.3145L39.3828 337H38.1875L41.4277 328.393Z" fill="black"/>
<rect y="278" width="145" height="29" rx="14.5" fill="#6000FD"/>
<rect x="1" y="279" width="288" height="26.726" rx="13.363" stroke="black" stroke-width="2"/>
<path d="M13.332 265.473L12.0254 261.67L10.6367 265.473H13.332ZM11.416 260.393H12.7344L15.8574 269H14.5801L13.707 266.422H10.3027L9.37109 269H8.17578L11.416 260.393ZM17.0293 260.393H23V261.447H18.1953V264.061H22.4199V265.086H18.1953V269H17.0293V260.393ZM30.5176 260.393V261.418H27.6172V269H26.4336V261.418H23.5332V260.393H30.5176ZM31.7012 260.393H37.9766V261.447H32.8379V264.061H37.5898V265.057H32.8379V267.975H38.0645V269H31.7012V260.393ZM43.5957 264.336C44.1426 264.336 44.5742 264.227 44.8906 264.008C45.2109 263.789 45.3711 263.395 45.3711 262.824C45.3711 262.211 45.1484 261.793 44.7031 261.57C44.4648 261.453 44.1465 261.395 43.748 261.395H40.9004V264.336H43.5957ZM39.7344 260.393H43.7188C44.375 260.393 44.916 260.488 45.3418 260.68C46.1504 261.047 46.5547 261.725 46.5547 262.713C46.5547 263.229 46.4473 263.65 46.2324 263.979C46.0215 264.307 45.7246 264.57 45.3418 264.77C45.6777 264.906 45.9297 265.086 46.0977 265.309C46.2695 265.531 46.3652 265.893 46.3848 266.393L46.4258 267.547C46.4375 267.875 46.4648 268.119 46.5078 268.279C46.5781 268.553 46.7031 268.729 46.8828 268.807V269H45.4531C45.4141 268.926 45.3828 268.83 45.3594 268.713C45.3359 268.596 45.3164 268.369 45.3008 268.033L45.2305 266.598C45.2031 266.035 44.9941 265.658 44.6035 265.467C44.3809 265.361 44.0312 265.309 43.5547 265.309H40.9004V269H39.7344V260.393ZM48.377 260.393H54.6523V261.447H49.5137V264.061H54.2656V265.057H49.5137V267.975H54.7402V269H48.377V260.393ZM56.3809 260.393H62.3516V261.447H57.5469V264.061H61.7715V265.086H57.5469V269H56.3809V260.393ZM63.7168 260.393H69.6875V261.447H64.8828V264.061H69.1074V265.086H64.8828V269H63.7168V260.393ZM71.0527 260.393H77.3281V261.447H72.1895V264.061H76.9414V265.057H72.1895V267.975H77.416V269H71.0527V260.393ZM82.5723 260.158C83.6621 260.158 84.5078 260.445 85.1094 261.02C85.7109 261.594 86.0449 262.246 86.1113 262.977H84.9746C84.8457 262.422 84.5879 261.982 84.2012 261.658C83.8184 261.334 83.2793 261.172 82.584 261.172C81.7363 261.172 81.0508 261.471 80.5273 262.068C80.0078 262.662 79.748 263.574 79.748 264.805C79.748 265.812 79.9824 266.631 80.4512 267.26C80.9238 267.885 81.627 268.197 82.5605 268.197C83.4199 268.197 84.0742 267.867 84.5234 267.207C84.7617 266.859 84.9395 266.402 85.0566 265.836H86.1934C86.0918 266.742 85.7559 267.502 85.1855 268.115C84.502 268.854 83.5801 269.223 82.4199 269.223C81.4199 269.223 80.5801 268.92 79.9004 268.314C79.0059 267.514 78.5586 266.277 78.5586 264.605C78.5586 263.336 78.8945 262.295 79.5664 261.482C80.293 260.6 81.2949 260.158 82.5723 260.158ZM93.8809 260.393V261.418H90.9805V269H89.7969V261.418H86.8965V260.393H93.8809ZM95.7148 266.223C95.7422 266.711 95.8574 267.107 96.0605 267.412C96.4473 267.982 97.1289 268.268 98.1055 268.268C98.543 268.268 98.9414 268.205 99.3008 268.08C99.9961 267.838 100.344 267.404 100.344 266.779C100.344 266.311 100.197 265.977 99.9043 265.777C99.6074 265.582 99.1426 265.412 98.5098 265.268L97.3438 265.004C96.582 264.832 96.043 264.643 95.7266 264.436C95.1797 264.076 94.9062 263.539 94.9062 262.824C94.9062 262.051 95.1738 261.416 95.709 260.92C96.2441 260.424 97.002 260.176 97.9824 260.176C98.8848 260.176 99.6504 260.395 100.279 260.832C100.912 261.266 101.229 261.961 101.229 262.918H100.133C100.074 262.457 99.9492 262.104 99.7578 261.857C99.4023 261.408 98.7988 261.184 97.9473 261.184C97.2598 261.184 96.7656 261.328 96.4648 261.617C96.1641 261.906 96.0137 262.242 96.0137 262.625C96.0137 263.047 96.1895 263.355 96.541 263.551C96.7715 263.676 97.293 263.832 98.1055 264.02L99.3125 264.295C99.8945 264.428 100.344 264.609 100.66 264.84C101.207 265.242 101.48 265.826 101.48 266.592C101.48 267.545 101.133 268.227 100.438 268.637C99.7461 269.047 98.9414 269.252 98.0234 269.252C96.9531 269.252 96.1152 268.979 95.5098 268.432C94.9043 267.889 94.6074 267.152 94.6191 266.223H95.7148Z" fill="black"/>
</svg>
