<svg width="290" height="159" viewBox="0 0 290 159" fill="none" xmlns="http://www.w3.org/2000/svg">
<path d="M116.114 0.859001V0H114.413V0.859001H116.114ZM114.662 22.7484C114.994 23.0839 115.532 23.0839 115.864 22.7484L121.277 17.2818C121.609 16.9463 121.609 16.4024 121.277 16.0669C120.945 15.7315 120.407 15.7315 120.075 16.0669L115.263 20.9262L110.452 16.0669C110.12 15.7315 109.581 15.7315 109.249 16.0669C108.917 16.4024 108.917 16.9463 109.249 17.2818L114.662 22.7484ZM114.413 0.859001V22.141H116.114V0.859001H114.413Z" fill="#6000FD"/>
<path d="M145.882 0.859001V0H144.181V0.859001H145.882ZM144.43 22.7484C144.762 23.0839 145.301 23.0839 145.633 22.7484L151.045 17.2818C151.378 16.9463 151.378 16.4024 151.045 16.0669C150.713 15.7315 150.175 15.7315 149.843 16.0669L145.031 20.9262L140.22 16.0669C139.888 15.7315 139.349 15.7315 139.017 16.0669C138.685 16.4024 138.685 16.9463 139.017 17.2818L144.43 22.7484ZM144.181 0.859001V22.141H145.882V0.859001H144.181Z" fill="#6000FD"/>
<path d="M175.65 0.859001V0H173.949V0.859001H175.65ZM174.198 22.7484C174.53 23.0839 175.069 23.0839 175.401 22.7484L180.814 17.2818C181.146 16.9463 181.146 16.4024 180.814 16.0669C180.482 15.7315 179.943 15.7315 179.611 16.0669L174.8 20.9262L169.988 16.0669C169.656 15.7315 169.118 15.7315 168.786 16.0669C168.453 16.4024 168.453 16.9463 168.786 17.2818L174.198 22.7484ZM173.949 0.859001V22.141H175.65V0.859001H173.949Z" fill="#6000FD"/>
<rect y="62" width="177" height="29" rx="14.5" fill="#6000FD"/>
<rect x="1" y="63" width="288" height="26.726" rx="13.363" stroke="black" stroke-width="2"/>
<path d="M8.94336 44.3926H10.1211V47.9492H14.5977V44.3926H15.7754V53H14.5977V48.9746H10.1211V53H8.94336V44.3926ZM23.8496 44.3926V45.418H20.9492V53H19.7656V45.418H16.8652V44.3926H23.8496ZM24.8926 44.3926H26.5625L29.0352 51.6699L31.4902 44.3926H33.1426V53H32.0352V47.9199C32.0352 47.7441 32.0391 47.4531 32.0469 47.0469C32.0547 46.6406 32.0586 46.2051 32.0586 45.7402L29.6035 53H28.4492L25.9766 45.7402V46.0039C25.9766 46.2148 25.9805 46.5371 25.9883 46.9707C26 47.4004 26.0059 47.7168 26.0059 47.9199V53H24.8926V44.3926ZM34.918 44.3926H36.084V51.9746H40.4434V53H34.918V44.3926ZM42.166 50.8613C42.2363 51.4629 42.5156 51.8789 43.0039 52.1094C43.2539 52.2266 43.543 52.2852 43.8711 52.2852C44.4961 52.2852 44.959 52.0859 45.2598 51.6875C45.5605 51.2891 45.7109 50.8477 45.7109 50.3633C45.7109 49.7773 45.5312 49.3242 45.1719 49.0039C44.8164 48.6836 44.3887 48.5234 43.8887 48.5234C43.5254 48.5234 43.2129 48.5938 42.9512 48.7344C42.6934 48.875 42.4727 49.0703 42.2891 49.3203L41.375 49.2676L42.0137 44.75H46.373V45.7695H42.8047L42.4473 48.1016C42.6426 47.9531 42.8281 47.8418 43.0039 47.7676C43.3164 47.6387 43.6777 47.5742 44.0879 47.5742C44.8574 47.5742 45.5098 47.8223 46.0449 48.3184C46.5801 48.8145 46.8477 49.4434 46.8477 50.2051C46.8477 50.998 46.6016 51.6973 46.1094 52.3027C45.6211 52.9082 44.8398 53.2109 43.7656 53.2109C43.082 53.2109 42.4766 53.0195 41.9492 52.6367C41.4258 52.25 41.1328 51.6582 41.0703 50.8613H42.166Z" fill="black"/>
<rect y="130" width="170" height="29" rx="14.5" fill="#6000FD"/>
<rect x="1" y="131" width="288" height="26.726" rx="13.363" stroke="black" stroke-width="2"/>
<path d="M12.541 112.158C13.6309 112.158 14.4766 112.445 15.0781 113.02C15.6797 113.594 16.0137 114.246 16.0801 114.977H14.9434C14.8145 114.422 14.5566 113.982 14.1699 113.658C13.7871 113.334 13.248 113.172 12.5527 113.172C11.7051 113.172 11.0195 113.471 10.4961 114.068C9.97656 114.662 9.7168 115.574 9.7168 116.805C9.7168 117.812 9.95117 118.631 10.4199 119.26C10.8926 119.885 11.5957 120.197 12.5293 120.197C13.3887 120.197 14.043 119.867 14.4922 119.207C14.7305 118.859 14.9082 118.402 15.0254 117.836H16.1621C16.0605 118.742 15.7246 119.502 15.1543 120.115C14.4707 120.854 13.5488 121.223 12.3887 121.223C11.3887 121.223 10.5488 120.92 9.86914 120.314C8.97461 119.514 8.52734 118.277 8.52734 116.605C8.52734 115.336 8.86328 114.295 9.53516 113.482C10.2617 112.6 11.2637 112.158 12.541 112.158ZM18.3477 118.223C18.375 118.711 18.4902 119.107 18.6934 119.412C19.0801 119.982 19.7617 120.268 20.7383 120.268C21.1758 120.268 21.5742 120.205 21.9336 120.08C22.6289 119.838 22.9766 119.404 22.9766 118.779C22.9766 118.311 22.8301 117.977 22.5371 117.777C22.2402 117.582 21.7754 117.412 21.1426 117.268L19.9766 117.004C19.2148 116.832 18.6758 116.643 18.3594 116.436C17.8125 116.076 17.5391 115.539 17.5391 114.824C17.5391 114.051 17.8066 113.416 18.3418 112.92C18.877 112.424 19.6348 112.176 20.6152 112.176C21.5176 112.176 22.2832 112.395 22.9121 112.832C23.5449 113.266 23.8613 113.961 23.8613 114.918H22.7656C22.707 114.457 22.582 114.104 22.3906 113.857C22.0352 113.408 21.4316 113.184 20.5801 113.184C19.8926 113.184 19.3984 113.328 19.0977 113.617C18.7969 113.906 18.6465 114.242 18.6465 114.625C18.6465 115.047 18.8223 115.355 19.1738 115.551C19.4043 115.676 19.9258 115.832 20.7383 116.02L21.9453 116.295C22.5273 116.428 22.9766 116.609 23.293 116.84C23.8398 117.242 24.1133 117.826 24.1133 118.592C24.1133 119.545 23.7656 120.227 23.0703 120.637C22.3789 121.047 21.5742 121.252 20.6562 121.252C19.5859 121.252 18.748 120.979 18.1426 120.432C17.5371 119.889 17.2402 119.152 17.252 118.223H18.3477ZM26.3516 118.223C26.3789 118.711 26.4941 119.107 26.6973 119.412C27.084 119.982 27.7656 120.268 28.7422 120.268C29.1797 120.268 29.5781 120.205 29.9375 120.08C30.6328 119.838 30.9805 119.404 30.9805 118.779C30.9805 118.311 30.834 117.977 30.541 117.777C30.2441 117.582 29.7793 117.412 29.1465 117.268L27.9805 117.004C27.2188 116.832 26.6797 116.643 26.3633 116.436C25.8164 116.076 25.543 115.539 25.543 114.824C25.543 114.051 25.8105 113.416 26.3457 112.92C26.8809 112.424 27.6387 112.176 28.6191 112.176C29.5215 112.176 30.2871 112.395 30.916 112.832C31.5488 113.266 31.8652 113.961 31.8652 114.918H30.7695C30.7109 114.457 30.5859 114.104 30.3945 113.857C30.0391 113.408 29.4355 113.184 28.584 113.184C27.8965 113.184 27.4023 113.328 27.1016 113.617C26.8008 113.906 26.6504 114.242 26.6504 114.625C26.6504 115.047 26.8262 115.355 27.1777 115.551C27.4082 115.676 27.9297 115.832 28.7422 116.02L29.9492 116.295C30.5312 116.428 30.9805 116.609 31.2969 116.84C31.8438 117.242 32.1172 117.826 32.1172 118.592C32.1172 119.545 31.7695 120.227 31.0742 120.637C30.3828 121.047 29.5781 121.252 28.6602 121.252C27.5898 121.252 26.752 120.979 26.1465 120.432C25.541 119.889 25.2441 119.152 25.2559 118.223H26.3516Z" fill="black"/>
</svg>
